G04*
G04 #@! TF.GenerationSoftware,Altium Limited,Altium Designer,20.0.2 (26)*
G04*
G04 Layer_Color=255*
%FSLAX25Y25*%
%MOIN*%
G70*
G01*
G75*
%ADD15R,0.05709X0.02362*%
%ADD16R,0.04528X0.05315*%
%ADD24C,0.06000*%
%ADD25C,0.12224*%
%ADD26R,0.12224X0.12224*%
D15*
X243957Y315000D02*
D03*
Y310000D02*
D03*
Y320000D02*
D03*
Y300000D02*
D03*
Y305000D02*
D03*
Y295000D02*
D03*
Y290000D02*
D03*
Y285000D02*
D03*
X222500Y320000D02*
D03*
Y310000D02*
D03*
Y315000D02*
D03*
Y300000D02*
D03*
Y305000D02*
D03*
Y290000D02*
D03*
Y295000D02*
D03*
Y285000D02*
D03*
X243728Y264000D02*
D03*
Y259000D02*
D03*
Y254000D02*
D03*
Y249000D02*
D03*
X222272D02*
D03*
Y264000D02*
D03*
Y259000D02*
D03*
Y254000D02*
D03*
D16*
X312445Y237500D02*
D03*
X305555D02*
D03*
D24*
X186500Y255193D02*
D03*
Y263854D02*
D03*
Y272516D02*
D03*
Y281177D02*
D03*
Y289839D02*
D03*
Y298500D02*
D03*
Y307161D02*
D03*
Y315823D02*
D03*
Y324484D02*
D03*
Y333146D02*
D03*
Y341807D02*
D03*
Y350468D02*
D03*
X198311Y255193D02*
D03*
D03*
Y263854D02*
D03*
Y272516D02*
D03*
Y281177D02*
D03*
Y289839D02*
D03*
Y298500D02*
D03*
Y307161D02*
D03*
Y315823D02*
D03*
Y324484D02*
D03*
Y333146D02*
D03*
Y341807D02*
D03*
Y350468D02*
D03*
X301311Y256016D02*
D03*
Y264677D02*
D03*
Y273339D02*
D03*
Y282000D02*
D03*
Y290661D02*
D03*
Y299323D02*
D03*
Y307984D02*
D03*
Y316646D02*
D03*
Y325307D02*
D03*
Y333968D02*
D03*
Y342630D02*
D03*
Y351291D02*
D03*
D03*
X289500Y256016D02*
D03*
Y264677D02*
D03*
Y273339D02*
D03*
Y282000D02*
D03*
Y290661D02*
D03*
Y299323D02*
D03*
Y307984D02*
D03*
Y316646D02*
D03*
Y325307D02*
D03*
Y333968D02*
D03*
Y342630D02*
D03*
Y351291D02*
D03*
D25*
X284500Y224500D02*
D03*
X207000Y225000D02*
D03*
X187000D02*
D03*
X227000D02*
D03*
X167000D02*
D03*
D26*
X304500Y224500D02*
D03*
X247000Y225000D02*
D03*
M02*
