G04*
G04 #@! TF.GenerationSoftware,Altium Limited,Altium Designer,20.0.2 (26)*
G04*
G04 Layer_Color=8388736*
%FSLAX25Y25*%
%MOIN*%
G70*
G01*
G75*
%ADD17R,0.06509X0.03162*%
%ADD18R,0.05328X0.06115*%
%ADD19C,0.00800*%
%ADD20C,0.06800*%
%ADD21C,0.13024*%
%ADD22R,0.13024X0.13024*%
%ADD23C,0.05800*%
G36*
X232916Y370020D02*
X233291D01*
Y369978D01*
X233458D01*
Y369937D01*
X233541D01*
Y369895D01*
X233583D01*
Y369853D01*
X233666D01*
Y369812D01*
X233708D01*
Y369770D01*
X233750D01*
Y369728D01*
X233791D01*
Y369687D01*
X233875D01*
Y369645D01*
X233916D01*
Y369603D01*
X233958D01*
Y369562D01*
X234000D01*
Y369520D01*
X234041D01*
Y369479D01*
X234083D01*
Y369437D01*
Y369395D01*
X234125D01*
Y369354D01*
Y369312D01*
X234166D01*
Y369270D01*
X234208D01*
Y369229D01*
X234250D01*
Y369187D01*
Y369145D01*
X234291D01*
Y369104D01*
Y369062D01*
X234333D01*
Y369020D01*
Y368979D01*
Y368937D01*
X234375D01*
Y368895D01*
Y368853D01*
X234416D01*
Y368812D01*
Y368770D01*
Y368728D01*
Y368687D01*
X234458D01*
Y368645D01*
Y368603D01*
Y368562D01*
Y368520D01*
Y368478D01*
Y368437D01*
Y368395D01*
Y368354D01*
Y368312D01*
Y368270D01*
Y368229D01*
Y368187D01*
Y368145D01*
Y368104D01*
Y368062D01*
Y368020D01*
Y367979D01*
Y367937D01*
Y367895D01*
Y367854D01*
Y367812D01*
Y367770D01*
Y367729D01*
Y367687D01*
X234416D01*
Y367645D01*
X234375D01*
Y367604D01*
X234333D01*
Y367562D01*
X234291D01*
Y367520D01*
X234250D01*
Y367479D01*
X234125D01*
Y367437D01*
X233541D01*
Y367395D01*
X233500D01*
Y367354D01*
Y367312D01*
X233458D01*
Y367270D01*
Y367229D01*
X233416D01*
Y367187D01*
Y367145D01*
X233375D01*
Y367104D01*
Y367062D01*
X233333D01*
Y367020D01*
Y366979D01*
X233291D01*
Y366937D01*
Y366895D01*
X233250D01*
Y366854D01*
Y366812D01*
X233208D01*
Y366770D01*
Y366729D01*
X233167D01*
Y366687D01*
Y366645D01*
X233125D01*
Y366604D01*
Y366562D01*
X233083D01*
Y366520D01*
X233042D01*
Y366479D01*
Y366437D01*
X233000D01*
Y366395D01*
Y366354D01*
X232958D01*
Y366312D01*
X233000D01*
Y366270D01*
X233167D01*
Y366312D01*
X234958D01*
Y366354D01*
X238208D01*
Y366312D01*
X238250D01*
Y366270D01*
X238583D01*
Y366229D01*
X239583D01*
Y366187D01*
X240583D01*
Y366145D01*
X241166D01*
Y366104D01*
X241458D01*
Y366062D01*
X241916D01*
Y366020D01*
X242333D01*
Y365979D01*
X242666D01*
Y365937D01*
X242875D01*
Y365895D01*
X243208D01*
Y365854D01*
X243499D01*
Y365812D01*
X243791D01*
Y365770D01*
X244083D01*
Y365729D01*
X244416D01*
Y365687D01*
X244749D01*
Y365645D01*
X245041D01*
Y365604D01*
X245125D01*
Y365562D01*
X245333D01*
Y365520D01*
X245583D01*
Y365479D01*
X245791D01*
Y365437D01*
X246249D01*
Y365395D01*
X246874D01*
Y365354D01*
X246999D01*
Y365312D01*
X246958D01*
Y365270D01*
X246916D01*
Y365229D01*
Y365187D01*
X246874D01*
Y365145D01*
Y365104D01*
Y365062D01*
Y365020D01*
Y364979D01*
Y364937D01*
X246833D01*
Y364895D01*
Y364854D01*
Y364812D01*
Y364770D01*
Y364729D01*
Y364687D01*
Y364645D01*
Y364604D01*
X246791D01*
Y364562D01*
Y364520D01*
Y364479D01*
Y364437D01*
Y364395D01*
X246749D01*
Y364354D01*
Y364312D01*
Y364270D01*
X246708D01*
Y364229D01*
Y364187D01*
Y364145D01*
X246666D01*
Y364104D01*
Y364062D01*
X246624D01*
Y364020D01*
Y363979D01*
Y363937D01*
X246583D01*
Y363895D01*
Y363854D01*
X246541D01*
Y363812D01*
Y363770D01*
Y363729D01*
X246499D01*
Y363687D01*
Y363645D01*
X246458D01*
Y363604D01*
Y363562D01*
Y363520D01*
X246416D01*
Y363479D01*
Y363437D01*
Y363395D01*
X246374D01*
Y363354D01*
Y363312D01*
X246333D01*
Y363270D01*
Y363229D01*
Y363187D01*
X246291D01*
Y363145D01*
Y363104D01*
Y363062D01*
X246249D01*
Y363020D01*
Y362979D01*
Y362937D01*
X246208D01*
Y362895D01*
Y362854D01*
Y362812D01*
X246166D01*
Y362770D01*
Y362729D01*
Y362687D01*
X246124D01*
Y362645D01*
Y362604D01*
X246083D01*
Y362562D01*
Y362520D01*
Y362479D01*
X246041D01*
Y362437D01*
Y362395D01*
Y362354D01*
X245999D01*
Y362312D01*
Y362270D01*
X245958D01*
Y362229D01*
Y362187D01*
Y362145D01*
X245916D01*
Y362104D01*
Y362062D01*
X245874D01*
Y362020D01*
Y361979D01*
X245833D01*
Y361937D01*
Y361895D01*
X245791D01*
Y361854D01*
Y361812D01*
Y361770D01*
X245749D01*
Y361729D01*
Y361687D01*
X245708D01*
Y361645D01*
Y361604D01*
X245666D01*
Y361562D01*
Y361520D01*
X245624D01*
Y361479D01*
Y361437D01*
X245583D01*
Y361395D01*
Y361354D01*
Y361312D01*
X245541D01*
Y361270D01*
Y361229D01*
X245499D01*
Y361187D01*
Y361145D01*
X245458D01*
Y361104D01*
Y361062D01*
X245416D01*
Y361020D01*
Y360979D01*
X245374D01*
Y360937D01*
Y360895D01*
X245333D01*
Y360854D01*
Y360812D01*
X245291D01*
Y360770D01*
Y360729D01*
X245250D01*
Y360687D01*
Y360645D01*
X245208D01*
Y360604D01*
X245166D01*
Y360562D01*
Y360520D01*
X245125D01*
Y360479D01*
Y360437D01*
X245083D01*
Y360395D01*
Y360354D01*
X245041D01*
Y360312D01*
Y360270D01*
X245000D01*
Y360229D01*
X244958D01*
Y360187D01*
Y360145D01*
X244916D01*
Y360104D01*
Y360062D01*
X244875D01*
Y360020D01*
Y359979D01*
X244833D01*
Y359937D01*
Y359895D01*
Y359854D01*
X244791D01*
Y359812D01*
Y359770D01*
Y359729D01*
X244749D01*
Y359687D01*
Y359645D01*
Y359604D01*
Y359562D01*
X244708D01*
Y359520D01*
Y359479D01*
X244666D01*
Y359437D01*
X244624D01*
Y359396D01*
Y359354D01*
X244583D01*
Y359312D01*
X244541D01*
Y359271D01*
Y359229D01*
X244499D01*
Y359187D01*
Y359145D01*
X244458D01*
Y359104D01*
Y359062D01*
X244416D01*
Y359020D01*
X244374D01*
Y358979D01*
Y358937D01*
X244333D01*
Y358895D01*
Y358854D01*
X244291D01*
Y358812D01*
Y358770D01*
X244250D01*
Y358729D01*
X244208D01*
Y358687D01*
Y358646D01*
X244166D01*
Y358604D01*
X244125D01*
Y358562D01*
X244083D01*
Y358521D01*
Y358479D01*
X244041D01*
Y358437D01*
Y358396D01*
X244000D01*
Y358354D01*
Y358312D01*
X243958D01*
Y358271D01*
Y358229D01*
Y358187D01*
X243916D01*
Y358145D01*
Y358104D01*
X243875D01*
Y358062D01*
Y358020D01*
Y357979D01*
X243833D01*
Y357937D01*
Y357895D01*
X243791D01*
Y357854D01*
Y357812D01*
Y357770D01*
X243749D01*
Y357729D01*
Y357687D01*
Y357646D01*
Y357604D01*
X243708D01*
Y357562D01*
Y357521D01*
X243666D01*
Y357479D01*
Y357437D01*
X243624D01*
Y357396D01*
X243583D01*
Y357354D01*
X243541D01*
Y357312D01*
X243499D01*
Y357271D01*
X243458D01*
Y357229D01*
Y357187D01*
X243416D01*
Y357146D01*
Y357104D01*
Y357062D01*
X243499D01*
Y357020D01*
Y356979D01*
X243541D01*
Y356937D01*
Y356895D01*
Y356854D01*
X243583D01*
Y356812D01*
Y356770D01*
Y356729D01*
Y356687D01*
Y356645D01*
X243624D01*
Y356604D01*
Y356562D01*
Y356521D01*
Y356479D01*
Y356437D01*
Y356396D01*
Y356354D01*
Y356312D01*
Y356271D01*
Y356229D01*
Y356187D01*
X243666D01*
Y356146D01*
Y356104D01*
Y356062D01*
Y356021D01*
Y355979D01*
Y355937D01*
X243708D01*
Y355896D01*
Y355854D01*
X243749D01*
Y355812D01*
Y355771D01*
X243791D01*
Y355729D01*
Y355687D01*
X243833D01*
Y355646D01*
Y355604D01*
X243875D01*
Y355562D01*
Y355521D01*
Y355479D01*
X243916D01*
Y355437D01*
Y355396D01*
X243958D01*
Y355354D01*
Y355312D01*
X244000D01*
Y355271D01*
Y355229D01*
X244041D01*
Y355187D01*
Y355146D01*
X244083D01*
Y355104D01*
Y355062D01*
Y355021D01*
X244125D01*
Y354979D01*
Y354937D01*
X244166D01*
Y354896D01*
Y354854D01*
Y354812D01*
X244208D01*
Y354771D01*
Y354729D01*
Y354687D01*
X243791D01*
Y354646D01*
X242333D01*
Y354604D01*
X241708D01*
Y354562D01*
X241541D01*
Y354521D01*
Y354479D01*
X241500D01*
Y354437D01*
X241458D01*
Y354396D01*
X241416D01*
Y354354D01*
X241375D01*
Y354312D01*
X241333D01*
Y354271D01*
Y354229D01*
X241291D01*
Y354187D01*
X241250D01*
Y354146D01*
X241208D01*
Y354104D01*
X241166D01*
Y354062D01*
X241125D01*
Y354021D01*
X241083D01*
Y353979D01*
Y353937D01*
X241041D01*
Y353896D01*
X241000D01*
Y353854D01*
X240958D01*
Y353812D01*
X240916D01*
Y353771D01*
X240875D01*
Y353729D01*
X240833D01*
Y353687D01*
Y353646D01*
X240791D01*
Y353604D01*
X240750D01*
Y353562D01*
X240708D01*
Y353521D01*
X240666D01*
Y353479D01*
X240625D01*
Y353437D01*
Y353396D01*
X240583D01*
Y353354D01*
X240541D01*
Y353312D01*
Y353271D01*
X240500D01*
Y353229D01*
Y353187D01*
X240458D01*
Y353146D01*
X240416D01*
Y353104D01*
Y353062D01*
X240375D01*
Y353021D01*
X240333D01*
Y352979D01*
Y352937D01*
X240291D01*
Y352896D01*
X240250D01*
Y352854D01*
Y352812D01*
X240208D01*
Y352771D01*
X240166D01*
Y352729D01*
Y352687D01*
X240125D01*
Y352646D01*
X240083D01*
Y352604D01*
X240041D01*
Y352562D01*
Y352521D01*
X240000D01*
Y352479D01*
X239958D01*
Y352437D01*
X239916D01*
Y352396D01*
X239875D01*
Y352354D01*
X239833D01*
Y352312D01*
Y352271D01*
X239791D01*
Y352229D01*
X239750D01*
Y352187D01*
Y352146D01*
X239708D01*
Y352104D01*
Y352062D01*
X239666D01*
Y352021D01*
X239625D01*
Y351979D01*
Y351937D01*
X239583D01*
Y351896D01*
Y351854D01*
X239541D01*
Y351812D01*
Y351771D01*
X239500D01*
Y351729D01*
X239458D01*
Y351687D01*
Y351646D01*
X239416D01*
Y351604D01*
Y351562D01*
X239375D01*
Y351521D01*
X239333D01*
Y351479D01*
Y351437D01*
X239291D01*
Y351396D01*
Y351354D01*
X239250D01*
Y351312D01*
X239208D01*
Y351271D01*
Y351229D01*
X239166D01*
Y351187D01*
X239125D01*
Y351146D01*
Y351104D01*
X239083D01*
Y351062D01*
X239041D01*
Y351021D01*
X239000D01*
Y350979D01*
Y350937D01*
X238958D01*
Y350896D01*
X238916D01*
Y350854D01*
X238875D01*
Y350812D01*
X238833D01*
Y350771D01*
Y350729D01*
X238791D01*
Y350687D01*
X238750D01*
Y350646D01*
X238708D01*
Y350604D01*
Y350562D01*
X238666D01*
Y350521D01*
X238625D01*
Y350479D01*
Y350437D01*
X238583D01*
Y350396D01*
Y350354D01*
X238541D01*
Y350312D01*
Y350271D01*
X238500D01*
Y350229D01*
X238458D01*
Y350187D01*
Y350146D01*
X238416D01*
Y350104D01*
X238375D01*
Y350062D01*
X238333D01*
Y350021D01*
Y349979D01*
X238291D01*
Y349937D01*
X238250D01*
Y349896D01*
Y349854D01*
X238208D01*
Y349812D01*
Y349771D01*
X238166D01*
Y349729D01*
Y349687D01*
X238125D01*
Y349646D01*
Y349604D01*
Y349562D01*
X238083D01*
Y349521D01*
Y349479D01*
Y349437D01*
Y349396D01*
X238041D01*
Y349354D01*
X238000D01*
Y349312D01*
Y349271D01*
X237958D01*
Y349229D01*
X237916D01*
Y349187D01*
Y349146D01*
X237875D01*
Y349104D01*
Y349062D01*
X237833D01*
Y349021D01*
Y348979D01*
X237791D01*
Y348937D01*
Y348896D01*
X237750D01*
Y348854D01*
Y348812D01*
X237708D01*
Y348771D01*
Y348729D01*
X237666D01*
Y348687D01*
Y348646D01*
Y348604D01*
Y348562D01*
X237625D01*
Y348521D01*
Y348479D01*
X237583D01*
Y348437D01*
Y348396D01*
X237541D01*
Y348354D01*
Y348312D01*
X237500D01*
Y348271D01*
Y348229D01*
X237458D01*
Y348187D01*
Y348146D01*
X237416D01*
Y348104D01*
Y348062D01*
X237375D01*
Y348021D01*
Y347979D01*
X237333D01*
Y347937D01*
Y347896D01*
X237291D01*
Y347854D01*
Y347812D01*
X237250D01*
Y347771D01*
Y347729D01*
X237208D01*
Y347687D01*
Y347646D01*
Y347604D01*
X237166D01*
Y347562D01*
Y347521D01*
X237125D01*
Y347479D01*
Y347437D01*
Y347396D01*
X237083D01*
Y347354D01*
Y347312D01*
Y347271D01*
X237041D01*
Y347229D01*
Y347187D01*
Y347146D01*
Y347104D01*
X237000D01*
Y347062D01*
Y347021D01*
X236958D01*
Y346979D01*
Y346937D01*
Y346896D01*
X236916D01*
Y346854D01*
Y346813D01*
X236875D01*
Y346771D01*
Y346729D01*
Y346688D01*
X236833D01*
Y346646D01*
Y346604D01*
X236791D01*
Y346563D01*
Y346521D01*
Y346479D01*
X236750D01*
Y346438D01*
Y346396D01*
Y346354D01*
Y346312D01*
Y346271D01*
X236708D01*
Y346229D01*
Y346187D01*
Y346146D01*
X236666D01*
Y346104D01*
Y346062D01*
Y346021D01*
Y345979D01*
X236625D01*
Y345937D01*
Y345896D01*
Y345854D01*
Y345813D01*
X236583D01*
Y345771D01*
Y345729D01*
Y345688D01*
Y345646D01*
X236541D01*
Y345604D01*
Y345563D01*
Y345521D01*
Y345479D01*
X236500D01*
Y345438D01*
Y345396D01*
Y345354D01*
Y345312D01*
X236458D01*
Y345271D01*
Y345229D01*
Y345187D01*
X236416D01*
Y345146D01*
Y345104D01*
Y345062D01*
X236375D01*
Y345021D01*
Y344979D01*
X236333D01*
Y344937D01*
Y344896D01*
Y344854D01*
X236291D01*
Y344812D01*
Y344771D01*
X236250D01*
Y344729D01*
Y344688D01*
X236208D01*
Y344646D01*
Y344604D01*
Y344563D01*
X236166D01*
Y344521D01*
Y344479D01*
Y344438D01*
Y344396D01*
X236125D01*
Y344354D01*
Y344313D01*
Y344271D01*
X236083D01*
Y344229D01*
Y344187D01*
Y344146D01*
X236041D01*
Y344104D01*
Y344062D01*
X236000D01*
Y344021D01*
Y343979D01*
X235958D01*
Y343937D01*
X235916D01*
Y343896D01*
Y343854D01*
Y343813D01*
Y343771D01*
Y343729D01*
X235875D01*
Y343688D01*
Y343646D01*
Y343604D01*
X235833D01*
Y343563D01*
Y343521D01*
Y343479D01*
Y343438D01*
Y343396D01*
Y343354D01*
Y343313D01*
Y343271D01*
X236041D01*
Y343229D01*
X236000D01*
Y343188D01*
X235958D01*
Y343146D01*
X235916D01*
Y343104D01*
X235875D01*
Y343063D01*
X235833D01*
Y343021D01*
X235791D01*
Y342979D01*
X235750D01*
Y342938D01*
X235666D01*
Y342896D01*
X235583D01*
Y342854D01*
X235416D01*
Y342813D01*
X235041D01*
Y342771D01*
X234916D01*
Y342729D01*
X234833D01*
Y342688D01*
X234750D01*
Y342729D01*
X234583D01*
Y342688D01*
X234208D01*
Y342646D01*
X234125D01*
Y342604D01*
X234000D01*
Y342563D01*
X233791D01*
Y342521D01*
X233167D01*
Y342479D01*
X232875D01*
Y342438D01*
X232583D01*
Y342396D01*
X232042D01*
Y342354D01*
X230042D01*
Y342396D01*
X228333D01*
Y342438D01*
X227167D01*
Y342479D01*
X226333D01*
Y342521D01*
X225875D01*
Y342479D01*
X225833D01*
Y342438D01*
Y342396D01*
X225792D01*
Y342354D01*
Y342313D01*
X225750D01*
Y342271D01*
Y342229D01*
X225708D01*
Y342188D01*
X225667D01*
Y342146D01*
Y342104D01*
X225625D01*
Y342063D01*
Y342021D01*
X225583D01*
Y341979D01*
X225542D01*
Y341938D01*
Y341896D01*
X225500D01*
Y341854D01*
X225458D01*
Y341813D01*
Y341771D01*
X225417D01*
Y341729D01*
X225375D01*
Y341688D01*
Y341646D01*
X225333D01*
Y341604D01*
X225292D01*
Y341563D01*
X225250D01*
Y341521D01*
Y341479D01*
X225208D01*
Y341438D01*
X225167D01*
Y341396D01*
X225125D01*
Y341354D01*
Y341313D01*
X225083D01*
Y341271D01*
X225042D01*
Y341229D01*
Y341188D01*
X225000D01*
Y341146D01*
X224958D01*
Y341104D01*
Y341063D01*
X224917D01*
Y341021D01*
X224875D01*
Y340979D01*
Y340938D01*
X224833D01*
Y340896D01*
X224792D01*
Y340854D01*
X224750D01*
Y340813D01*
Y340771D01*
X224708D01*
Y340729D01*
X224667D01*
Y340688D01*
Y340646D01*
X224625D01*
Y340604D01*
X224583D01*
Y340563D01*
X224542D01*
Y340521D01*
Y340479D01*
X224500D01*
Y340438D01*
X224458D01*
Y340396D01*
X224417D01*
Y340354D01*
Y340313D01*
X224375D01*
Y340271D01*
X224333D01*
Y340229D01*
X224292D01*
Y340188D01*
Y340146D01*
X224250D01*
Y340104D01*
X224208D01*
Y340063D01*
X224167D01*
Y340021D01*
Y339979D01*
X224125D01*
Y339938D01*
X224083D01*
Y339896D01*
X224042D01*
Y339854D01*
X224000D01*
Y339813D01*
Y339771D01*
X223958D01*
Y339729D01*
X223917D01*
Y339688D01*
X223875D01*
Y339646D01*
X223833D01*
Y339604D01*
X223792D01*
Y339563D01*
Y339521D01*
X223750D01*
Y339479D01*
X223708D01*
Y339438D01*
X223667D01*
Y339396D01*
X223625D01*
Y339354D01*
X223583D01*
Y339313D01*
Y339271D01*
X223542D01*
Y339229D01*
X223500D01*
Y339188D01*
X223458D01*
Y339146D01*
X223417D01*
Y339104D01*
X223375D01*
Y339063D01*
X223333D01*
Y339021D01*
X223292D01*
Y338979D01*
X223250D01*
Y338938D01*
X223208D01*
Y338896D01*
X223167D01*
Y338854D01*
X223125D01*
Y338813D01*
X223083D01*
Y338771D01*
X223042D01*
Y338813D01*
Y338854D01*
X223083D01*
Y338896D01*
X223125D01*
Y338938D01*
X223167D01*
Y338979D01*
X223208D01*
Y339021D01*
X223250D01*
Y339063D01*
X223292D01*
Y339104D01*
X223333D01*
Y339146D01*
Y339188D01*
X223375D01*
Y339229D01*
X223417D01*
Y339271D01*
X223458D01*
Y339313D01*
X223500D01*
Y339354D01*
Y339396D01*
X223542D01*
Y339438D01*
X223583D01*
Y339479D01*
X223625D01*
Y339521D01*
X223667D01*
Y339563D01*
Y339604D01*
X223708D01*
Y339646D01*
X223750D01*
Y339688D01*
X223792D01*
Y339729D01*
X223833D01*
Y339771D01*
Y339813D01*
X223875D01*
Y339854D01*
X223917D01*
Y339896D01*
X223958D01*
Y339938D01*
Y339979D01*
X224000D01*
Y340021D01*
X224042D01*
Y340063D01*
X224083D01*
Y340104D01*
Y340146D01*
Y340188D01*
X224042D01*
Y340146D01*
X224000D01*
Y340104D01*
X223958D01*
Y340063D01*
X223917D01*
Y340021D01*
X223875D01*
Y339979D01*
X223833D01*
Y339938D01*
X223792D01*
Y339896D01*
X223750D01*
Y339938D01*
Y339979D01*
X223792D01*
Y340021D01*
X223833D01*
Y340063D01*
X223875D01*
Y340104D01*
X223917D01*
Y340146D01*
Y340188D01*
X223958D01*
Y340229D01*
X224000D01*
Y340271D01*
X224042D01*
Y340313D01*
Y340354D01*
X224083D01*
Y340396D01*
Y340438D01*
X224125D01*
Y340479D01*
X224167D01*
Y340521D01*
Y340563D01*
X224208D01*
Y340604D01*
X224250D01*
Y340646D01*
Y340688D01*
X224292D01*
Y340729D01*
X224333D01*
Y340771D01*
Y340813D01*
X224375D01*
Y340854D01*
X224417D01*
Y340896D01*
Y340938D01*
X224458D01*
Y340979D01*
Y341021D01*
X224375D01*
Y340979D01*
X224292D01*
Y340938D01*
X224250D01*
Y340896D01*
X224208D01*
Y340854D01*
X224167D01*
Y340813D01*
X224125D01*
Y340771D01*
X224083D01*
Y340729D01*
X224042D01*
Y340688D01*
X224000D01*
Y340646D01*
X223958D01*
Y340604D01*
X223917D01*
Y340563D01*
X223875D01*
Y340604D01*
Y340646D01*
X223917D01*
Y340688D01*
X223958D01*
Y340729D01*
X224000D01*
Y340771D01*
X224042D01*
Y340813D01*
X224083D01*
Y340854D01*
X224125D01*
Y340896D01*
X224167D01*
Y340938D01*
X224208D01*
Y340979D01*
X224250D01*
Y341021D01*
X224292D01*
Y341063D01*
X224333D01*
Y341104D01*
Y341146D01*
X224250D01*
Y341104D01*
X224208D01*
Y341063D01*
X224167D01*
Y341021D01*
X224125D01*
Y340979D01*
X224042D01*
Y340938D01*
X224000D01*
Y340896D01*
X223917D01*
Y340854D01*
X223792D01*
Y340813D01*
X223750D01*
Y340771D01*
X223708D01*
Y340729D01*
Y340688D01*
X223667D01*
Y340646D01*
Y340604D01*
X223625D01*
Y340563D01*
Y340521D01*
X223583D01*
Y340479D01*
Y340438D01*
Y340396D01*
X223542D01*
Y340354D01*
Y340313D01*
Y340271D01*
X223583D01*
Y340313D01*
X223625D01*
Y340354D01*
X223667D01*
Y340396D01*
X223708D01*
Y340354D01*
Y340313D01*
X223667D01*
Y340271D01*
X223625D01*
Y340229D01*
X223583D01*
Y340188D01*
X223542D01*
Y340146D01*
X223500D01*
Y340104D01*
X223458D01*
Y340063D01*
X223417D01*
Y340021D01*
X223375D01*
Y339979D01*
X223333D01*
Y339938D01*
Y339896D01*
X223292D01*
Y339854D01*
X223250D01*
Y339813D01*
X223208D01*
Y339771D01*
X223167D01*
Y339729D01*
X223125D01*
Y339688D01*
Y339646D01*
X223083D01*
Y339604D01*
X223042D01*
Y339563D01*
X223000D01*
Y339521D01*
X222958D01*
Y339479D01*
Y339438D01*
X222917D01*
Y339396D01*
X222875D01*
Y339354D01*
X222833D01*
Y339313D01*
X222792D01*
Y339271D01*
Y339229D01*
X222750D01*
Y339188D01*
X222708D01*
Y339146D01*
Y339104D01*
X222667D01*
Y339063D01*
X222625D01*
Y339021D01*
Y338979D01*
X222583D01*
Y338938D01*
X222542D01*
Y338896D01*
Y338854D01*
X222500D01*
Y338813D01*
X222458D01*
Y338771D01*
Y338729D01*
X222500D01*
Y338771D01*
X222542D01*
Y338813D01*
X222583D01*
Y338854D01*
X222667D01*
Y338813D01*
X222625D01*
Y338771D01*
X222583D01*
Y338729D01*
X222542D01*
Y338688D01*
X222458D01*
Y338646D01*
X222417D01*
Y338604D01*
X222375D01*
Y338563D01*
X222333D01*
Y338521D01*
X222292D01*
Y338479D01*
X222250D01*
Y338438D01*
X222208D01*
Y338396D01*
X222167D01*
Y338354D01*
X222125D01*
Y338313D01*
X222083D01*
Y338271D01*
X222042D01*
Y338229D01*
X222000D01*
Y338188D01*
X221917D01*
Y338146D01*
X221875D01*
Y338104D01*
X221833D01*
Y338063D01*
X221792D01*
Y338021D01*
X221750D01*
Y337979D01*
X221708D01*
Y337938D01*
X221667D01*
Y337896D01*
X221625D01*
Y337854D01*
X221583D01*
Y337813D01*
X221500D01*
Y337771D01*
X221458D01*
Y337729D01*
X221417D01*
Y337688D01*
X221375D01*
Y337646D01*
X221333D01*
Y337604D01*
X221292D01*
Y337563D01*
X221250D01*
Y337521D01*
X221208D01*
Y337479D01*
X221167D01*
Y337438D01*
Y337396D01*
X221125D01*
Y337354D01*
Y337313D01*
X221208D01*
Y337354D01*
X221250D01*
Y337396D01*
X221333D01*
Y337438D01*
X221375D01*
Y337479D01*
X221458D01*
Y337521D01*
X221500D01*
Y337563D01*
X221583D01*
Y337521D01*
X221542D01*
Y337479D01*
X221500D01*
Y337438D01*
X221417D01*
Y337396D01*
X221375D01*
Y337354D01*
X221333D01*
Y337313D01*
X221250D01*
Y337271D01*
X221208D01*
Y337229D01*
X221125D01*
Y337188D01*
X221083D01*
Y337146D01*
X221000D01*
Y337104D01*
X220958D01*
Y337063D01*
X220875D01*
Y337021D01*
X220833D01*
Y336979D01*
X220792D01*
Y336938D01*
X220708D01*
Y336896D01*
X220667D01*
Y336854D01*
X220584D01*
Y336813D01*
X220542D01*
Y336771D01*
X220500D01*
Y336729D01*
X220417D01*
Y336688D01*
X220375D01*
Y336646D01*
X220292D01*
Y336604D01*
X220209D01*
Y336563D01*
X220125D01*
Y336521D01*
X220042D01*
Y336479D01*
X220000D01*
Y336438D01*
X219917D01*
Y336396D01*
X219833D01*
Y336354D01*
X219792D01*
Y336313D01*
X219708D01*
Y336271D01*
X219625D01*
Y336229D01*
X219584D01*
Y336188D01*
X219500D01*
Y336229D01*
X219542D01*
Y336271D01*
X219584D01*
Y336313D01*
X219625D01*
Y336354D01*
X219708D01*
Y336396D01*
X219750D01*
Y336438D01*
X219833D01*
Y336479D01*
X219875D01*
Y336521D01*
X219750D01*
Y336479D01*
X219667D01*
Y336521D01*
X219708D01*
Y336563D01*
X219792D01*
Y336604D01*
X219833D01*
Y336646D01*
X219875D01*
Y336688D01*
X219917D01*
Y336729D01*
X220000D01*
Y336771D01*
X220042D01*
Y336813D01*
X220083D01*
Y336854D01*
X220167D01*
Y336896D01*
X220250D01*
Y336938D01*
X220292D01*
Y336979D01*
X220375D01*
Y337021D01*
X220459D01*
Y336979D01*
X220417D01*
Y336938D01*
X220375D01*
Y336896D01*
X220334D01*
Y336854D01*
X220292D01*
Y336813D01*
X220250D01*
Y336771D01*
X220209D01*
Y336729D01*
X220292D01*
Y336771D01*
X220375D01*
Y336813D01*
X220417D01*
Y336854D01*
X220500D01*
Y336896D01*
X220542D01*
Y336938D01*
X220625D01*
Y336979D01*
X220667D01*
Y337021D01*
X220708D01*
Y337063D01*
X220750D01*
Y337104D01*
X220792D01*
Y337146D01*
Y337188D01*
Y337229D01*
X220750D01*
Y337271D01*
X220792D01*
Y337313D01*
X220833D01*
Y337354D01*
X220917D01*
Y337396D01*
X220958D01*
Y337438D01*
X221000D01*
Y337479D01*
X221042D01*
Y337521D01*
X221083D01*
Y337563D01*
X221125D01*
Y337604D01*
X221167D01*
Y337646D01*
X221208D01*
Y337688D01*
X221250D01*
Y337729D01*
X221292D01*
Y337771D01*
X221333D01*
Y337813D01*
X221375D01*
Y337854D01*
X221417D01*
Y337896D01*
Y337938D01*
X221458D01*
Y337979D01*
X221500D01*
Y338021D01*
X221542D01*
Y338063D01*
X221583D01*
Y338104D01*
X221625D01*
Y338146D01*
Y338188D01*
X221667D01*
Y338229D01*
X221708D01*
Y338271D01*
X221750D01*
Y338313D01*
X221792D01*
Y338354D01*
X221833D01*
Y338396D01*
X221875D01*
Y338438D01*
X221917D01*
Y338479D01*
Y338521D01*
X221958D01*
Y338563D01*
X222000D01*
Y338604D01*
X222042D01*
Y338646D01*
X222083D01*
Y338688D01*
X222125D01*
Y338729D01*
X222167D01*
Y338771D01*
X222208D01*
Y338813D01*
X222250D01*
Y338854D01*
X222292D01*
Y338896D01*
X222333D01*
Y338938D01*
Y338979D01*
X222375D01*
Y339021D01*
X222417D01*
Y339063D01*
X222458D01*
Y339104D01*
X222500D01*
Y339146D01*
X222542D01*
Y339188D01*
X222583D01*
Y339229D01*
Y339271D01*
X222625D01*
Y339313D01*
X222667D01*
Y339354D01*
X222708D01*
Y339396D01*
Y339438D01*
X222750D01*
Y339479D01*
X222792D01*
Y339521D01*
X222833D01*
Y339563D01*
Y339604D01*
X222875D01*
Y339646D01*
Y339688D01*
X222917D01*
Y339729D01*
X222958D01*
Y339771D01*
Y339813D01*
X223000D01*
Y339854D01*
Y339896D01*
X223042D01*
Y339938D01*
Y339979D01*
X223083D01*
Y340021D01*
Y340063D01*
X223125D01*
Y340104D01*
Y340146D01*
X223167D01*
Y340188D01*
Y340229D01*
Y340271D01*
X223208D01*
Y340313D01*
Y340354D01*
X223250D01*
Y340396D01*
X223167D01*
Y340438D01*
X223208D01*
Y340479D01*
X223250D01*
Y340521D01*
X223292D01*
Y340563D01*
X223333D01*
Y340604D01*
Y340646D01*
X223375D01*
Y340688D01*
X223417D01*
Y340729D01*
Y340771D01*
X223208D01*
Y340729D01*
X223000D01*
Y340688D01*
X222875D01*
Y340646D01*
X222792D01*
Y340604D01*
X222750D01*
Y340563D01*
X222708D01*
Y340521D01*
X222667D01*
Y340479D01*
X222625D01*
Y340438D01*
X222583D01*
Y340396D01*
X222542D01*
Y340354D01*
X222500D01*
Y340313D01*
X222458D01*
Y340271D01*
X222417D01*
Y340229D01*
Y340188D01*
X222375D01*
Y340146D01*
X222333D01*
Y340104D01*
X222292D01*
Y340063D01*
X222250D01*
Y340021D01*
X222208D01*
Y339979D01*
X222167D01*
Y339938D01*
X222125D01*
Y339896D01*
X222083D01*
Y339854D01*
X222042D01*
Y339896D01*
Y339938D01*
X221958D01*
Y339896D01*
X221917D01*
Y339854D01*
X221875D01*
Y339813D01*
X221792D01*
Y339771D01*
X221750D01*
Y339729D01*
X221708D01*
Y339688D01*
X221667D01*
Y339646D01*
X221583D01*
Y339604D01*
X221500D01*
Y339563D01*
X221333D01*
Y339521D01*
X221167D01*
Y339479D01*
X221042D01*
Y339438D01*
X220917D01*
Y339396D01*
X220792D01*
Y339354D01*
X220625D01*
Y339313D01*
X220542D01*
Y339271D01*
X220417D01*
Y339229D01*
X220292D01*
Y339188D01*
X220209D01*
Y339146D01*
X220083D01*
Y339104D01*
X220000D01*
Y339063D01*
X219875D01*
Y339021D01*
X219792D01*
Y338979D01*
X219708D01*
Y338938D01*
X219625D01*
Y338979D01*
X219667D01*
Y339021D01*
X219708D01*
Y339063D01*
X219750D01*
Y339104D01*
X219792D01*
Y339146D01*
X219833D01*
Y339188D01*
X219875D01*
Y339229D01*
X219917D01*
Y339271D01*
X219958D01*
Y339313D01*
X220000D01*
Y339354D01*
Y339396D01*
X220042D01*
Y339438D01*
X220083D01*
Y339479D01*
X220125D01*
Y339521D01*
Y339563D01*
X220167D01*
Y339604D01*
X220209D01*
Y339646D01*
X220250D01*
Y339688D01*
X220292D01*
Y339729D01*
X220334D01*
Y339771D01*
X220375D01*
Y339813D01*
Y339854D01*
X220250D01*
Y339813D01*
X220167D01*
Y339771D01*
X220083D01*
Y339729D01*
X220042D01*
Y339688D01*
X220000D01*
Y339646D01*
X219958D01*
Y339604D01*
X219917D01*
Y339563D01*
X219875D01*
Y339521D01*
Y339479D01*
X219833D01*
Y339438D01*
X219792D01*
Y339396D01*
X219750D01*
Y339354D01*
Y339313D01*
X219708D01*
Y339271D01*
X219667D01*
Y339229D01*
X219625D01*
Y339188D01*
Y339146D01*
X219584D01*
Y339104D01*
X219542D01*
Y339063D01*
X219500D01*
Y339021D01*
Y338979D01*
X219459D01*
Y338938D01*
X219417D01*
Y338896D01*
X219375D01*
Y338854D01*
Y338813D01*
X219334D01*
Y338771D01*
X219292D01*
Y338729D01*
X219250D01*
Y338688D01*
Y338646D01*
X219209D01*
Y338604D01*
X219167D01*
Y338563D01*
X219125D01*
Y338521D01*
Y338479D01*
X219083D01*
Y338438D01*
X219042D01*
Y338396D01*
X219000D01*
Y338354D01*
X218958D01*
Y338313D01*
Y338271D01*
X218917D01*
Y338229D01*
X218875D01*
Y338188D01*
X218833D01*
Y338146D01*
X218792D01*
Y338104D01*
Y338063D01*
X218750D01*
Y338021D01*
X218708D01*
Y337979D01*
X218667D01*
Y337938D01*
Y337896D01*
X218625D01*
Y337854D01*
X218583D01*
Y337813D01*
X218542D01*
Y337771D01*
X218500D01*
Y337729D01*
X218459D01*
Y337688D01*
Y337646D01*
X218417D01*
Y337604D01*
X218375D01*
Y337563D01*
X218334D01*
Y337521D01*
Y337479D01*
X218292D01*
Y337438D01*
X218250D01*
Y337396D01*
X218209D01*
Y337354D01*
Y337313D01*
X218167D01*
Y337271D01*
X218250D01*
Y337313D01*
X218292D01*
Y337354D01*
X218375D01*
Y337313D01*
X218334D01*
Y337271D01*
X218292D01*
Y337229D01*
X218209D01*
Y337188D01*
X218167D01*
Y337146D01*
X218125D01*
Y337104D01*
X218084D01*
Y337063D01*
X218042D01*
Y337021D01*
X218000D01*
Y336979D01*
X217958D01*
Y336938D01*
X217917D01*
Y336896D01*
X217875D01*
Y336854D01*
X217833D01*
Y336813D01*
X217792D01*
Y336771D01*
X217750D01*
Y336729D01*
X217708D01*
Y336688D01*
X217667D01*
Y336646D01*
X217625D01*
Y336604D01*
X217583D01*
Y336563D01*
X217542D01*
Y336521D01*
X217500D01*
Y336479D01*
Y336438D01*
X217459D01*
Y336396D01*
X217417D01*
Y336354D01*
X217375D01*
Y336313D01*
X217334D01*
Y336271D01*
X217292D01*
Y336229D01*
X217250D01*
Y336188D01*
X217209D01*
Y336146D01*
Y336104D01*
X217167D01*
Y336063D01*
X217125D01*
Y336021D01*
X217084D01*
Y335979D01*
X217042D01*
Y335938D01*
X217000D01*
Y335896D01*
X216959D01*
Y335854D01*
X216917D01*
Y335813D01*
Y335771D01*
X216875D01*
Y335729D01*
X216834D01*
Y335688D01*
X216792D01*
Y335646D01*
X216750D01*
Y335604D01*
X216709D01*
Y335563D01*
X216667D01*
Y335521D01*
X216625D01*
Y335479D01*
X216584D01*
Y335438D01*
X216500D01*
Y335479D01*
X216542D01*
Y335521D01*
X216584D01*
Y335563D01*
X216625D01*
Y335604D01*
X216667D01*
Y335646D01*
Y335688D01*
X216709D01*
Y335729D01*
X216750D01*
Y335771D01*
X216792D01*
Y335813D01*
X216834D01*
Y335854D01*
X216875D01*
Y335896D01*
X216917D01*
Y335938D01*
X216959D01*
Y335979D01*
Y336021D01*
X217000D01*
Y336063D01*
X217042D01*
Y336104D01*
X217084D01*
Y336146D01*
X217125D01*
Y336188D01*
X217167D01*
Y336229D01*
Y336271D01*
X217209D01*
Y336313D01*
X217250D01*
Y336354D01*
X217292D01*
Y336396D01*
X217334D01*
Y336438D01*
Y336479D01*
X217375D01*
Y336521D01*
X217417D01*
Y336563D01*
X217459D01*
Y336604D01*
X217500D01*
Y336646D01*
Y336688D01*
X217542D01*
Y336729D01*
X217583D01*
Y336771D01*
Y336813D01*
X217625D01*
Y336854D01*
X217667D01*
Y336896D01*
X217708D01*
Y336938D01*
Y336979D01*
X217750D01*
Y337021D01*
Y337063D01*
X217792D01*
Y337104D01*
X217833D01*
Y337146D01*
Y337188D01*
X217875D01*
Y337229D01*
Y337271D01*
X217917D01*
Y337313D01*
Y337354D01*
X217958D01*
Y337396D01*
X218000D01*
Y337438D01*
X217917D01*
Y337396D01*
X217875D01*
Y337354D01*
X217833D01*
Y337313D01*
X217792D01*
Y337271D01*
X217750D01*
Y337229D01*
X217708D01*
Y337188D01*
X217667D01*
Y337146D01*
X217625D01*
Y337104D01*
X217583D01*
Y337063D01*
X217542D01*
Y337021D01*
X217500D01*
Y336979D01*
X217459D01*
Y336938D01*
X217417D01*
Y336896D01*
X217375D01*
Y336854D01*
X217334D01*
Y336813D01*
X217292D01*
Y336771D01*
X217250D01*
Y336729D01*
X217209D01*
Y336688D01*
X217125D01*
Y336729D01*
X217167D01*
Y336771D01*
X217209D01*
Y336813D01*
X217250D01*
Y336854D01*
X217292D01*
Y336896D01*
X217334D01*
Y336938D01*
X217375D01*
Y336979D01*
X217417D01*
Y337021D01*
Y337063D01*
X217459D01*
Y337104D01*
X217500D01*
Y337146D01*
X217542D01*
Y337188D01*
Y337229D01*
X217583D01*
Y337271D01*
X217625D01*
Y337313D01*
X217667D01*
Y337354D01*
Y337396D01*
X217708D01*
Y337438D01*
X217750D01*
Y337479D01*
Y337521D01*
X217792D01*
Y337563D01*
X217833D01*
Y337604D01*
X217875D01*
Y337646D01*
Y337688D01*
X217917D01*
Y337729D01*
X217958D01*
Y337771D01*
Y337813D01*
X218000D01*
Y337854D01*
X218042D01*
Y337896D01*
Y337938D01*
X218000D01*
Y337896D01*
X217958D01*
Y337854D01*
X217875D01*
Y337896D01*
X217917D01*
Y337938D01*
X217958D01*
Y337979D01*
X218000D01*
Y338021D01*
X218042D01*
Y338063D01*
X218084D01*
Y338104D01*
X218125D01*
Y338146D01*
Y338188D01*
X218167D01*
Y338229D01*
X218209D01*
Y338271D01*
X218250D01*
Y338313D01*
X218292D01*
Y338354D01*
Y338396D01*
X218334D01*
Y338438D01*
X218375D01*
Y338479D01*
X218417D01*
Y338521D01*
X218459D01*
Y338563D01*
Y338604D01*
X218500D01*
Y338646D01*
X218542D01*
Y338688D01*
X218583D01*
Y338729D01*
Y338771D01*
X218625D01*
Y338813D01*
X218667D01*
Y338854D01*
Y338896D01*
X218708D01*
Y338938D01*
X218750D01*
Y338979D01*
Y339021D01*
X218792D01*
Y339063D01*
X218833D01*
Y339104D01*
Y339146D01*
X218875D01*
Y339188D01*
Y339229D01*
X218917D01*
Y339271D01*
Y339313D01*
X218958D01*
Y339354D01*
Y339396D01*
X219000D01*
Y339438D01*
X219042D01*
Y339479D01*
Y339521D01*
X219083D01*
Y339563D01*
Y339604D01*
X219042D01*
Y339646D01*
X219083D01*
Y339688D01*
Y339729D01*
X219125D01*
Y339771D01*
X219167D01*
Y339813D01*
Y339854D01*
Y339896D01*
Y339938D01*
X219209D01*
Y339979D01*
Y340021D01*
X219250D01*
Y340063D01*
X219292D01*
Y340104D01*
X219334D01*
Y340146D01*
X219375D01*
Y340188D01*
X219417D01*
Y340229D01*
X219500D01*
Y340271D01*
X219542D01*
Y340313D01*
X219584D01*
Y340354D01*
X219625D01*
Y340396D01*
X219667D01*
Y340354D01*
X219750D01*
Y340396D01*
X219792D01*
Y340438D01*
X219833D01*
Y340479D01*
X219875D01*
Y340521D01*
X219958D01*
Y340563D01*
X220000D01*
Y340604D01*
Y340646D01*
X220042D01*
Y340688D01*
X220083D01*
Y340729D01*
X220125D01*
Y340771D01*
X220167D01*
Y340813D01*
X220209D01*
Y340854D01*
X220250D01*
Y340896D01*
X220292D01*
Y340938D01*
X220334D01*
Y340979D01*
X220375D01*
Y341021D01*
X220417D01*
Y341063D01*
X220459D01*
Y341104D01*
X220500D01*
Y341146D01*
X220542D01*
Y341188D01*
X220584D01*
Y341229D01*
Y341271D01*
X220625D01*
Y341313D01*
X220667D01*
Y341354D01*
X220708D01*
Y341396D01*
X220750D01*
Y341438D01*
X220792D01*
Y341479D01*
Y341521D01*
X220833D01*
Y341563D01*
X220875D01*
Y341604D01*
X220917D01*
Y341646D01*
Y341688D01*
X220958D01*
Y341729D01*
X221000D01*
Y341771D01*
Y341813D01*
X221042D01*
Y341854D01*
X221083D01*
Y341896D01*
Y341938D01*
X221125D01*
Y341979D01*
Y342021D01*
X221167D01*
Y342063D01*
Y342104D01*
X221208D01*
Y342146D01*
Y342188D01*
Y342229D01*
Y342271D01*
X221250D01*
Y342313D01*
X221292D01*
Y342354D01*
Y342396D01*
X221333D01*
Y342438D01*
X221375D01*
Y342479D01*
X221417D01*
Y342521D01*
X221458D01*
Y342563D01*
X221500D01*
Y342604D01*
X221542D01*
Y342646D01*
Y342688D01*
X221583D01*
Y342729D01*
Y342771D01*
X221625D01*
Y342813D01*
X221042D01*
Y342854D01*
X220000D01*
Y342896D01*
X219584D01*
Y342938D01*
X219292D01*
Y342979D01*
X219083D01*
Y343021D01*
X218875D01*
Y343063D01*
X218708D01*
Y343104D01*
X218542D01*
Y343146D01*
X218375D01*
Y343188D01*
X218167D01*
Y343229D01*
X218000D01*
Y343271D01*
X217792D01*
Y343313D01*
X217625D01*
Y343354D01*
X217583D01*
Y343396D01*
Y343438D01*
Y343479D01*
X217500D01*
Y343521D01*
X217292D01*
Y343563D01*
X217125D01*
Y343604D01*
X217000D01*
Y343646D01*
X216834D01*
Y343688D01*
X216709D01*
Y343729D01*
X216584D01*
Y343771D01*
X216459D01*
Y343729D01*
X216334D01*
Y343771D01*
Y343813D01*
X216375D01*
Y343854D01*
X216417D01*
Y343896D01*
X216459D01*
Y343937D01*
X216500D01*
Y343979D01*
X216542D01*
Y344021D01*
X216584D01*
Y344062D01*
X216667D01*
Y344104D01*
X216709D01*
Y344146D01*
X216750D01*
Y344187D01*
X216834D01*
Y344229D01*
X217042D01*
Y344187D01*
X217167D01*
Y344146D01*
X217292D01*
Y344104D01*
X217459D01*
Y344062D01*
X217583D01*
Y344021D01*
X217750D01*
Y343979D01*
X217958D01*
Y343937D01*
X218250D01*
Y343896D01*
X218583D01*
Y343854D01*
X218917D01*
Y343813D01*
X219334D01*
Y343771D01*
X219875D01*
Y343729D01*
X220584D01*
Y343688D01*
X221208D01*
Y343646D01*
X221750D01*
Y343604D01*
X222417D01*
Y343563D01*
X223250D01*
Y343521D01*
X223792D01*
Y343479D01*
X224250D01*
Y343438D01*
X224708D01*
Y343396D01*
X225167D01*
Y343354D01*
X225625D01*
Y343313D01*
X226125D01*
Y343271D01*
X226417D01*
Y343229D01*
X226375D01*
Y343188D01*
X226333D01*
Y343146D01*
X226292D01*
Y343104D01*
X226250D01*
Y343063D01*
X226333D01*
Y343021D01*
X226708D01*
Y342979D01*
X227042D01*
Y343021D01*
X227125D01*
Y343063D01*
X227167D01*
Y343104D01*
X227250D01*
Y343146D01*
X227292D01*
Y343188D01*
X229125D01*
Y343229D01*
X231000D01*
Y343271D01*
X231833D01*
Y343313D01*
X232666D01*
Y343354D01*
X233583D01*
Y343396D01*
X234083D01*
Y343438D01*
X234333D01*
Y343479D01*
X234458D01*
Y343521D01*
X234541D01*
Y343563D01*
X234583D01*
Y343604D01*
X234666D01*
Y343646D01*
X234708D01*
Y343688D01*
X234916D01*
Y343646D01*
X235083D01*
Y343688D01*
X235166D01*
Y343729D01*
X235208D01*
Y343771D01*
Y343813D01*
X235250D01*
Y343854D01*
Y343896D01*
Y343937D01*
Y343979D01*
X235291D01*
Y344021D01*
Y344062D01*
Y344104D01*
Y344146D01*
Y344187D01*
Y344229D01*
Y344271D01*
Y344313D01*
Y344354D01*
X235333D01*
Y344396D01*
Y344438D01*
Y344479D01*
X235375D01*
Y344521D01*
X235416D01*
Y344563D01*
Y344604D01*
X235458D01*
Y344646D01*
X235500D01*
Y344688D01*
Y344729D01*
X235541D01*
Y344771D01*
Y344812D01*
X235583D01*
Y344854D01*
Y344896D01*
X235625D01*
Y344937D01*
Y344979D01*
X235666D01*
Y345021D01*
Y345062D01*
X235708D01*
Y345104D01*
Y345146D01*
X235750D01*
Y345187D01*
Y345229D01*
X235791D01*
Y345271D01*
Y345312D01*
Y345354D01*
X235833D01*
Y345396D01*
Y345438D01*
X235875D01*
Y345479D01*
Y345521D01*
X235916D01*
Y345563D01*
Y345604D01*
X235958D01*
Y345646D01*
Y345688D01*
X236000D01*
Y345729D01*
Y345771D01*
Y345813D01*
X236041D01*
Y345854D01*
Y345896D01*
X236083D01*
Y345937D01*
Y345979D01*
X236125D01*
Y346021D01*
Y346062D01*
X236166D01*
Y346104D01*
Y346146D01*
Y346187D01*
X236208D01*
Y346229D01*
Y346271D01*
X236250D01*
Y346312D01*
Y346354D01*
X236291D01*
Y346396D01*
Y346438D01*
X236333D01*
Y346479D01*
Y346521D01*
Y346563D01*
X236375D01*
Y346604D01*
Y346646D01*
X236416D01*
Y346688D01*
Y346729D01*
X236458D01*
Y346771D01*
Y346813D01*
X236500D01*
Y346854D01*
Y346896D01*
Y346937D01*
X236541D01*
Y346979D01*
Y347021D01*
X236583D01*
Y347062D01*
Y347104D01*
X236625D01*
Y347146D01*
Y347187D01*
Y347229D01*
X236666D01*
Y347271D01*
Y347312D01*
X236708D01*
Y347354D01*
Y347396D01*
X236750D01*
Y347437D01*
Y347479D01*
X236791D01*
Y347521D01*
Y347562D01*
Y347604D01*
X236833D01*
Y347646D01*
Y347687D01*
X236875D01*
Y347729D01*
Y347771D01*
X236916D01*
Y347812D01*
Y347854D01*
Y347896D01*
X236958D01*
Y347937D01*
Y347979D01*
X237000D01*
Y348021D01*
Y348062D01*
X237041D01*
Y348104D01*
Y348146D01*
Y348187D01*
X237083D01*
Y348229D01*
Y348271D01*
X237125D01*
Y348312D01*
Y348354D01*
Y348396D01*
X237166D01*
Y348437D01*
Y348479D01*
Y348521D01*
X237208D01*
Y348562D01*
Y348604D01*
Y348646D01*
X237250D01*
Y348687D01*
Y348729D01*
Y348771D01*
X237291D01*
Y348812D01*
Y348854D01*
X237333D01*
Y348896D01*
Y348937D01*
Y348979D01*
X237375D01*
Y349021D01*
Y349062D01*
X237416D01*
Y349104D01*
Y349146D01*
X237458D01*
Y349187D01*
Y349229D01*
X237500D01*
Y349271D01*
X237541D01*
Y349312D01*
Y349354D01*
X237583D01*
Y349396D01*
Y349437D01*
X237625D01*
Y349479D01*
X237666D01*
Y349521D01*
Y349562D01*
X237708D01*
Y349604D01*
X237750D01*
Y349646D01*
Y349687D01*
X237791D01*
Y349729D01*
Y349771D01*
X237833D01*
Y349812D01*
X237875D01*
Y349854D01*
Y349896D01*
X237916D01*
Y349937D01*
Y349979D01*
X237958D01*
Y350021D01*
X238000D01*
Y350062D01*
Y350104D01*
X238041D01*
Y350146D01*
X238083D01*
Y350187D01*
Y350229D01*
X238125D01*
Y350271D01*
Y350312D01*
X238166D01*
Y350354D01*
X238208D01*
Y350396D01*
Y350437D01*
X238250D01*
Y350479D01*
X238291D01*
Y350521D01*
Y350562D01*
X238333D01*
Y350604D01*
Y350646D01*
X238375D01*
Y350687D01*
X238416D01*
Y350729D01*
Y350771D01*
X238458D01*
Y350812D01*
X238500D01*
Y350854D01*
Y350896D01*
X238541D01*
Y350937D01*
X238583D01*
Y350979D01*
Y351021D01*
X238625D01*
Y351062D01*
X238666D01*
Y351104D01*
Y351146D01*
X238708D01*
Y351187D01*
X238750D01*
Y351229D01*
Y351271D01*
X238791D01*
Y351312D01*
X238833D01*
Y351354D01*
Y351396D01*
X238875D01*
Y351437D01*
Y351479D01*
X238916D01*
Y351521D01*
X238958D01*
Y351562D01*
Y351604D01*
X239000D01*
Y351646D01*
X239041D01*
Y351687D01*
Y351729D01*
X239083D01*
Y351771D01*
X239125D01*
Y351812D01*
Y351854D01*
X239166D01*
Y351896D01*
X239208D01*
Y351937D01*
X239250D01*
Y351979D01*
Y352021D01*
X239291D01*
Y352062D01*
X239333D01*
Y352104D01*
Y352146D01*
X239375D01*
Y352187D01*
X239416D01*
Y352229D01*
Y352271D01*
X239458D01*
Y352312D01*
X239500D01*
Y352354D01*
Y352396D01*
X239541D01*
Y352437D01*
X239583D01*
Y352479D01*
Y352521D01*
X239625D01*
Y352562D01*
X239666D01*
Y352604D01*
Y352646D01*
X239708D01*
Y352687D01*
X239750D01*
Y352729D01*
Y352771D01*
X239791D01*
Y352812D01*
X239833D01*
Y352854D01*
X239875D01*
Y352896D01*
Y352937D01*
X239916D01*
Y352979D01*
X239958D01*
Y353021D01*
Y353062D01*
X240000D01*
Y353104D01*
X240041D01*
Y353146D01*
Y353187D01*
X240083D01*
Y353229D01*
X240125D01*
Y353271D01*
X240166D01*
Y353312D01*
Y353354D01*
X240208D01*
Y353396D01*
X240250D01*
Y353437D01*
Y353479D01*
X240291D01*
Y353521D01*
X240333D01*
Y353562D01*
X240375D01*
Y353604D01*
Y353646D01*
X240416D01*
Y353687D01*
X240458D01*
Y353729D01*
Y353771D01*
X240500D01*
Y353812D01*
X240541D01*
Y353854D01*
X240583D01*
Y353896D01*
Y353937D01*
X240625D01*
Y353979D01*
X240666D01*
Y354021D01*
X240708D01*
Y354062D01*
Y354104D01*
X240750D01*
Y354146D01*
X240791D01*
Y354187D01*
X240833D01*
Y354229D01*
Y354271D01*
X240875D01*
Y354312D01*
X240916D01*
Y354354D01*
X240958D01*
Y354396D01*
Y354437D01*
X241000D01*
Y354479D01*
X241041D01*
Y354521D01*
X241083D01*
Y354562D01*
Y354604D01*
X241125D01*
Y354646D01*
Y354687D01*
Y354729D01*
Y354771D01*
X241083D01*
Y354812D01*
Y354854D01*
X241041D01*
Y354896D01*
Y354937D01*
Y354979D01*
X241000D01*
Y355021D01*
Y355062D01*
X240958D01*
Y355104D01*
Y355146D01*
Y355187D01*
X240916D01*
Y355229D01*
Y355271D01*
Y355312D01*
X240875D01*
Y355354D01*
Y355396D01*
X240833D01*
Y355437D01*
Y355479D01*
X240791D01*
Y355521D01*
X240750D01*
Y355562D01*
X240708D01*
Y355604D01*
X240666D01*
Y355646D01*
X240625D01*
Y355687D01*
X240583D01*
Y355729D01*
Y355771D01*
X240541D01*
Y355812D01*
X240500D01*
Y355854D01*
Y355896D01*
X240458D01*
Y355937D01*
X240416D01*
Y355979D01*
Y356021D01*
X240375D01*
Y356062D01*
X240333D01*
Y356104D01*
Y356146D01*
X240291D01*
Y356187D01*
X240250D01*
Y356229D01*
Y356271D01*
X240208D01*
Y356312D01*
X240166D01*
Y356354D01*
X240125D01*
Y356396D01*
Y356437D01*
X240083D01*
Y356479D01*
X240041D01*
Y356521D01*
Y356562D01*
X240000D01*
Y356604D01*
Y356645D01*
X239958D01*
Y356687D01*
X239916D01*
Y356729D01*
Y356770D01*
X239875D01*
Y356812D01*
Y356854D01*
X239833D01*
Y356895D01*
X239791D01*
Y356937D01*
Y356979D01*
X239750D01*
Y357020D01*
X239708D01*
Y357062D01*
Y357104D01*
X239666D01*
Y357146D01*
X239625D01*
Y357104D01*
X239583D01*
Y357062D01*
X239541D01*
Y357020D01*
Y356979D01*
X239500D01*
Y356937D01*
X239458D01*
Y356895D01*
Y356854D01*
X239416D01*
Y356812D01*
Y356770D01*
Y356729D01*
Y356687D01*
X239375D01*
Y356645D01*
Y356604D01*
Y356562D01*
X239333D01*
Y356521D01*
Y356479D01*
Y356437D01*
X239291D01*
Y356396D01*
Y356354D01*
X239250D01*
Y356312D01*
Y356271D01*
X239208D01*
Y356229D01*
Y356187D01*
X239166D01*
Y356146D01*
Y356104D01*
X239125D01*
Y356062D01*
Y356021D01*
X239083D01*
Y355979D01*
Y355937D01*
Y355896D01*
X239041D01*
Y355854D01*
Y355812D01*
X239000D01*
Y355771D01*
Y355729D01*
X238958D01*
Y355687D01*
Y355646D01*
Y355604D01*
X238916D01*
Y355562D01*
Y355521D01*
Y355479D01*
Y355437D01*
X238875D01*
Y355396D01*
Y355354D01*
Y355312D01*
Y355271D01*
Y355229D01*
X238833D01*
Y355187D01*
Y355146D01*
Y355104D01*
Y355062D01*
Y355021D01*
X238791D01*
Y354979D01*
Y354937D01*
Y354896D01*
Y354854D01*
Y354812D01*
Y354771D01*
Y354729D01*
X238750D01*
Y354687D01*
X238708D01*
Y354646D01*
X238666D01*
Y354604D01*
X238625D01*
Y354562D01*
X238583D01*
Y354521D01*
X238541D01*
Y354479D01*
X238500D01*
Y354437D01*
X238416D01*
Y354396D01*
X238375D01*
Y354354D01*
X238208D01*
Y354312D01*
X237625D01*
Y354271D01*
X237250D01*
Y354229D01*
X237041D01*
Y354187D01*
X236833D01*
Y354146D01*
X236500D01*
Y354104D01*
X236250D01*
Y354146D01*
Y354187D01*
X236291D01*
Y354229D01*
X236333D01*
Y354271D01*
X236375D01*
Y354312D01*
X236416D01*
Y354354D01*
X236458D01*
Y354396D01*
X236500D01*
Y354437D01*
X236583D01*
Y354479D01*
X236625D01*
Y354521D01*
X236666D01*
Y354562D01*
X236708D01*
Y354604D01*
X237333D01*
Y354646D01*
X237666D01*
Y354687D01*
X237833D01*
Y354729D01*
X238041D01*
Y354771D01*
X238250D01*
Y354812D01*
X238333D01*
Y354854D01*
Y354896D01*
X238375D01*
Y354937D01*
Y354979D01*
Y355021D01*
X238416D01*
Y355062D01*
Y355104D01*
Y355146D01*
X238458D01*
Y355187D01*
Y355229D01*
Y355271D01*
X238500D01*
Y355312D01*
Y355354D01*
X238541D01*
Y355396D01*
Y355437D01*
Y355479D01*
X238583D01*
Y355521D01*
Y355562D01*
X238625D01*
Y355604D01*
Y355646D01*
X238666D01*
Y355687D01*
Y355729D01*
X238708D01*
Y355771D01*
Y355812D01*
X238750D01*
Y355854D01*
Y355896D01*
X238791D01*
Y355937D01*
Y355979D01*
X238833D01*
Y356021D01*
Y356062D01*
Y356104D01*
X238875D01*
Y356146D01*
Y356187D01*
Y356229D01*
Y356271D01*
X238916D01*
Y356312D01*
Y356354D01*
Y356396D01*
X238958D01*
Y356437D01*
Y356479D01*
X239000D01*
Y356521D01*
Y356562D01*
X239041D01*
Y356604D01*
Y356645D01*
Y356687D01*
X239083D01*
Y356729D01*
Y356770D01*
Y356812D01*
Y356854D01*
Y356895D01*
Y356937D01*
Y356979D01*
X239125D01*
Y357020D01*
X239166D01*
Y357062D01*
Y357104D01*
X239208D01*
Y357146D01*
X239250D01*
Y357187D01*
X239291D01*
Y357229D01*
X239333D01*
Y357271D01*
X239375D01*
Y357312D01*
X239416D01*
Y357354D01*
Y357396D01*
X239375D01*
Y357437D01*
Y357479D01*
Y357521D01*
X239333D01*
Y357562D01*
Y357604D01*
X239291D01*
Y357646D01*
Y357687D01*
Y357729D01*
X239333D01*
Y357770D01*
Y357812D01*
X239375D01*
Y357854D01*
X239416D01*
Y357895D01*
X239500D01*
Y357937D01*
X239541D01*
Y357979D01*
X239583D01*
Y358020D01*
X239625D01*
Y358062D01*
X239666D01*
Y358104D01*
X239750D01*
Y358145D01*
X239791D01*
Y358104D01*
X239833D01*
Y358062D01*
Y358020D01*
X239875D01*
Y357979D01*
Y357937D01*
X239916D01*
Y357895D01*
Y357854D01*
X239958D01*
Y357812D01*
X240000D01*
Y357770D01*
Y357729D01*
X240041D01*
Y357687D01*
X240083D01*
Y357646D01*
X240125D01*
Y357604D01*
Y357562D01*
X240166D01*
Y357521D01*
X240208D01*
Y357479D01*
X240250D01*
Y357437D01*
X240291D01*
Y357396D01*
Y357354D01*
X240333D01*
Y357312D01*
X240375D01*
Y357271D01*
Y357229D01*
X240416D01*
Y357187D01*
X240458D01*
Y357146D01*
Y357104D01*
X240500D01*
Y357062D01*
Y357020D01*
X240541D01*
Y356979D01*
X240583D01*
Y356937D01*
Y356895D01*
X240625D01*
Y356854D01*
Y356812D01*
X240666D01*
Y356770D01*
X240708D01*
Y356729D01*
Y356687D01*
X240750D01*
Y356645D01*
X240791D01*
Y356604D01*
X240833D01*
Y356562D01*
Y356521D01*
X240875D01*
Y356479D01*
X240916D01*
Y356437D01*
Y356396D01*
X240958D01*
Y356354D01*
X241000D01*
Y356312D01*
X241041D01*
Y356271D01*
Y356229D01*
X241083D01*
Y356187D01*
X241125D01*
Y356146D01*
X241166D01*
Y356104D01*
Y356062D01*
X241208D01*
Y356021D01*
X241250D01*
Y355979D01*
X241291D01*
Y355937D01*
X241333D01*
Y355896D01*
Y355854D01*
X241375D01*
Y355812D01*
X241416D01*
Y355771D01*
Y355729D01*
Y355687D01*
X241458D01*
Y355646D01*
Y355604D01*
Y355562D01*
X241500D01*
Y355521D01*
Y355479D01*
Y355437D01*
X241541D01*
Y355396D01*
Y355354D01*
X241583D01*
Y355312D01*
X241666D01*
Y355271D01*
X241708D01*
Y355229D01*
X241750D01*
Y355187D01*
Y355146D01*
Y355104D01*
X241791D01*
Y355062D01*
X241875D01*
Y355021D01*
X241833D01*
Y354979D01*
X241791D01*
Y354937D01*
X241750D01*
Y354896D01*
X241708D01*
Y354854D01*
X241833D01*
Y354896D01*
X241958D01*
Y354937D01*
X242041D01*
Y354979D01*
X242208D01*
Y355021D01*
X243083D01*
Y355062D01*
X243374D01*
Y355104D01*
X243333D01*
Y355146D01*
Y355187D01*
X243291D01*
Y355229D01*
Y355271D01*
X243250D01*
Y355312D01*
Y355354D01*
X243208D01*
Y355396D01*
Y355437D01*
Y355479D01*
X243166D01*
Y355521D01*
Y355562D01*
Y355604D01*
X243125D01*
Y355646D01*
Y355687D01*
Y355729D01*
Y355771D01*
Y355812D01*
Y355854D01*
Y355896D01*
Y355937D01*
Y355979D01*
Y356021D01*
Y356062D01*
Y356104D01*
Y356146D01*
Y356187D01*
X243083D01*
Y356229D01*
Y356271D01*
Y356312D01*
Y356354D01*
X243041D01*
Y356396D01*
Y356437D01*
Y356479D01*
Y356521D01*
X243000D01*
Y356562D01*
Y356604D01*
X242958D01*
Y356645D01*
X242916D01*
Y356687D01*
X242875D01*
Y356729D01*
Y356770D01*
Y356812D01*
X242833D01*
Y356854D01*
Y356895D01*
Y356937D01*
Y356979D01*
X242791D01*
Y357020D01*
Y357062D01*
Y357104D01*
X242750D01*
Y357146D01*
Y357187D01*
X242708D01*
Y357229D01*
Y357271D01*
X242666D01*
Y357312D01*
Y357354D01*
X242624D01*
Y357396D01*
Y357437D01*
X242583D01*
Y357479D01*
Y357521D01*
X242541D01*
Y357562D01*
Y357604D01*
X242499D01*
Y357646D01*
Y357687D01*
X242458D01*
Y357729D01*
Y357770D01*
X242416D01*
Y357812D01*
Y357854D01*
Y357895D01*
X242374D01*
Y357937D01*
Y357979D01*
Y358020D01*
X242333D01*
Y358062D01*
Y358104D01*
X242291D01*
Y358145D01*
Y358187D01*
X242249D01*
Y358229D01*
Y358271D01*
X242208D01*
Y358312D01*
Y358354D01*
X242166D01*
Y358396D01*
Y358437D01*
X242125D01*
Y358479D01*
X242083D01*
Y358521D01*
Y358562D01*
X242041D01*
Y358604D01*
X242000D01*
Y358646D01*
Y358687D01*
X241958D01*
Y358729D01*
X241916D01*
Y358770D01*
Y358812D01*
X241875D01*
Y358854D01*
X241833D01*
Y358895D01*
Y358937D01*
X241791D01*
Y358979D01*
X241750D01*
Y359020D01*
Y359062D01*
X241708D01*
Y359104D01*
X241666D01*
Y359145D01*
Y359187D01*
X241625D01*
Y359229D01*
Y359271D01*
X241583D01*
Y359312D01*
X241541D01*
Y359354D01*
Y359396D01*
X241500D01*
Y359437D01*
X241458D01*
Y359479D01*
Y359520D01*
X241416D01*
Y359562D01*
Y359604D01*
X241375D01*
Y359645D01*
Y359687D01*
X241333D01*
Y359729D01*
Y359770D01*
X241291D01*
Y359812D01*
Y359854D01*
X241250D01*
Y359895D01*
Y359937D01*
X241208D01*
Y359979D01*
Y360020D01*
X241166D01*
Y360062D01*
Y360104D01*
Y360145D01*
X241125D01*
Y360187D01*
Y360229D01*
X241083D01*
Y360270D01*
Y360312D01*
X241041D01*
Y360354D01*
Y360395D01*
Y360437D01*
X241000D01*
Y360479D01*
Y360520D01*
X240958D01*
Y360562D01*
Y360604D01*
X240916D01*
Y360645D01*
Y360687D01*
X240875D01*
Y360729D01*
Y360770D01*
X240833D01*
Y360812D01*
Y360854D01*
X240791D01*
Y360895D01*
Y360937D01*
X240750D01*
Y360979D01*
Y361020D01*
Y361062D01*
X240708D01*
Y361104D01*
Y361145D01*
X240666D01*
Y361187D01*
Y361229D01*
X240625D01*
Y361270D01*
Y361312D01*
X240583D01*
Y361354D01*
Y361395D01*
X240541D01*
Y361437D01*
Y361479D01*
X240500D01*
Y361520D01*
Y361562D01*
X240458D01*
Y361604D01*
Y361645D01*
X240416D01*
Y361687D01*
Y361729D01*
X240375D01*
Y361770D01*
Y361812D01*
X240333D01*
Y361854D01*
Y361895D01*
Y361937D01*
X240291D01*
Y361979D01*
Y362020D01*
X240250D01*
Y362062D01*
Y362104D01*
X240208D01*
Y362145D01*
Y362187D01*
X240166D01*
Y362229D01*
Y362270D01*
X240125D01*
Y362312D01*
Y362354D01*
X240083D01*
Y362395D01*
Y362437D01*
X240041D01*
Y362479D01*
Y362520D01*
X240000D01*
Y362562D01*
Y362604D01*
X239958D01*
Y362645D01*
Y362687D01*
X239916D01*
Y362729D01*
X239875D01*
Y362770D01*
Y362812D01*
X239833D01*
Y362854D01*
Y362895D01*
X239791D01*
Y362937D01*
Y362979D01*
X239750D01*
Y362937D01*
Y362895D01*
Y362854D01*
Y362812D01*
X239708D01*
Y362770D01*
Y362729D01*
Y362687D01*
X239666D01*
Y362645D01*
Y362604D01*
X239625D01*
Y362562D01*
X239583D01*
Y362520D01*
Y362479D01*
X239541D01*
Y362437D01*
X239500D01*
Y362395D01*
Y362354D01*
X239458D01*
Y362312D01*
X239416D01*
Y362270D01*
Y362229D01*
X239375D01*
Y362187D01*
X239333D01*
Y362145D01*
Y362104D01*
X239291D01*
Y362062D01*
X239250D01*
Y362020D01*
Y361979D01*
X239208D01*
Y361937D01*
X239166D01*
Y361895D01*
Y361854D01*
X239125D01*
Y361812D01*
Y361770D01*
X239083D01*
Y361729D01*
Y361687D01*
X239041D01*
Y361645D01*
Y361604D01*
X239000D01*
Y361562D01*
Y361520D01*
X238958D01*
Y361479D01*
Y361437D01*
Y361395D01*
X238916D01*
Y361354D01*
Y361312D01*
X238875D01*
Y361270D01*
Y361229D01*
Y361187D01*
X238833D01*
Y361145D01*
Y361104D01*
X238791D01*
Y361062D01*
Y361020D01*
Y360979D01*
X238750D01*
Y360937D01*
Y360895D01*
Y360854D01*
X238708D01*
Y360812D01*
Y360770D01*
Y360729D01*
X238666D01*
Y360687D01*
Y360645D01*
X238625D01*
Y360604D01*
Y360562D01*
Y360520D01*
X238583D01*
Y360479D01*
Y360437D01*
Y360395D01*
X238541D01*
Y360354D01*
Y360312D01*
Y360270D01*
X238500D01*
Y360229D01*
Y360187D01*
Y360145D01*
X238458D01*
Y360104D01*
Y360062D01*
Y360020D01*
X238416D01*
Y359979D01*
Y359937D01*
Y359895D01*
X238375D01*
Y359854D01*
Y359812D01*
Y359770D01*
X238333D01*
Y359729D01*
Y359687D01*
Y359645D01*
X238291D01*
Y359604D01*
Y359562D01*
X238250D01*
Y359520D01*
Y359479D01*
Y359437D01*
X238208D01*
Y359396D01*
Y359354D01*
Y359312D01*
X238166D01*
Y359271D01*
Y359229D01*
Y359187D01*
X238125D01*
Y359145D01*
Y359104D01*
Y359062D01*
X238083D01*
Y359020D01*
Y358979D01*
Y358937D01*
X238041D01*
Y358895D01*
Y358854D01*
Y358812D01*
X238000D01*
Y358770D01*
Y358729D01*
Y358687D01*
X237958D01*
Y358646D01*
Y358604D01*
X237916D01*
Y358562D01*
Y358521D01*
Y358479D01*
X237875D01*
Y358437D01*
Y358396D01*
Y358354D01*
X237833D01*
Y358312D01*
Y358271D01*
Y358229D01*
X237791D01*
Y358187D01*
Y358145D01*
X237750D01*
Y358104D01*
Y358062D01*
Y358020D01*
X237708D01*
Y357979D01*
Y357937D01*
X237666D01*
Y357895D01*
Y357854D01*
Y357812D01*
X237625D01*
Y357770D01*
Y357729D01*
X237583D01*
Y357687D01*
Y357646D01*
Y357604D01*
X237541D01*
Y357562D01*
Y357521D01*
X237500D01*
Y357479D01*
Y357437D01*
X237458D01*
Y357396D01*
Y357354D01*
Y357312D01*
X237416D01*
Y357271D01*
Y357229D01*
X237375D01*
Y357187D01*
Y357146D01*
Y357104D01*
X237333D01*
Y357062D01*
Y357020D01*
X237291D01*
Y356979D01*
Y356937D01*
Y356895D01*
X237250D01*
Y356854D01*
Y356812D01*
Y356770D01*
X237208D01*
Y356729D01*
Y356687D01*
Y356645D01*
X237166D01*
Y356604D01*
Y356562D01*
X237125D01*
Y356521D01*
Y356479D01*
Y356437D01*
X237083D01*
Y356396D01*
Y356354D01*
Y356312D01*
X237041D01*
Y356271D01*
Y356229D01*
Y356187D01*
X237000D01*
Y356146D01*
Y356104D01*
X236958D01*
Y356062D01*
Y356021D01*
Y355979D01*
X236916D01*
Y355937D01*
Y355896D01*
Y355854D01*
X236875D01*
Y355812D01*
Y355771D01*
X236833D01*
Y355729D01*
Y355687D01*
Y355646D01*
X236791D01*
Y355604D01*
Y355562D01*
X236750D01*
Y355521D01*
Y355479D01*
X236708D01*
Y355437D01*
Y355396D01*
Y355354D01*
X236666D01*
Y355312D01*
Y355271D01*
X236625D01*
Y355229D01*
Y355187D01*
X236583D01*
Y355146D01*
Y355104D01*
X236541D01*
Y355062D01*
Y355021D01*
X236500D01*
Y354979D01*
Y354937D01*
Y354896D01*
X236458D01*
Y354854D01*
Y354812D01*
X236416D01*
Y354771D01*
Y354729D01*
X236375D01*
Y354687D01*
X236333D01*
Y354646D01*
X236291D01*
Y354604D01*
X236250D01*
Y354562D01*
X236208D01*
Y354521D01*
X236166D01*
Y354479D01*
X236125D01*
Y354437D01*
X236083D01*
Y354396D01*
X236000D01*
Y354354D01*
X235958D01*
Y354396D01*
Y354437D01*
X236000D01*
Y354479D01*
Y354521D01*
Y354562D01*
X236041D01*
Y354604D01*
Y354646D01*
X236083D01*
Y354687D01*
Y354729D01*
X236125D01*
Y354771D01*
Y354812D01*
X236166D01*
Y354854D01*
Y354896D01*
Y354937D01*
X236208D01*
Y354979D01*
Y355021D01*
X236250D01*
Y355062D01*
Y355104D01*
X236291D01*
Y355146D01*
Y355187D01*
Y355229D01*
X236333D01*
Y355271D01*
Y355312D01*
X236375D01*
Y355354D01*
Y355396D01*
Y355437D01*
X236416D01*
Y355479D01*
Y355521D01*
X236458D01*
Y355562D01*
Y355604D01*
Y355646D01*
X236500D01*
Y355687D01*
Y355729D01*
Y355771D01*
X236541D01*
Y355812D01*
Y355854D01*
Y355896D01*
X236583D01*
Y355937D01*
Y355979D01*
X236625D01*
Y356021D01*
Y356062D01*
Y356104D01*
X236666D01*
Y356146D01*
Y356187D01*
Y356229D01*
X236708D01*
Y356271D01*
Y356312D01*
Y356354D01*
X236750D01*
Y356396D01*
Y356437D01*
Y356479D01*
X236791D01*
Y356521D01*
Y356562D01*
X236833D01*
Y356604D01*
Y356645D01*
Y356687D01*
X236875D01*
Y356729D01*
Y356770D01*
X236916D01*
Y356812D01*
Y356854D01*
Y356895D01*
X236958D01*
Y356937D01*
Y356979D01*
X237000D01*
Y357020D01*
Y357062D01*
X237041D01*
Y357104D01*
Y357146D01*
Y357187D01*
X237083D01*
Y357229D01*
Y357271D01*
X237125D01*
Y357312D01*
Y357354D01*
Y357396D01*
X237166D01*
Y357437D01*
Y357479D01*
X237208D01*
Y357521D01*
Y357562D01*
Y357604D01*
X237250D01*
Y357646D01*
Y357687D01*
Y357729D01*
X237291D01*
Y357770D01*
Y357812D01*
X237333D01*
Y357854D01*
Y357895D01*
Y357937D01*
X237375D01*
Y357979D01*
Y358020D01*
Y358062D01*
X237416D01*
Y358104D01*
Y358145D01*
Y358187D01*
X237458D01*
Y358229D01*
Y358271D01*
X237500D01*
Y358312D01*
Y358354D01*
Y358396D01*
X237541D01*
Y358437D01*
Y358479D01*
Y358521D01*
X237583D01*
Y358562D01*
Y358604D01*
Y358646D01*
X237625D01*
Y358687D01*
Y358729D01*
Y358770D01*
X237666D01*
Y358812D01*
Y358854D01*
Y358895D01*
X237708D01*
Y358937D01*
Y358979D01*
Y359020D01*
X237750D01*
Y359062D01*
Y359104D01*
X237791D01*
Y359145D01*
Y359187D01*
Y359229D01*
X237833D01*
Y359271D01*
Y359312D01*
Y359354D01*
X237875D01*
Y359396D01*
Y359437D01*
Y359479D01*
X237916D01*
Y359520D01*
Y359562D01*
Y359604D01*
X237958D01*
Y359645D01*
Y359687D01*
Y359729D01*
X238000D01*
Y359770D01*
Y359812D01*
Y359854D01*
X238041D01*
Y359895D01*
Y359937D01*
X238083D01*
Y359979D01*
Y360020D01*
Y360062D01*
X238125D01*
Y360104D01*
Y360145D01*
Y360187D01*
X238166D01*
Y360229D01*
Y360270D01*
Y360312D01*
X238208D01*
Y360354D01*
Y360395D01*
Y360437D01*
X238250D01*
Y360479D01*
Y360520D01*
X238291D01*
Y360562D01*
Y360604D01*
Y360645D01*
X238333D01*
Y360687D01*
Y360729D01*
Y360770D01*
X238375D01*
Y360812D01*
Y360854D01*
X238416D01*
Y360895D01*
Y360937D01*
X238458D01*
Y360979D01*
Y361020D01*
Y361062D01*
X238500D01*
Y361104D01*
Y361145D01*
X238541D01*
Y361187D01*
Y361229D01*
X238583D01*
Y361270D01*
Y361312D01*
X238625D01*
Y361354D01*
Y361395D01*
X238666D01*
Y361437D01*
Y361479D01*
X238708D01*
Y361520D01*
Y361562D01*
X238750D01*
Y361604D01*
X238791D01*
Y361645D01*
Y361687D01*
X238833D01*
Y361729D01*
X238875D01*
Y361770D01*
Y361812D01*
X238916D01*
Y361854D01*
X238958D01*
Y361895D01*
X239000D01*
Y361937D01*
Y361979D01*
X239041D01*
Y362020D01*
X239083D01*
Y362062D01*
X239125D01*
Y362104D01*
Y362145D01*
X239166D01*
Y362187D01*
Y362229D01*
X239208D01*
Y362270D01*
Y362312D01*
Y362354D01*
Y362395D01*
Y362437D01*
Y362479D01*
Y362520D01*
Y362562D01*
X239250D01*
Y362604D01*
Y362645D01*
Y362687D01*
Y362729D01*
Y362770D01*
X239291D01*
Y362812D01*
Y362854D01*
Y362895D01*
Y362937D01*
Y362979D01*
Y363020D01*
Y363062D01*
Y363104D01*
Y363145D01*
X239333D01*
Y363187D01*
X239375D01*
Y363229D01*
X239416D01*
Y363270D01*
X239458D01*
Y363312D01*
X239500D01*
Y363354D01*
X239541D01*
Y363395D01*
X239583D01*
Y363437D01*
X239625D01*
Y363479D01*
Y363520D01*
X239583D01*
Y363562D01*
Y363604D01*
X239541D01*
Y363645D01*
Y363687D01*
X239500D01*
Y363729D01*
Y363770D01*
X239458D01*
Y363812D01*
Y363854D01*
X239416D01*
Y363895D01*
Y363937D01*
X239458D01*
Y363979D01*
X239500D01*
Y364020D01*
X239541D01*
Y364062D01*
X239583D01*
Y364104D01*
X239625D01*
Y364145D01*
X239666D01*
Y364187D01*
X239708D01*
Y364229D01*
X239791D01*
Y364270D01*
X239833D01*
Y364312D01*
X239875D01*
Y364354D01*
X239916D01*
Y364312D01*
Y364270D01*
X239958D01*
Y364229D01*
Y364187D01*
X240000D01*
Y364145D01*
X240041D01*
Y364104D01*
Y364062D01*
X240083D01*
Y364020D01*
Y363979D01*
X240125D01*
Y363937D01*
Y363895D01*
Y363854D01*
X240166D01*
Y363812D01*
Y363770D01*
X240208D01*
Y363729D01*
Y363687D01*
X240250D01*
Y363645D01*
Y363604D01*
Y363562D01*
X240291D01*
Y363520D01*
Y363479D01*
X240333D01*
Y363437D01*
Y363395D01*
X240375D01*
Y363354D01*
Y363312D01*
Y363270D01*
X240416D01*
Y363229D01*
Y363187D01*
X240458D01*
Y363145D01*
Y363104D01*
X240500D01*
Y363062D01*
Y363020D01*
X240541D01*
Y362979D01*
Y362937D01*
Y362895D01*
X240583D01*
Y362854D01*
Y362812D01*
X240625D01*
Y362770D01*
Y362729D01*
X240666D01*
Y362687D01*
Y362645D01*
X240708D01*
Y362604D01*
Y362562D01*
X240750D01*
Y362520D01*
Y362479D01*
X240791D01*
Y362437D01*
Y362395D01*
X240833D01*
Y362354D01*
Y362312D01*
X240875D01*
Y362270D01*
Y362229D01*
Y362187D01*
X240916D01*
Y362145D01*
Y362104D01*
X240958D01*
Y362062D01*
Y362020D01*
X241000D01*
Y361979D01*
Y361937D01*
X241041D01*
Y361895D01*
Y361854D01*
X241083D01*
Y361812D01*
Y361770D01*
X241125D01*
Y361729D01*
Y361687D01*
X241166D01*
Y361645D01*
Y361604D01*
X241208D01*
Y361562D01*
Y361520D01*
X241250D01*
Y361479D01*
Y361437D01*
X241291D01*
Y361395D01*
Y361354D01*
X241333D01*
Y361312D01*
Y361270D01*
X241375D01*
Y361229D01*
Y361187D01*
X241416D01*
Y361145D01*
Y361104D01*
X241458D01*
Y361062D01*
Y361020D01*
Y360979D01*
X241500D01*
Y360937D01*
Y360895D01*
X241541D01*
Y360854D01*
Y360812D01*
X241583D01*
Y360770D01*
Y360729D01*
Y360687D01*
X241625D01*
Y360645D01*
Y360604D01*
X241666D01*
Y360562D01*
Y360520D01*
X241708D01*
Y360479D01*
Y360437D01*
Y360395D01*
X241750D01*
Y360354D01*
Y360312D01*
X241791D01*
Y360270D01*
Y360229D01*
X241833D01*
Y360187D01*
Y360145D01*
X241875D01*
Y360104D01*
Y360062D01*
X241916D01*
Y360020D01*
Y359979D01*
X241958D01*
Y359937D01*
Y359895D01*
X242000D01*
Y359854D01*
X242041D01*
Y359812D01*
Y359770D01*
X242083D01*
Y359729D01*
Y359687D01*
X242125D01*
Y359645D01*
X242166D01*
Y359604D01*
Y359562D01*
X242208D01*
Y359520D01*
X242249D01*
Y359479D01*
Y359437D01*
X242291D01*
Y359396D01*
X242333D01*
Y359354D01*
Y359312D01*
X242374D01*
Y359271D01*
X242416D01*
Y359229D01*
X242458D01*
Y359187D01*
Y359145D01*
X242499D01*
Y359104D01*
Y359062D01*
X242541D01*
Y359020D01*
X242583D01*
Y358979D01*
Y358937D01*
X242624D01*
Y358895D01*
X242666D01*
Y358854D01*
Y358812D01*
X242708D01*
Y358770D01*
Y358729D01*
X242750D01*
Y358687D01*
Y358646D01*
X242791D01*
Y358604D01*
Y358562D01*
X242833D01*
Y358521D01*
Y358479D01*
X242875D01*
Y358437D01*
Y358396D01*
X242916D01*
Y358354D01*
Y358312D01*
Y358271D01*
X242958D01*
Y358229D01*
Y358187D01*
X243000D01*
Y358145D01*
Y358104D01*
Y358062D01*
X243041D01*
Y358020D01*
Y357979D01*
X243083D01*
Y357937D01*
Y357895D01*
X243125D01*
Y357854D01*
X243166D01*
Y357812D01*
X243208D01*
Y357854D01*
Y357895D01*
X243250D01*
Y357937D01*
X243291D01*
Y357979D01*
Y358020D01*
X243333D01*
Y358062D01*
Y358104D01*
X243374D01*
Y358145D01*
Y358187D01*
X243416D01*
Y358229D01*
Y358271D01*
X243458D01*
Y358312D01*
X243499D01*
Y358354D01*
Y358396D01*
X243541D01*
Y358437D01*
Y358479D01*
X243583D01*
Y358521D01*
Y358562D01*
X243624D01*
Y358604D01*
Y358646D01*
X243666D01*
Y358687D01*
Y358729D01*
X243708D01*
Y358770D01*
Y358812D01*
X243749D01*
Y358854D01*
Y358895D01*
X243791D01*
Y358937D01*
X243833D01*
Y358979D01*
Y359020D01*
X243875D01*
Y359062D01*
Y359104D01*
X243916D01*
Y359145D01*
Y359187D01*
X243958D01*
Y359229D01*
Y359271D01*
X244000D01*
Y359312D01*
Y359354D01*
X244041D01*
Y359396D01*
X244083D01*
Y359437D01*
Y359479D01*
X244125D01*
Y359520D01*
Y359562D01*
X244166D01*
Y359604D01*
Y359645D01*
X244208D01*
Y359687D01*
Y359729D01*
X244250D01*
Y359770D01*
Y359812D01*
X244291D01*
Y359854D01*
Y359895D01*
X244333D01*
Y359937D01*
X244374D01*
Y359979D01*
Y360020D01*
X244416D01*
Y360062D01*
Y360104D01*
X244458D01*
Y360145D01*
Y360187D01*
X244499D01*
Y360229D01*
Y360270D01*
X244541D01*
Y360312D01*
X244583D01*
Y360354D01*
Y360395D01*
X244624D01*
Y360437D01*
Y360479D01*
X244666D01*
Y360520D01*
Y360562D01*
X244708D01*
Y360604D01*
Y360645D01*
X244749D01*
Y360687D01*
Y360729D01*
X244791D01*
Y360770D01*
X244833D01*
Y360812D01*
Y360854D01*
X244875D01*
Y360895D01*
Y360937D01*
X244916D01*
Y360979D01*
Y361020D01*
X244958D01*
Y361062D01*
Y361104D01*
X245000D01*
Y361145D01*
Y361187D01*
X245041D01*
Y361229D01*
X245083D01*
Y361270D01*
Y361312D01*
X245125D01*
Y361354D01*
Y361395D01*
X245166D01*
Y361437D01*
Y361479D01*
X245208D01*
Y361520D01*
Y361562D01*
X245250D01*
Y361604D01*
Y361645D01*
Y361687D01*
X245291D01*
Y361729D01*
Y361770D01*
X245333D01*
Y361812D01*
Y361854D01*
X245374D01*
Y361895D01*
Y361937D01*
X245416D01*
Y361979D01*
Y362020D01*
Y362062D01*
X245458D01*
Y362104D01*
Y362145D01*
X245499D01*
Y362187D01*
Y362229D01*
Y362270D01*
X245541D01*
Y362312D01*
Y362354D01*
Y362395D01*
X245583D01*
Y362437D01*
Y362479D01*
X245624D01*
Y362520D01*
Y362562D01*
Y362604D01*
X245666D01*
Y362645D01*
Y362687D01*
Y362729D01*
X245708D01*
Y362770D01*
Y362812D01*
X245749D01*
Y362854D01*
Y362895D01*
Y362937D01*
X245791D01*
Y362979D01*
Y363020D01*
Y363062D01*
X245833D01*
Y363104D01*
Y363145D01*
X245874D01*
Y363187D01*
Y363229D01*
Y363270D01*
X245916D01*
Y363312D01*
Y363354D01*
X245958D01*
Y363395D01*
Y363437D01*
Y363479D01*
X245999D01*
Y363520D01*
Y363562D01*
X246041D01*
Y363604D01*
Y363645D01*
Y363687D01*
X246083D01*
Y363729D01*
Y363770D01*
X246124D01*
Y363812D01*
Y363854D01*
Y363895D01*
X246166D01*
Y363937D01*
Y363979D01*
X246208D01*
Y364020D01*
Y364062D01*
Y364104D01*
X246249D01*
Y364145D01*
Y364187D01*
Y364229D01*
Y364270D01*
X246291D01*
Y364312D01*
Y364354D01*
Y364395D01*
Y364437D01*
Y364479D01*
Y364520D01*
Y364562D01*
X246333D01*
Y364604D01*
Y364645D01*
Y364687D01*
Y364729D01*
Y364770D01*
Y364812D01*
Y364854D01*
X246249D01*
Y364895D01*
X245624D01*
Y364937D01*
X245333D01*
Y364895D01*
X244708D01*
Y364854D01*
X241625D01*
Y364895D01*
X241708D01*
Y364937D01*
X241750D01*
Y364979D01*
X241791D01*
Y365020D01*
X241833D01*
Y365062D01*
X241875D01*
Y365104D01*
X241958D01*
Y365145D01*
X242000D01*
Y365187D01*
X242041D01*
Y365229D01*
X242083D01*
Y365270D01*
X241958D01*
Y365312D01*
X241708D01*
Y365354D01*
X241208D01*
Y365312D01*
X241166D01*
Y365270D01*
X241125D01*
Y365229D01*
X241083D01*
Y365187D01*
X241041D01*
Y365145D01*
X241000D01*
Y365104D01*
X240958D01*
Y365062D01*
X240916D01*
Y365020D01*
X240833D01*
Y364979D01*
X240791D01*
Y364937D01*
X240708D01*
Y364895D01*
X240500D01*
Y364937D01*
X240083D01*
Y364979D01*
X239375D01*
Y365020D01*
X239250D01*
Y365062D01*
X239291D01*
Y365104D01*
X239333D01*
Y365145D01*
X239375D01*
Y365187D01*
X239416D01*
Y365229D01*
X239458D01*
Y365270D01*
X239500D01*
Y365312D01*
X239541D01*
Y365354D01*
X239208D01*
Y365395D01*
X239250D01*
Y365437D01*
X239291D01*
Y365479D01*
X239333D01*
Y365520D01*
X239375D01*
Y365562D01*
X239416D01*
Y365604D01*
X239458D01*
Y365645D01*
X239500D01*
Y365687D01*
X239541D01*
Y365729D01*
X239500D01*
Y365770D01*
X237833D01*
Y365812D01*
X232833D01*
Y365770D01*
X230833D01*
Y365729D01*
X230208D01*
Y365687D01*
X229333D01*
Y365645D01*
X228292D01*
Y365604D01*
X227500D01*
Y365562D01*
X227083D01*
Y365520D01*
X226833D01*
Y365479D01*
X226625D01*
Y365437D01*
X226500D01*
Y365395D01*
X226333D01*
Y365354D01*
X226125D01*
Y365312D01*
X225958D01*
Y365270D01*
X225750D01*
Y365229D01*
X225542D01*
Y365187D01*
X225375D01*
Y365145D01*
X225208D01*
Y365104D01*
X225083D01*
Y365062D01*
X224958D01*
Y365020D01*
X224792D01*
Y364979D01*
X224667D01*
Y364937D01*
X224542D01*
Y364895D01*
X224417D01*
Y364854D01*
X224292D01*
Y364812D01*
X224208D01*
Y364770D01*
X224125D01*
Y364729D01*
X224042D01*
Y364770D01*
X224083D01*
Y364812D01*
X224125D01*
Y364854D01*
X224167D01*
Y364895D01*
X224250D01*
Y364937D01*
X224292D01*
Y364979D01*
X224333D01*
Y365020D01*
X224375D01*
Y365062D01*
X224458D01*
Y365104D01*
X224500D01*
Y365145D01*
X224542D01*
Y365187D01*
X224583D01*
Y365229D01*
X224500D01*
Y365187D01*
X224250D01*
Y365145D01*
X224125D01*
Y365104D01*
X224000D01*
Y365062D01*
X223875D01*
Y365020D01*
X223792D01*
Y364979D01*
X223667D01*
Y364937D01*
X223542D01*
Y364895D01*
X223458D01*
Y364854D01*
X223333D01*
Y364812D01*
X223208D01*
Y364770D01*
X223083D01*
Y364729D01*
X222958D01*
Y364687D01*
X222875D01*
Y364645D01*
X222833D01*
Y364604D01*
X222792D01*
Y364645D01*
Y364687D01*
X222833D01*
Y364729D01*
X222875D01*
Y364770D01*
X222917D01*
Y364812D01*
X223000D01*
Y364854D01*
Y364895D01*
X222833D01*
Y364854D01*
X222542D01*
Y364812D01*
X222417D01*
Y364770D01*
X222375D01*
Y364729D01*
X222333D01*
Y364687D01*
X222292D01*
Y364645D01*
Y364604D01*
Y364562D01*
X222250D01*
Y364520D01*
Y364479D01*
Y364437D01*
Y364395D01*
X222208D01*
Y364354D01*
Y364312D01*
Y364270D01*
Y364229D01*
X222167D01*
Y364187D01*
Y364145D01*
Y364104D01*
Y364062D01*
Y364020D01*
Y363979D01*
Y363937D01*
X222125D01*
Y363895D01*
Y363854D01*
Y363812D01*
Y363770D01*
Y363729D01*
Y363687D01*
Y363645D01*
Y363604D01*
Y363562D01*
X222083D01*
Y363520D01*
Y363479D01*
Y363437D01*
Y363395D01*
Y363354D01*
X222042D01*
Y363312D01*
Y363270D01*
Y363229D01*
Y363187D01*
Y363145D01*
Y363104D01*
X222000D01*
Y363062D01*
Y363020D01*
Y362979D01*
Y362937D01*
Y362895D01*
X221958D01*
Y362854D01*
Y362812D01*
Y362770D01*
Y362729D01*
X221917D01*
Y362687D01*
Y362645D01*
Y362604D01*
Y362562D01*
Y362520D01*
X221875D01*
Y362479D01*
Y362437D01*
Y362395D01*
Y362354D01*
Y362312D01*
X221833D01*
Y362270D01*
Y362229D01*
Y362187D01*
Y362145D01*
X221792D01*
Y362104D01*
Y362062D01*
Y362020D01*
Y361979D01*
X221750D01*
Y361937D01*
Y361895D01*
Y361854D01*
Y361812D01*
X221708D01*
Y361770D01*
Y361729D01*
Y361687D01*
Y361645D01*
Y361604D01*
X221667D01*
Y361562D01*
Y361520D01*
Y361479D01*
Y361437D01*
X221625D01*
Y361395D01*
Y361354D01*
Y361312D01*
Y361270D01*
X221583D01*
Y361229D01*
Y361187D01*
Y361145D01*
Y361104D01*
X221542D01*
Y361062D01*
Y361020D01*
Y360979D01*
Y360937D01*
X221500D01*
Y360895D01*
Y360854D01*
Y360812D01*
Y360770D01*
X221458D01*
Y360729D01*
Y360687D01*
Y360645D01*
Y360604D01*
X221417D01*
Y360562D01*
Y360520D01*
Y360479D01*
Y360437D01*
X221375D01*
Y360395D01*
Y360354D01*
Y360312D01*
X221333D01*
Y360270D01*
Y360229D01*
Y360187D01*
Y360145D01*
X221292D01*
Y360104D01*
Y360062D01*
Y360020D01*
X221250D01*
Y359979D01*
Y359937D01*
Y359895D01*
X221208D01*
Y359854D01*
Y359812D01*
Y359770D01*
Y359729D01*
X221167D01*
Y359687D01*
Y359645D01*
Y359604D01*
X221125D01*
Y359562D01*
Y359520D01*
Y359479D01*
X221083D01*
Y359437D01*
Y359396D01*
Y359354D01*
X221042D01*
Y359312D01*
Y359271D01*
Y359229D01*
X221000D01*
Y359187D01*
Y359145D01*
Y359104D01*
X220958D01*
Y359062D01*
Y359020D01*
Y358979D01*
Y358937D01*
X220917D01*
Y358895D01*
Y358854D01*
Y358812D01*
X220875D01*
Y358770D01*
Y358729D01*
Y358687D01*
X220833D01*
Y358646D01*
Y358604D01*
Y358562D01*
Y358521D01*
X220792D01*
Y358479D01*
Y358437D01*
Y358396D01*
Y358354D01*
X220750D01*
Y358312D01*
Y358271D01*
Y358229D01*
Y358187D01*
X220708D01*
Y358145D01*
Y358104D01*
Y358062D01*
Y358020D01*
X220667D01*
Y357979D01*
Y357937D01*
Y357895D01*
Y357854D01*
Y357812D01*
X220625D01*
Y357770D01*
Y357729D01*
Y357687D01*
Y357646D01*
Y357604D01*
X220584D01*
Y357562D01*
Y357521D01*
Y357479D01*
Y357437D01*
Y357396D01*
X220542D01*
Y357354D01*
Y357312D01*
Y357271D01*
Y357229D01*
Y357187D01*
Y357146D01*
X220500D01*
Y357104D01*
Y357062D01*
Y357020D01*
Y356979D01*
Y356937D01*
X220459D01*
Y356895D01*
Y356854D01*
Y356812D01*
Y356770D01*
Y356729D01*
Y356687D01*
X220417D01*
Y356645D01*
Y356604D01*
Y356562D01*
Y356521D01*
Y356479D01*
X220375D01*
Y356437D01*
Y356396D01*
Y356354D01*
Y356312D01*
Y356271D01*
X220334D01*
Y356229D01*
Y356187D01*
Y356146D01*
Y356104D01*
Y356062D01*
Y356021D01*
X220292D01*
Y355979D01*
Y355937D01*
Y355896D01*
Y355854D01*
Y355812D01*
Y355771D01*
X220250D01*
Y355729D01*
Y355687D01*
Y355646D01*
Y355604D01*
Y355562D01*
X220209D01*
Y355521D01*
Y355479D01*
Y355437D01*
Y355396D01*
Y355354D01*
Y355312D01*
Y355271D01*
X220167D01*
Y355229D01*
Y355187D01*
Y355146D01*
Y355104D01*
Y355062D01*
Y355021D01*
Y354979D01*
X220125D01*
Y354937D01*
Y354896D01*
Y354854D01*
Y354812D01*
Y354771D01*
Y354729D01*
Y354687D01*
Y354646D01*
X220083D01*
Y354604D01*
Y354562D01*
Y354521D01*
Y354479D01*
Y354437D01*
Y354396D01*
Y354354D01*
Y354312D01*
X220042D01*
Y354271D01*
Y354229D01*
Y354187D01*
Y354146D01*
Y354104D01*
Y354062D01*
Y354021D01*
Y353979D01*
Y353937D01*
X220000D01*
Y353896D01*
Y353854D01*
Y353812D01*
Y353771D01*
Y353729D01*
Y353687D01*
Y353646D01*
Y353604D01*
Y353562D01*
Y353521D01*
X219958D01*
Y353479D01*
Y353437D01*
Y353396D01*
Y353354D01*
Y353312D01*
Y353271D01*
Y353229D01*
X219917D01*
Y353187D01*
Y353146D01*
Y353104D01*
Y353062D01*
Y353021D01*
Y352979D01*
Y352937D01*
X219875D01*
Y352896D01*
Y352854D01*
Y352812D01*
Y352771D01*
Y352729D01*
Y352687D01*
Y352646D01*
X219833D01*
Y352604D01*
Y352562D01*
Y352521D01*
Y352479D01*
Y352437D01*
Y352396D01*
Y352354D01*
X219792D01*
Y352312D01*
Y352271D01*
Y352229D01*
Y352187D01*
Y352146D01*
Y352104D01*
X219750D01*
Y352062D01*
Y352021D01*
Y351979D01*
Y351937D01*
Y351896D01*
Y351854D01*
X219708D01*
Y351812D01*
Y351771D01*
Y351729D01*
Y351687D01*
Y351646D01*
Y351604D01*
X219667D01*
Y351562D01*
Y351521D01*
Y351479D01*
Y351437D01*
Y351396D01*
Y351354D01*
Y351312D01*
X219625D01*
Y351271D01*
Y351229D01*
Y351187D01*
Y351146D01*
Y351104D01*
Y351062D01*
Y351021D01*
X219584D01*
Y350979D01*
Y350937D01*
Y350896D01*
Y350854D01*
Y350812D01*
Y350771D01*
Y350729D01*
X219542D01*
Y350687D01*
Y350646D01*
Y350604D01*
Y350562D01*
Y350521D01*
Y350479D01*
Y350437D01*
X219500D01*
Y350396D01*
Y350354D01*
Y350312D01*
Y350271D01*
Y350229D01*
Y350187D01*
Y350146D01*
Y350104D01*
X219459D01*
Y350062D01*
Y350021D01*
Y349979D01*
Y349937D01*
Y349896D01*
Y349854D01*
Y349812D01*
X219417D01*
Y349771D01*
Y349729D01*
Y349687D01*
Y349646D01*
Y349604D01*
Y349562D01*
Y349521D01*
X219375D01*
Y349479D01*
Y349437D01*
Y349396D01*
Y349354D01*
Y349312D01*
Y349271D01*
X219334D01*
Y349229D01*
Y349187D01*
Y349146D01*
Y349104D01*
Y349062D01*
Y349021D01*
Y348979D01*
X219292D01*
Y348937D01*
Y348896D01*
Y348854D01*
Y348812D01*
Y348771D01*
X219250D01*
Y348729D01*
Y348687D01*
Y348646D01*
Y348604D01*
Y348562D01*
X219209D01*
Y348521D01*
Y348479D01*
Y348437D01*
Y348396D01*
X219167D01*
Y348354D01*
Y348312D01*
X219125D01*
Y348271D01*
Y348229D01*
X219083D01*
Y348187D01*
Y348146D01*
X219042D01*
Y348104D01*
Y348062D01*
X219000D01*
Y348021D01*
Y347979D01*
X218958D01*
Y347937D01*
Y347896D01*
Y347854D01*
X218917D01*
Y347812D01*
Y347771D01*
X218875D01*
Y347729D01*
Y347687D01*
X218833D01*
Y347646D01*
Y347604D01*
X218792D01*
Y347562D01*
Y347521D01*
X218750D01*
Y347479D01*
Y347437D01*
X218708D01*
Y347396D01*
Y347354D01*
Y347312D01*
X218667D01*
Y347271D01*
Y347229D01*
X218625D01*
Y347187D01*
Y347146D01*
X218583D01*
Y347104D01*
Y347062D01*
X218542D01*
Y347021D01*
Y346979D01*
X218500D01*
Y346937D01*
Y346896D01*
Y346854D01*
X218459D01*
Y346813D01*
Y346771D01*
X218417D01*
Y346729D01*
Y346688D01*
X218375D01*
Y346646D01*
Y346604D01*
X218334D01*
Y346563D01*
Y346521D01*
X218292D01*
Y346479D01*
Y346438D01*
X218250D01*
Y346396D01*
Y346354D01*
Y346312D01*
X218209D01*
Y346271D01*
Y346229D01*
X218167D01*
Y346187D01*
Y346146D01*
X218125D01*
Y346104D01*
Y346062D01*
X218084D01*
Y346021D01*
Y345979D01*
X218042D01*
Y345937D01*
X218000D01*
Y345896D01*
Y345854D01*
X217958D01*
Y345813D01*
X217917D01*
Y345771D01*
X217875D01*
Y345729D01*
X217833D01*
Y345688D01*
X217792D01*
Y345646D01*
Y345604D01*
X217750D01*
Y345563D01*
X217708D01*
Y345521D01*
X217667D01*
Y345479D01*
X217625D01*
Y345438D01*
X217583D01*
Y345396D01*
X217542D01*
Y345354D01*
Y345312D01*
X217500D01*
Y345271D01*
X217459D01*
Y345229D01*
Y345187D01*
X217417D01*
Y345146D01*
X217375D01*
Y345104D01*
Y345062D01*
X217334D01*
Y345021D01*
Y344979D01*
X217292D01*
Y344937D01*
X217250D01*
Y344896D01*
Y344854D01*
X217209D01*
Y344812D01*
X217167D01*
Y344771D01*
X217125D01*
Y344729D01*
Y344688D01*
X217084D01*
Y344646D01*
X217042D01*
Y344604D01*
X217000D01*
Y344563D01*
X216959D01*
Y344521D01*
X216917D01*
Y344479D01*
X216875D01*
Y344438D01*
X216834D01*
Y344396D01*
X216792D01*
Y344354D01*
X216750D01*
Y344313D01*
X216709D01*
Y344271D01*
X216667D01*
Y344313D01*
Y344354D01*
X216709D01*
Y344396D01*
X216750D01*
Y344438D01*
Y344479D01*
X216792D01*
Y344521D01*
X216834D01*
Y344563D01*
Y344604D01*
X216875D01*
Y344646D01*
Y344688D01*
X216917D01*
Y344729D01*
Y344771D01*
X216959D01*
Y344812D01*
X217000D01*
Y344854D01*
X217042D01*
Y344896D01*
Y344937D01*
X217084D01*
Y344979D01*
X217125D01*
Y345021D01*
X217167D01*
Y345062D01*
X217209D01*
Y345104D01*
Y345146D01*
X217250D01*
Y345187D01*
X217292D01*
Y345229D01*
X217334D01*
Y345271D01*
X217375D01*
Y345312D01*
X217417D01*
Y345354D01*
Y345396D01*
X217459D01*
Y345438D01*
X217500D01*
Y345479D01*
X217542D01*
Y345521D01*
Y345563D01*
X217583D01*
Y345604D01*
X217625D01*
Y345646D01*
Y345688D01*
X217667D01*
Y345729D01*
Y345771D01*
X217708D01*
Y345813D01*
Y345854D01*
X217750D01*
Y345896D01*
Y345937D01*
X217792D01*
Y345979D01*
Y346021D01*
X217833D01*
Y346062D01*
Y346104D01*
Y346146D01*
X217875D01*
Y346187D01*
Y346229D01*
X217917D01*
Y346271D01*
Y346312D01*
X217958D01*
Y346354D01*
Y346396D01*
Y346438D01*
X218000D01*
Y346479D01*
Y346521D01*
X218042D01*
Y346563D01*
Y346604D01*
X218084D01*
Y346646D01*
Y346688D01*
X218125D01*
Y346729D01*
Y346771D01*
X218167D01*
Y346813D01*
Y346854D01*
X218209D01*
Y346896D01*
Y346937D01*
X218250D01*
Y346979D01*
Y347021D01*
X218292D01*
Y347062D01*
Y347104D01*
X218334D01*
Y347146D01*
Y347187D01*
Y347229D01*
X218375D01*
Y347271D01*
Y347312D01*
X218417D01*
Y347354D01*
Y347396D01*
X218459D01*
Y347437D01*
Y347479D01*
Y347521D01*
X218500D01*
Y347562D01*
Y347604D01*
X218542D01*
Y347646D01*
Y347687D01*
Y347729D01*
X218583D01*
Y347771D01*
Y347812D01*
Y347854D01*
X218625D01*
Y347896D01*
Y347937D01*
Y347979D01*
X218667D01*
Y348021D01*
Y348062D01*
Y348104D01*
X218708D01*
Y348146D01*
Y348187D01*
Y348229D01*
Y348271D01*
X218750D01*
Y348312D01*
Y348354D01*
Y348396D01*
Y348437D01*
X218792D01*
Y348479D01*
Y348521D01*
Y348562D01*
Y348604D01*
X218833D01*
Y348646D01*
Y348687D01*
Y348729D01*
Y348771D01*
Y348812D01*
Y348854D01*
X218875D01*
Y348896D01*
Y348937D01*
Y348979D01*
Y349021D01*
Y349062D01*
Y349104D01*
Y349146D01*
X218917D01*
Y349187D01*
Y349229D01*
Y349271D01*
Y349312D01*
Y349354D01*
Y349396D01*
Y349437D01*
X218958D01*
Y349479D01*
Y349521D01*
Y349562D01*
Y349604D01*
Y349646D01*
Y349687D01*
Y349729D01*
X219000D01*
Y349771D01*
Y349812D01*
Y349854D01*
Y349896D01*
Y349937D01*
Y349979D01*
Y350021D01*
X219042D01*
Y350062D01*
Y350104D01*
Y350146D01*
Y350187D01*
Y350229D01*
Y350271D01*
Y350312D01*
Y350354D01*
X219083D01*
Y350396D01*
Y350437D01*
Y350479D01*
Y350521D01*
Y350562D01*
Y350604D01*
Y350646D01*
X219125D01*
Y350687D01*
Y350729D01*
Y350771D01*
Y350812D01*
Y350854D01*
Y350896D01*
Y350937D01*
X219167D01*
Y350979D01*
Y351021D01*
Y351062D01*
Y351104D01*
Y351146D01*
Y351187D01*
X219209D01*
Y351229D01*
Y351271D01*
Y351312D01*
Y351354D01*
Y351396D01*
Y351437D01*
X219250D01*
Y351479D01*
Y351521D01*
Y351562D01*
Y351604D01*
Y351646D01*
Y351687D01*
X219292D01*
Y351729D01*
Y351771D01*
Y351812D01*
Y351854D01*
Y351896D01*
Y351937D01*
X219334D01*
Y351979D01*
Y352021D01*
Y352062D01*
Y352104D01*
Y352146D01*
Y352187D01*
X219375D01*
Y352229D01*
Y352271D01*
Y352312D01*
Y352354D01*
Y352396D01*
Y352437D01*
Y352479D01*
X219417D01*
Y352521D01*
Y352562D01*
Y352604D01*
Y352646D01*
Y352687D01*
Y352729D01*
Y352771D01*
X219459D01*
Y352812D01*
Y352854D01*
Y352896D01*
Y352937D01*
Y352979D01*
Y353021D01*
Y353062D01*
Y353104D01*
Y353146D01*
X219500D01*
Y353187D01*
Y353229D01*
Y353271D01*
Y353312D01*
Y353354D01*
Y353396D01*
Y353437D01*
Y353479D01*
Y353521D01*
X219542D01*
Y353562D01*
Y353604D01*
Y353646D01*
Y353687D01*
Y353729D01*
Y353771D01*
Y353812D01*
Y353854D01*
Y353896D01*
X219584D01*
Y353937D01*
Y353979D01*
Y354021D01*
Y354062D01*
Y354104D01*
Y354146D01*
Y354187D01*
Y354229D01*
X219625D01*
Y354271D01*
Y354312D01*
Y354354D01*
Y354396D01*
Y354437D01*
Y354479D01*
Y354521D01*
Y354562D01*
X219667D01*
Y354604D01*
Y354646D01*
Y354687D01*
Y354729D01*
Y354771D01*
Y354812D01*
Y354854D01*
X219708D01*
Y354896D01*
Y354937D01*
Y354979D01*
Y355021D01*
Y355062D01*
Y355104D01*
Y355146D01*
X219750D01*
Y355187D01*
Y355229D01*
Y355271D01*
Y355312D01*
Y355354D01*
Y355396D01*
X219792D01*
Y355437D01*
Y355479D01*
Y355521D01*
Y355562D01*
Y355604D01*
Y355646D01*
X219833D01*
Y355687D01*
Y355729D01*
Y355771D01*
Y355812D01*
Y355854D01*
Y355896D01*
X219875D01*
Y355937D01*
Y355979D01*
Y356021D01*
Y356062D01*
X219792D01*
Y356021D01*
X219708D01*
Y355979D01*
X219667D01*
Y355937D01*
X219625D01*
Y355896D01*
X219584D01*
Y355937D01*
Y355979D01*
X219625D01*
Y356021D01*
Y356062D01*
Y356104D01*
X219667D01*
Y356146D01*
Y356187D01*
Y356229D01*
X219708D01*
Y356271D01*
Y356312D01*
Y356354D01*
X219750D01*
Y356396D01*
Y356437D01*
X219792D01*
Y356479D01*
Y356521D01*
Y356562D01*
X219833D01*
Y356604D01*
Y356645D01*
Y356687D01*
X219875D01*
Y356729D01*
Y356770D01*
Y356812D01*
X219917D01*
Y356854D01*
Y356895D01*
Y356937D01*
X219958D01*
Y356979D01*
Y357020D01*
Y357062D01*
X220000D01*
Y357104D01*
Y357146D01*
Y357187D01*
X220042D01*
Y357229D01*
Y357271D01*
Y357312D01*
X220083D01*
Y357354D01*
Y357396D01*
Y357437D01*
Y357479D01*
X220125D01*
Y357521D01*
Y357562D01*
Y357604D01*
Y357646D01*
X220167D01*
Y357687D01*
Y357729D01*
Y357770D01*
Y357812D01*
X220209D01*
Y357854D01*
Y357895D01*
Y357937D01*
Y357979D01*
Y358020D01*
Y358062D01*
X220250D01*
Y358104D01*
Y358145D01*
Y358187D01*
Y358229D01*
Y358271D01*
Y358312D01*
X220292D01*
Y358354D01*
Y358396D01*
Y358437D01*
Y358479D01*
Y358521D01*
Y358562D01*
X220334D01*
Y358604D01*
Y358646D01*
Y358687D01*
Y358729D01*
Y358770D01*
Y358812D01*
X220375D01*
Y358854D01*
Y358895D01*
Y358937D01*
Y358979D01*
Y359020D01*
Y359062D01*
X220417D01*
Y359104D01*
Y359145D01*
Y359187D01*
Y359229D01*
Y359271D01*
Y359312D01*
Y359354D01*
X220459D01*
Y359396D01*
Y359437D01*
Y359479D01*
Y359520D01*
Y359562D01*
Y359604D01*
X220500D01*
Y359645D01*
Y359687D01*
Y359729D01*
Y359770D01*
Y359812D01*
Y359854D01*
Y359895D01*
Y359937D01*
Y359979D01*
X220542D01*
Y360020D01*
Y360062D01*
Y360104D01*
Y360145D01*
Y360187D01*
Y360229D01*
Y360270D01*
Y360312D01*
X220584D01*
Y360354D01*
Y360395D01*
Y360437D01*
Y360479D01*
Y360520D01*
Y360562D01*
Y360604D01*
Y360645D01*
Y360687D01*
X220625D01*
Y360729D01*
Y360770D01*
Y360812D01*
Y360854D01*
Y360895D01*
Y360937D01*
Y360979D01*
Y361020D01*
Y361062D01*
X220667D01*
Y361104D01*
Y361145D01*
Y361187D01*
Y361229D01*
Y361270D01*
Y361312D01*
Y361354D01*
Y361395D01*
Y361437D01*
Y361479D01*
Y361520D01*
X220584D01*
Y361479D01*
X220542D01*
Y361437D01*
X220500D01*
Y361395D01*
X220459D01*
Y361354D01*
X220417D01*
Y361312D01*
X220334D01*
Y361270D01*
X220292D01*
Y361229D01*
X220250D01*
Y361187D01*
X220209D01*
Y361229D01*
Y361270D01*
X220250D01*
Y361312D01*
Y361354D01*
X220292D01*
Y361395D01*
Y361437D01*
X220334D01*
Y361479D01*
Y361520D01*
X220375D01*
Y361562D01*
Y361604D01*
X220417D01*
Y361645D01*
Y361687D01*
X220459D01*
Y361729D01*
X220500D01*
Y361770D01*
Y361812D01*
X220542D01*
Y361854D01*
X220584D01*
Y361895D01*
Y361937D01*
X220625D01*
Y361979D01*
X220667D01*
Y362020D01*
Y362062D01*
Y362104D01*
X220708D01*
Y362145D01*
Y362187D01*
Y362229D01*
Y362270D01*
X220750D01*
Y362312D01*
Y362354D01*
Y362395D01*
Y362437D01*
Y362479D01*
Y362520D01*
Y362562D01*
X220792D01*
Y362604D01*
Y362645D01*
Y362687D01*
Y362729D01*
Y362770D01*
Y362812D01*
Y362854D01*
Y362895D01*
Y362937D01*
Y362979D01*
X220833D01*
Y363020D01*
Y363062D01*
Y363104D01*
Y363145D01*
Y363187D01*
X220875D01*
Y363229D01*
Y363270D01*
X220917D01*
Y363312D01*
X220958D01*
Y363354D01*
X221000D01*
Y363395D01*
X221042D01*
Y363437D01*
X221083D01*
Y363479D01*
X221167D01*
Y363520D01*
X221208D01*
Y363562D01*
X221250D01*
Y363604D01*
X221333D01*
Y363562D01*
Y363520D01*
Y363479D01*
Y363437D01*
Y363395D01*
X221292D01*
Y363354D01*
Y363312D01*
Y363270D01*
Y363229D01*
Y363187D01*
Y363145D01*
Y363104D01*
X221375D01*
Y363145D01*
Y363187D01*
X221417D01*
Y363229D01*
Y363270D01*
X221458D01*
Y363312D01*
Y363354D01*
Y363395D01*
Y363437D01*
X221500D01*
Y363479D01*
Y363520D01*
Y363562D01*
Y363604D01*
Y363645D01*
Y363687D01*
X221542D01*
Y363729D01*
Y363770D01*
Y363812D01*
Y363854D01*
Y363895D01*
Y363937D01*
Y363979D01*
Y364020D01*
Y364062D01*
Y364104D01*
Y364145D01*
Y364187D01*
Y364229D01*
Y364270D01*
Y364312D01*
Y364354D01*
X221583D01*
Y364395D01*
Y364437D01*
Y364479D01*
X221625D01*
Y364520D01*
Y364562D01*
X221667D01*
Y364604D01*
Y364645D01*
Y364687D01*
Y364729D01*
X221708D01*
Y364770D01*
Y364812D01*
Y364854D01*
Y364895D01*
Y364937D01*
X221750D01*
Y364979D01*
Y365020D01*
Y365062D01*
X221792D01*
Y365104D01*
Y365145D01*
X221833D01*
Y365187D01*
X221875D01*
Y365229D01*
X221917D01*
Y365270D01*
X221958D01*
Y365312D01*
X222000D01*
Y365354D01*
X222042D01*
Y365395D01*
X222083D01*
Y365437D01*
X222167D01*
Y365479D01*
X222208D01*
Y365520D01*
X222250D01*
Y365562D01*
X222292D01*
Y365604D01*
X222375D01*
Y365645D01*
X222417D01*
Y365687D01*
X222458D01*
Y365729D01*
X222542D01*
Y365770D01*
X222583D01*
Y365812D01*
X222625D01*
Y365854D01*
X222667D01*
Y365812D01*
Y365770D01*
Y365729D01*
X222625D01*
Y365687D01*
Y365645D01*
Y365604D01*
Y365562D01*
Y365520D01*
X222583D01*
Y365479D01*
Y365437D01*
Y365395D01*
X222542D01*
Y365354D01*
Y365312D01*
Y365270D01*
X222500D01*
Y365229D01*
Y365187D01*
Y365145D01*
X222542D01*
Y365104D01*
X222625D01*
Y365145D01*
X222750D01*
Y365187D01*
X222875D01*
Y365229D01*
X223000D01*
Y365270D01*
X223167D01*
Y365312D01*
X223417D01*
Y365354D01*
X223625D01*
Y365395D01*
X223750D01*
Y365437D01*
X223917D01*
Y365479D01*
X224083D01*
Y365520D01*
X224292D01*
Y365562D01*
X224458D01*
Y365604D01*
X224667D01*
Y365645D01*
X224875D01*
Y365687D01*
X225042D01*
Y365729D01*
X225167D01*
Y365770D01*
X225292D01*
Y365812D01*
X225375D01*
Y365854D01*
X225458D01*
Y365895D01*
X225500D01*
Y365937D01*
X225583D01*
Y365895D01*
X225542D01*
Y365854D01*
X225500D01*
Y365812D01*
Y365770D01*
X225458D01*
Y365729D01*
X225417D01*
Y365687D01*
X225542D01*
Y365729D01*
X225750D01*
Y365770D01*
X225917D01*
Y365812D01*
X226083D01*
Y365854D01*
X226250D01*
Y365895D01*
X226458D01*
Y365937D01*
X226708D01*
Y365979D01*
X227083D01*
Y366020D01*
X227667D01*
Y366062D01*
X228125D01*
Y366104D01*
X228333D01*
Y366145D01*
X228458D01*
Y366187D01*
X228583D01*
Y366229D01*
X228667D01*
Y366270D01*
X228708D01*
Y366312D01*
X228750D01*
Y366354D01*
X228833D01*
Y366395D01*
X228917D01*
Y366437D01*
X229000D01*
Y366479D01*
X229250D01*
Y366520D01*
X230292D01*
Y366479D01*
X230250D01*
Y366437D01*
X230208D01*
Y366395D01*
X230167D01*
Y366354D01*
X230125D01*
Y366312D01*
X230083D01*
Y366270D01*
X230042D01*
Y366229D01*
X230000D01*
Y366187D01*
X229917D01*
Y366145D01*
Y366104D01*
X230042D01*
Y366145D01*
X230833D01*
Y366187D01*
X231167D01*
Y366229D01*
X231666D01*
Y366270D01*
X232666D01*
Y366312D01*
X232708D01*
Y366354D01*
X232750D01*
Y366395D01*
Y366437D01*
X232791D01*
Y366479D01*
Y366520D01*
X232833D01*
Y366562D01*
Y366604D01*
X232875D01*
Y366645D01*
Y366687D01*
X232916D01*
Y366729D01*
Y366770D01*
X232958D01*
Y366812D01*
Y366854D01*
X233000D01*
Y366895D01*
Y366937D01*
X233042D01*
Y366979D01*
Y367020D01*
Y367062D01*
X233083D01*
Y367104D01*
Y367145D01*
Y367187D01*
Y367229D01*
X233125D01*
Y367270D01*
Y367312D01*
Y367354D01*
Y367395D01*
Y367437D01*
Y367479D01*
Y367520D01*
Y367562D01*
Y367604D01*
Y367645D01*
Y367687D01*
Y367729D01*
Y367770D01*
X233083D01*
Y367812D01*
X233042D01*
Y367854D01*
X233000D01*
Y367895D01*
X232958D01*
Y367937D01*
X232916D01*
Y367979D01*
X232875D01*
Y368020D01*
X232833D01*
Y368062D01*
Y368104D01*
X232791D01*
Y368145D01*
X232750D01*
Y368187D01*
Y368229D01*
X232708D01*
Y368270D01*
X232666D01*
Y368312D01*
Y368354D01*
Y368395D01*
X232625D01*
Y368437D01*
Y368478D01*
X232583D01*
Y368520D01*
Y368562D01*
Y368603D01*
Y368645D01*
X232541D01*
Y368687D01*
Y368728D01*
Y368770D01*
Y368812D01*
Y368853D01*
Y368895D01*
Y368937D01*
Y368979D01*
Y369020D01*
Y369062D01*
Y369104D01*
X232500D01*
Y369145D01*
Y369187D01*
Y369229D01*
Y369270D01*
Y369312D01*
Y369354D01*
Y369395D01*
Y369437D01*
Y369479D01*
Y369520D01*
X232541D01*
Y369562D01*
Y369603D01*
Y369645D01*
Y369687D01*
Y369728D01*
X232583D01*
Y369770D01*
Y369812D01*
Y369853D01*
X232625D01*
Y369895D01*
X232666D01*
Y369937D01*
X232708D01*
Y369978D01*
X232750D01*
Y370020D01*
X232875D01*
Y370062D01*
X232916D01*
Y370020D01*
D02*
G37*
G36*
X229791Y364479D02*
Y364437D01*
Y364395D01*
X229750D01*
Y364354D01*
Y364312D01*
Y364270D01*
Y364229D01*
X229708D01*
Y364187D01*
Y364145D01*
Y364104D01*
X229667D01*
Y364062D01*
Y364020D01*
Y363979D01*
Y363937D01*
X229625D01*
Y363895D01*
Y363854D01*
X229708D01*
Y363895D01*
X229750D01*
Y363937D01*
X229833D01*
Y363979D01*
X229875D01*
Y364020D01*
X229917D01*
Y364062D01*
X229958D01*
Y364020D01*
Y363979D01*
Y363937D01*
Y363895D01*
Y363854D01*
Y363812D01*
Y363770D01*
Y363729D01*
X230000D01*
Y363687D01*
Y363645D01*
Y363604D01*
Y363562D01*
Y363520D01*
Y363479D01*
Y363437D01*
Y363395D01*
Y363354D01*
Y363312D01*
Y363270D01*
Y363229D01*
Y363187D01*
Y363145D01*
Y363104D01*
Y363062D01*
Y363020D01*
Y362979D01*
Y362937D01*
Y362895D01*
Y362854D01*
Y362812D01*
Y362770D01*
Y362729D01*
Y362687D01*
Y362645D01*
Y362604D01*
Y362562D01*
Y362520D01*
Y362479D01*
Y362437D01*
Y362395D01*
Y362354D01*
Y362312D01*
X230042D01*
Y362270D01*
Y362229D01*
Y362187D01*
Y362145D01*
Y362104D01*
Y362062D01*
Y362020D01*
Y361979D01*
Y361937D01*
Y361895D01*
Y361854D01*
Y361812D01*
Y361770D01*
X230083D01*
Y361729D01*
Y361687D01*
Y361645D01*
Y361604D01*
Y361562D01*
Y361520D01*
Y361479D01*
X230125D01*
Y361437D01*
Y361395D01*
Y361354D01*
Y361312D01*
Y361270D01*
Y361229D01*
X230167D01*
Y361187D01*
Y361145D01*
Y361104D01*
Y361062D01*
Y361020D01*
Y360979D01*
X230208D01*
Y360937D01*
Y360895D01*
Y360854D01*
Y360812D01*
Y360770D01*
X230250D01*
Y360729D01*
Y360687D01*
Y360645D01*
Y360604D01*
X230292D01*
Y360562D01*
Y360520D01*
Y360479D01*
Y360437D01*
Y360395D01*
X230333D01*
Y360354D01*
Y360312D01*
Y360270D01*
Y360229D01*
X230375D01*
Y360187D01*
Y360145D01*
Y360104D01*
Y360062D01*
X230416D01*
Y360020D01*
Y359979D01*
Y359937D01*
Y359895D01*
X230458D01*
Y359854D01*
Y359812D01*
Y359770D01*
Y359729D01*
X230500D01*
Y359687D01*
Y359645D01*
Y359604D01*
X230541D01*
Y359562D01*
Y359520D01*
Y359479D01*
Y359437D01*
X230583D01*
Y359396D01*
Y359354D01*
Y359312D01*
X230625D01*
Y359271D01*
Y359229D01*
Y359187D01*
X230666D01*
Y359145D01*
Y359104D01*
X230708D01*
Y359062D01*
Y359020D01*
Y358979D01*
X230750D01*
Y358937D01*
Y358895D01*
Y358854D01*
X230791D01*
Y358812D01*
Y358770D01*
X230833D01*
Y358729D01*
Y358687D01*
Y358646D01*
X230875D01*
Y358604D01*
Y358562D01*
Y358521D01*
X230917D01*
Y358479D01*
Y358437D01*
Y358396D01*
X230958D01*
Y358354D01*
Y358312D01*
Y358271D01*
X231000D01*
Y358229D01*
Y358187D01*
Y358145D01*
X231042D01*
Y358104D01*
Y358062D01*
X231083D01*
Y358020D01*
Y357979D01*
Y357937D01*
X231125D01*
Y357895D01*
Y357854D01*
Y357812D01*
X231167D01*
Y357770D01*
Y357729D01*
Y357687D01*
X231208D01*
Y357646D01*
Y357604D01*
Y357562D01*
X231250D01*
Y357521D01*
Y357479D01*
Y357437D01*
Y357396D01*
X231292D01*
Y357354D01*
Y357312D01*
Y357271D01*
X231333D01*
Y357229D01*
Y357187D01*
Y357146D01*
X231375D01*
Y357104D01*
Y357062D01*
X231417D01*
Y357020D01*
Y356979D01*
Y356937D01*
X231458D01*
Y356895D01*
Y356854D01*
Y356812D01*
X231500D01*
Y356770D01*
Y356729D01*
X231541D01*
Y356687D01*
Y356645D01*
Y356604D01*
X231583D01*
Y356562D01*
Y356521D01*
X231625D01*
Y356479D01*
Y356437D01*
X231666D01*
Y356396D01*
Y356354D01*
Y356312D01*
X231708D01*
Y356271D01*
Y356229D01*
X231750D01*
Y356187D01*
Y356146D01*
X231791D01*
Y356104D01*
Y356062D01*
Y356021D01*
X231833D01*
Y355979D01*
Y355937D01*
X231875D01*
Y355896D01*
Y355854D01*
X231916D01*
Y355812D01*
Y355771D01*
Y355729D01*
X231958D01*
Y355687D01*
Y355646D01*
X232000D01*
Y355604D01*
Y355562D01*
Y355521D01*
X232042D01*
Y355479D01*
Y355437D01*
Y355396D01*
X232083D01*
Y355354D01*
Y355312D01*
Y355271D01*
X232125D01*
Y355229D01*
Y355187D01*
Y355146D01*
X232167D01*
Y355104D01*
Y355062D01*
Y355021D01*
X232208D01*
Y354979D01*
Y354937D01*
Y354896D01*
X232250D01*
Y354854D01*
Y354812D01*
X232292D01*
Y354771D01*
Y354729D01*
X232333D01*
Y354687D01*
Y354646D01*
X232375D01*
Y354604D01*
X232417D01*
Y354562D01*
Y354521D01*
X232458D01*
Y354479D01*
X232500D01*
Y354437D01*
Y354396D01*
X232541D01*
Y354354D01*
X232583D01*
Y354312D01*
X232541D01*
Y354271D01*
X232458D01*
Y354229D01*
X232375D01*
Y354187D01*
X232333D01*
Y354146D01*
X232250D01*
Y354104D01*
X232167D01*
Y354062D01*
X232125D01*
Y354021D01*
X232042D01*
Y353979D01*
X232000D01*
Y354021D01*
X231958D01*
Y354062D01*
Y354104D01*
X231916D01*
Y354146D01*
X231875D01*
Y354187D01*
X231791D01*
Y354146D01*
X231750D01*
Y354104D01*
X231666D01*
Y354062D01*
X231625D01*
Y354021D01*
X231541D01*
Y353979D01*
X231500D01*
Y353937D01*
X231458D01*
Y353896D01*
X230958D01*
Y353854D01*
X230208D01*
Y353812D01*
X229625D01*
Y353771D01*
X229292D01*
Y353729D01*
X229042D01*
Y353687D01*
X228125D01*
Y353729D01*
X228042D01*
Y353771D01*
X228000D01*
Y353812D01*
X228042D01*
Y353854D01*
X228083D01*
Y353896D01*
Y353937D01*
X227833D01*
Y353979D01*
X227750D01*
Y354021D01*
X227708D01*
Y354062D01*
X227667D01*
Y354104D01*
Y354146D01*
Y354187D01*
Y354229D01*
Y354271D01*
Y354312D01*
X227625D01*
Y354354D01*
Y354396D01*
Y354437D01*
X227583D01*
Y354479D01*
Y354521D01*
Y354562D01*
X227542D01*
Y354604D01*
Y354646D01*
X227500D01*
Y354687D01*
Y354729D01*
Y354771D01*
X227458D01*
Y354812D01*
Y354854D01*
Y354896D01*
X227417D01*
Y354937D01*
Y354979D01*
Y355021D01*
X227375D01*
Y355062D01*
Y355104D01*
X227333D01*
Y355146D01*
X227292D01*
Y355187D01*
Y355229D01*
X227250D01*
Y355271D01*
X227208D01*
Y355312D01*
X227167D01*
Y355354D01*
X227083D01*
Y355312D01*
Y355271D01*
X227042D01*
Y355229D01*
X227000D01*
Y355187D01*
Y355146D01*
X226958D01*
Y355104D01*
X226917D01*
Y355062D01*
Y355021D01*
X226875D01*
Y354979D01*
X226833D01*
Y354937D01*
Y354896D01*
X226792D01*
Y354854D01*
X226750D01*
Y354812D01*
Y354771D01*
X226708D01*
Y354729D01*
X226667D01*
Y354687D01*
Y354646D01*
X226625D01*
Y354604D01*
Y354562D01*
X226583D01*
Y354521D01*
Y354479D01*
X226542D01*
Y354437D01*
X226500D01*
Y354396D01*
Y354354D01*
X226458D01*
Y354312D01*
X226417D01*
Y354271D01*
X226375D01*
Y354229D01*
Y354187D01*
X226333D01*
Y354146D01*
X226292D01*
Y354104D01*
X226250D01*
Y354062D01*
X226167D01*
Y354021D01*
X226125D01*
Y353979D01*
X226083D01*
Y353937D01*
X226042D01*
Y353896D01*
X226000D01*
Y353854D01*
X225958D01*
Y353812D01*
X225917D01*
Y353771D01*
X225833D01*
Y353729D01*
X225792D01*
Y353687D01*
X225750D01*
Y353646D01*
X225667D01*
Y353604D01*
X225167D01*
Y353646D01*
X225042D01*
Y353604D01*
X224667D01*
Y353562D01*
X224542D01*
Y353521D01*
X224417D01*
Y353479D01*
X224333D01*
Y353437D01*
X224292D01*
Y353396D01*
X224208D01*
Y353354D01*
X224167D01*
Y353312D01*
X224083D01*
Y353354D01*
X224125D01*
Y353396D01*
X224167D01*
Y353437D01*
X224208D01*
Y353479D01*
X224250D01*
Y353521D01*
X224292D01*
Y353562D01*
X224333D01*
Y353604D01*
X224375D01*
Y353646D01*
X224417D01*
Y353687D01*
X224458D01*
Y353729D01*
X224542D01*
Y353771D01*
X224583D01*
Y353812D01*
X224667D01*
Y353854D01*
X224750D01*
Y353896D01*
X224833D01*
Y353937D01*
X224958D01*
Y353979D01*
X225083D01*
Y354021D01*
X225333D01*
Y354062D01*
X225792D01*
Y354104D01*
X226083D01*
Y354146D01*
X226125D01*
Y354187D01*
X226167D01*
Y354229D01*
Y354271D01*
X226208D01*
Y354312D01*
X226250D01*
Y354354D01*
Y354396D01*
X226292D01*
Y354437D01*
X226333D01*
Y354479D01*
Y354521D01*
X226375D01*
Y354562D01*
X226417D01*
Y354604D01*
Y354646D01*
X226458D01*
Y354687D01*
X226500D01*
Y354729D01*
Y354771D01*
X226542D01*
Y354812D01*
Y354854D01*
X226583D01*
Y354896D01*
X226625D01*
Y354937D01*
Y354979D01*
X226667D01*
Y355021D01*
Y355062D01*
X226708D01*
Y355104D01*
X226750D01*
Y355146D01*
Y355187D01*
X226792D01*
Y355229D01*
Y355271D01*
X226833D01*
Y355312D01*
Y355354D01*
X226875D01*
Y355396D01*
X226917D01*
Y355437D01*
X226958D01*
Y355479D01*
Y355521D01*
X227000D01*
Y355562D01*
X227042D01*
Y355604D01*
X227083D01*
Y355646D01*
X227125D01*
Y355687D01*
X227167D01*
Y355729D01*
X227208D01*
Y355771D01*
X227250D01*
Y355812D01*
X227292D01*
Y355854D01*
X227333D01*
Y355896D01*
X227375D01*
Y355854D01*
Y355812D01*
X227333D01*
Y355771D01*
Y355729D01*
X227375D01*
Y355771D01*
X227458D01*
Y355812D01*
X227500D01*
Y355854D01*
X227542D01*
Y355896D01*
X227667D01*
Y355854D01*
Y355812D01*
X227708D01*
Y355771D01*
Y355729D01*
X227750D01*
Y355687D01*
X227792D01*
Y355646D01*
Y355604D01*
X227833D01*
Y355562D01*
Y355521D01*
X227875D01*
Y355479D01*
Y355437D01*
X227917D01*
Y355396D01*
Y355354D01*
X227958D01*
Y355312D01*
Y355271D01*
Y355229D01*
X228000D01*
Y355187D01*
Y355146D01*
X228042D01*
Y355104D01*
Y355062D01*
Y355021D01*
X228083D01*
Y354979D01*
Y354937D01*
X228125D01*
Y354896D01*
Y354854D01*
Y354812D01*
X228167D01*
Y354771D01*
Y354729D01*
Y354687D01*
Y354646D01*
X228208D01*
Y354604D01*
Y354562D01*
Y354521D01*
Y354479D01*
X228250D01*
Y354437D01*
X228292D01*
Y354396D01*
X228542D01*
Y354354D01*
X228500D01*
Y354312D01*
Y354271D01*
Y354229D01*
X228542D01*
Y354187D01*
Y354146D01*
Y354104D01*
Y354062D01*
X228583D01*
Y354021D01*
X228625D01*
Y353979D01*
X228792D01*
Y354021D01*
X229042D01*
Y354062D01*
X229250D01*
Y354104D01*
X229417D01*
Y354146D01*
X229625D01*
Y354187D01*
X229875D01*
Y354229D01*
X230292D01*
Y354271D01*
X230958D01*
Y354312D01*
X231666D01*
Y354354D01*
X231708D01*
Y354396D01*
Y354437D01*
Y354479D01*
X231666D01*
Y354521D01*
Y354562D01*
Y354604D01*
Y354646D01*
X231625D01*
Y354687D01*
Y354729D01*
Y354771D01*
X231583D01*
Y354812D01*
Y354854D01*
Y354896D01*
X231541D01*
Y354937D01*
Y354979D01*
Y355021D01*
X231500D01*
Y355062D01*
Y355104D01*
Y355146D01*
X231458D01*
Y355187D01*
Y355229D01*
X231417D01*
Y355271D01*
Y355312D01*
Y355354D01*
X231375D01*
Y355396D01*
Y355437D01*
X231333D01*
Y355479D01*
Y355521D01*
Y355562D01*
X231292D01*
Y355604D01*
Y355646D01*
X231250D01*
Y355687D01*
Y355729D01*
X231208D01*
Y355771D01*
Y355812D01*
Y355854D01*
X231167D01*
Y355896D01*
Y355937D01*
X231125D01*
Y355979D01*
Y356021D01*
X231083D01*
Y356062D01*
Y356104D01*
Y356146D01*
X231042D01*
Y356187D01*
Y356229D01*
X231000D01*
Y356271D01*
Y356312D01*
Y356354D01*
X230958D01*
Y356396D01*
Y356437D01*
X230917D01*
Y356479D01*
Y356521D01*
Y356562D01*
X230875D01*
Y356604D01*
Y356645D01*
Y356687D01*
X230833D01*
Y356729D01*
Y356770D01*
Y356812D01*
X230791D01*
Y356854D01*
Y356895D01*
Y356937D01*
X230750D01*
Y356979D01*
Y357020D01*
Y357062D01*
X230708D01*
Y357104D01*
Y357146D01*
Y357187D01*
X230666D01*
Y357229D01*
Y357271D01*
Y357312D01*
X230625D01*
Y357354D01*
Y357396D01*
Y357437D01*
X230583D01*
Y357479D01*
Y357521D01*
Y357562D01*
X230541D01*
Y357604D01*
Y357646D01*
Y357687D01*
X230500D01*
Y357729D01*
Y357770D01*
Y357812D01*
X230458D01*
Y357854D01*
Y357895D01*
Y357937D01*
X230416D01*
Y357979D01*
Y358020D01*
X230375D01*
Y358062D01*
Y358104D01*
Y358145D01*
X230333D01*
Y358187D01*
Y358229D01*
Y358271D01*
X230292D01*
Y358312D01*
Y358354D01*
Y358396D01*
X230250D01*
Y358437D01*
Y358479D01*
X230208D01*
Y358521D01*
Y358562D01*
Y358604D01*
X230167D01*
Y358646D01*
Y358687D01*
Y358729D01*
X230125D01*
Y358770D01*
Y358812D01*
Y358854D01*
X230083D01*
Y358895D01*
Y358937D01*
Y358979D01*
X230042D01*
Y359020D01*
Y359062D01*
Y359104D01*
X230000D01*
Y359145D01*
Y359187D01*
Y359229D01*
Y359271D01*
X229958D01*
Y359312D01*
Y359354D01*
Y359396D01*
Y359437D01*
X229917D01*
Y359479D01*
Y359520D01*
Y359562D01*
X229875D01*
Y359604D01*
Y359645D01*
Y359687D01*
Y359729D01*
X229833D01*
Y359770D01*
Y359812D01*
Y359854D01*
Y359895D01*
X229791D01*
Y359937D01*
Y359979D01*
Y360020D01*
Y360062D01*
Y360104D01*
X229750D01*
Y360145D01*
Y360187D01*
Y360229D01*
Y360270D01*
X229708D01*
Y360312D01*
Y360354D01*
Y360395D01*
Y360437D01*
Y360479D01*
X229667D01*
Y360520D01*
Y360562D01*
Y360604D01*
Y360645D01*
Y360687D01*
X229625D01*
Y360729D01*
Y360770D01*
Y360812D01*
Y360854D01*
Y360895D01*
X229583D01*
Y360937D01*
Y360979D01*
Y361020D01*
Y361062D01*
Y361104D01*
Y361145D01*
Y361187D01*
X229542D01*
Y361229D01*
Y361270D01*
Y361312D01*
Y361354D01*
Y361395D01*
Y361437D01*
Y361479D01*
Y361520D01*
Y361562D01*
Y361604D01*
X229500D01*
Y361645D01*
Y361687D01*
Y361729D01*
Y361770D01*
Y361812D01*
Y361854D01*
Y361895D01*
Y361937D01*
Y361979D01*
Y362020D01*
Y362062D01*
Y362104D01*
Y362145D01*
Y362187D01*
Y362229D01*
Y362270D01*
Y362312D01*
X229458D01*
Y362354D01*
Y362395D01*
Y362437D01*
Y362479D01*
Y362520D01*
Y362562D01*
Y362604D01*
Y362645D01*
Y362687D01*
Y362729D01*
Y362770D01*
Y362812D01*
Y362854D01*
Y362895D01*
Y362937D01*
Y362979D01*
Y363020D01*
Y363062D01*
X229375D01*
Y363020D01*
Y362979D01*
X229333D01*
Y362937D01*
Y362895D01*
Y362854D01*
Y362812D01*
X229292D01*
Y362770D01*
Y362729D01*
X229250D01*
Y362687D01*
Y362645D01*
Y362604D01*
X229208D01*
Y362562D01*
Y362520D01*
Y362479D01*
X229167D01*
Y362437D01*
Y362395D01*
X229125D01*
Y362354D01*
Y362312D01*
Y362270D01*
X229083D01*
Y362229D01*
Y362187D01*
X229042D01*
Y362145D01*
Y362104D01*
Y362062D01*
X229000D01*
Y362020D01*
Y361979D01*
X228958D01*
Y361937D01*
Y361895D01*
Y361854D01*
X228917D01*
Y361812D01*
Y361770D01*
X228875D01*
Y361729D01*
Y361687D01*
Y361645D01*
X228833D01*
Y361604D01*
Y361562D01*
X228792D01*
Y361520D01*
Y361479D01*
X228750D01*
Y361437D01*
Y361395D01*
Y361354D01*
X228708D01*
Y361312D01*
Y361270D01*
X228667D01*
Y361229D01*
Y361187D01*
X228625D01*
Y361145D01*
Y361104D01*
X228583D01*
Y361062D01*
Y361020D01*
X228542D01*
Y360979D01*
Y360937D01*
Y360895D01*
X228500D01*
Y360854D01*
Y360812D01*
X228458D01*
Y360770D01*
X228417D01*
Y360729D01*
Y360687D01*
X228375D01*
Y360645D01*
Y360604D01*
X228333D01*
Y360562D01*
Y360520D01*
X228292D01*
Y360479D01*
Y360437D01*
X228250D01*
Y360395D01*
Y360354D01*
X228208D01*
Y360312D01*
Y360270D01*
X228167D01*
Y360229D01*
X228125D01*
Y360187D01*
Y360145D01*
X228083D01*
Y360104D01*
Y360062D01*
X228042D01*
Y360020D01*
Y359979D01*
X228000D01*
Y359937D01*
Y359895D01*
X227958D01*
Y359854D01*
X227917D01*
Y359812D01*
Y359770D01*
X227875D01*
Y359729D01*
Y359687D01*
X227833D01*
Y359645D01*
X227792D01*
Y359604D01*
Y359562D01*
X227750D01*
Y359520D01*
Y359479D01*
X227708D01*
Y359437D01*
Y359396D01*
X227667D01*
Y359354D01*
X227625D01*
Y359312D01*
Y359271D01*
X227583D01*
Y359229D01*
X227542D01*
Y359187D01*
Y359145D01*
X227500D01*
Y359104D01*
Y359062D01*
X227458D01*
Y359020D01*
X227417D01*
Y358979D01*
Y358937D01*
X227375D01*
Y358895D01*
X227333D01*
Y358854D01*
Y358812D01*
X227292D01*
Y358770D01*
Y358729D01*
X227250D01*
Y358687D01*
X227208D01*
Y358646D01*
Y358604D01*
X227167D01*
Y358562D01*
X227125D01*
Y358521D01*
Y358479D01*
X227083D01*
Y358437D01*
X227042D01*
Y358396D01*
X227000D01*
Y358354D01*
Y358312D01*
X226958D01*
Y358271D01*
X226917D01*
Y358229D01*
Y358187D01*
X226875D01*
Y358145D01*
X226833D01*
Y358104D01*
Y358062D01*
X226792D01*
Y358020D01*
X226750D01*
Y357979D01*
X226708D01*
Y357937D01*
Y357895D01*
X226667D01*
Y357854D01*
X226625D01*
Y357812D01*
Y357770D01*
X226583D01*
Y357729D01*
X226542D01*
Y357687D01*
X226500D01*
Y357646D01*
Y357604D01*
X226458D01*
Y357562D01*
X226417D01*
Y357521D01*
Y357479D01*
X226375D01*
Y357437D01*
X226333D01*
Y357396D01*
X226292D01*
Y357354D01*
Y357312D01*
X226250D01*
Y357271D01*
X226208D01*
Y357229D01*
X226167D01*
Y357187D01*
Y357146D01*
X226125D01*
Y357104D01*
X226083D01*
Y357062D01*
X226042D01*
Y357020D01*
Y356979D01*
X226000D01*
Y356937D01*
X225958D01*
Y356895D01*
X225917D01*
Y356854D01*
Y356812D01*
X225875D01*
Y356770D01*
X225833D01*
Y356729D01*
X225792D01*
Y356687D01*
Y356645D01*
X225750D01*
Y356604D01*
X225708D01*
Y356562D01*
X225667D01*
Y356521D01*
Y356479D01*
X225625D01*
Y356437D01*
X225583D01*
Y356396D01*
X225542D01*
Y356354D01*
Y356312D01*
X225500D01*
Y356271D01*
X225458D01*
Y356229D01*
X225417D01*
Y356187D01*
X225375D01*
Y356146D01*
Y356104D01*
X225333D01*
Y356062D01*
X225292D01*
Y356021D01*
X225250D01*
Y355979D01*
Y355937D01*
X225208D01*
Y355896D01*
X225167D01*
Y355854D01*
X225125D01*
Y355812D01*
Y355771D01*
X225083D01*
Y355729D01*
X225042D01*
Y355687D01*
X225000D01*
Y355646D01*
Y355604D01*
X224958D01*
Y355562D01*
X224917D01*
Y355521D01*
Y355479D01*
X224875D01*
Y355437D01*
X224833D01*
Y355396D01*
X224792D01*
Y355354D01*
Y355312D01*
X224750D01*
Y355271D01*
X224708D01*
Y355229D01*
Y355187D01*
X224667D01*
Y355146D01*
X224625D01*
Y355104D01*
Y355062D01*
X224583D01*
Y355021D01*
X224542D01*
Y354979D01*
Y354937D01*
X224500D01*
Y354896D01*
X224458D01*
Y354854D01*
Y354812D01*
X224417D01*
Y354771D01*
X224375D01*
Y354729D01*
Y354687D01*
X224333D01*
Y354646D01*
X224292D01*
Y354604D01*
X224250D01*
Y354562D01*
Y354521D01*
X224208D01*
Y354479D01*
X224167D01*
Y354437D01*
Y354396D01*
X224125D01*
Y354354D01*
X224083D01*
Y354312D01*
X224042D01*
Y354271D01*
X224000D01*
Y354229D01*
Y354187D01*
X223958D01*
Y354146D01*
X223917D01*
Y354104D01*
X223875D01*
Y354062D01*
X223833D01*
Y354021D01*
Y353979D01*
X223792D01*
Y353937D01*
X223750D01*
Y353896D01*
Y353854D01*
X223708D01*
Y353812D01*
Y353771D01*
X223667D01*
Y353729D01*
X223625D01*
Y353687D01*
X223583D01*
Y353646D01*
Y353604D01*
X223542D01*
Y353562D01*
X223500D01*
Y353521D01*
X223458D01*
Y353479D01*
X223417D01*
Y353437D01*
X223375D01*
Y353396D01*
X223292D01*
Y353354D01*
X223250D01*
Y353312D01*
X223208D01*
Y353354D01*
Y353396D01*
X223250D01*
Y353437D01*
X223292D01*
Y353479D01*
Y353521D01*
X223333D01*
Y353562D01*
X223375D01*
Y353604D01*
X223417D01*
Y353646D01*
Y353687D01*
X223458D01*
Y353729D01*
X223500D01*
Y353771D01*
X223542D01*
Y353812D01*
Y353854D01*
X223583D01*
Y353896D01*
X223625D01*
Y353937D01*
X223667D01*
Y353979D01*
Y354021D01*
X223708D01*
Y354062D01*
X223750D01*
Y354104D01*
Y354146D01*
X223792D01*
Y354187D01*
X223833D01*
Y354229D01*
X223875D01*
Y354271D01*
Y354312D01*
X223917D01*
Y354354D01*
X223958D01*
Y354396D01*
Y354437D01*
X224000D01*
Y354479D01*
X224042D01*
Y354521D01*
Y354562D01*
X224083D01*
Y354604D01*
X224125D01*
Y354646D01*
Y354687D01*
X224167D01*
Y354729D01*
X224208D01*
Y354771D01*
Y354812D01*
X224250D01*
Y354854D01*
X224292D01*
Y354896D01*
Y354937D01*
X224333D01*
Y354979D01*
X224375D01*
Y355021D01*
X224417D01*
Y355062D01*
Y355104D01*
X224458D01*
Y355146D01*
X224500D01*
Y355187D01*
Y355229D01*
X224542D01*
Y355271D01*
X224583D01*
Y355312D01*
X224625D01*
Y355354D01*
Y355396D01*
X224667D01*
Y355437D01*
X224708D01*
Y355479D01*
X224750D01*
Y355521D01*
Y355562D01*
X224792D01*
Y355604D01*
X224833D01*
Y355646D01*
X224875D01*
Y355687D01*
X224917D01*
Y355729D01*
Y355771D01*
X224958D01*
Y355812D01*
X225000D01*
Y355854D01*
X225042D01*
Y355896D01*
Y355937D01*
X225083D01*
Y355979D01*
X225125D01*
Y356021D01*
X225167D01*
Y356062D01*
X225208D01*
Y356104D01*
Y356146D01*
X225250D01*
Y356187D01*
X225292D01*
Y356229D01*
X225333D01*
Y356271D01*
Y356312D01*
X225375D01*
Y356354D01*
X225417D01*
Y356396D01*
X225458D01*
Y356437D01*
Y356479D01*
X225500D01*
Y356521D01*
X225542D01*
Y356562D01*
X225583D01*
Y356604D01*
Y356645D01*
X225625D01*
Y356687D01*
X225667D01*
Y356729D01*
X225708D01*
Y356770D01*
Y356812D01*
X225750D01*
Y356854D01*
X225792D01*
Y356895D01*
X225833D01*
Y356937D01*
Y356979D01*
X225875D01*
Y357020D01*
X225917D01*
Y357062D01*
Y357104D01*
X225958D01*
Y357146D01*
X226000D01*
Y357187D01*
X226042D01*
Y357229D01*
Y357271D01*
X226083D01*
Y357312D01*
X226125D01*
Y357354D01*
Y357396D01*
X226167D01*
Y357437D01*
X226208D01*
Y357479D01*
X226250D01*
Y357521D01*
Y357562D01*
X226292D01*
Y357604D01*
X226333D01*
Y357646D01*
Y357687D01*
X226375D01*
Y357729D01*
X226417D01*
Y357770D01*
Y357812D01*
X226458D01*
Y357854D01*
X226500D01*
Y357895D01*
Y357937D01*
X226542D01*
Y357979D01*
X226583D01*
Y358020D01*
Y358062D01*
X226625D01*
Y358104D01*
X226667D01*
Y358145D01*
Y358187D01*
X226708D01*
Y358229D01*
X226750D01*
Y358271D01*
Y358312D01*
X226792D01*
Y358354D01*
X226833D01*
Y358396D01*
Y358437D01*
X226875D01*
Y358479D01*
X226917D01*
Y358521D01*
Y358562D01*
X226958D01*
Y358604D01*
Y358646D01*
X227000D01*
Y358687D01*
X227042D01*
Y358729D01*
Y358770D01*
X227083D01*
Y358812D01*
X227125D01*
Y358854D01*
Y358895D01*
X227167D01*
Y358937D01*
Y358979D01*
X227208D01*
Y359020D01*
X227250D01*
Y359062D01*
Y359104D01*
X227292D01*
Y359145D01*
Y359187D01*
X227333D01*
Y359229D01*
X227375D01*
Y359271D01*
Y359312D01*
X227417D01*
Y359354D01*
Y359396D01*
X227458D01*
Y359437D01*
X227500D01*
Y359479D01*
Y359520D01*
X227542D01*
Y359562D01*
Y359604D01*
X227583D01*
Y359645D01*
X227625D01*
Y359687D01*
Y359729D01*
X227667D01*
Y359770D01*
Y359812D01*
X227708D01*
Y359854D01*
Y359895D01*
X227750D01*
Y359937D01*
X227792D01*
Y359979D01*
Y360020D01*
X227833D01*
Y360062D01*
Y360104D01*
X227875D01*
Y360145D01*
Y360187D01*
X227917D01*
Y360229D01*
Y360270D01*
X227958D01*
Y360312D01*
Y360354D01*
X228000D01*
Y360395D01*
Y360437D01*
X228042D01*
Y360479D01*
Y360520D01*
Y360562D01*
X228083D01*
Y360604D01*
Y360645D01*
X228125D01*
Y360687D01*
Y360729D01*
X228167D01*
Y360770D01*
Y360812D01*
X228208D01*
Y360854D01*
Y360895D01*
Y360937D01*
X228250D01*
Y360979D01*
Y361020D01*
X228292D01*
Y361062D01*
Y361104D01*
X228333D01*
Y361145D01*
Y361187D01*
Y361229D01*
X228375D01*
Y361270D01*
Y361312D01*
X228417D01*
Y361354D01*
Y361395D01*
X228458D01*
Y361437D01*
Y361479D01*
Y361520D01*
X228500D01*
Y361562D01*
Y361604D01*
X228542D01*
Y361645D01*
Y361687D01*
Y361729D01*
X228583D01*
Y361770D01*
Y361812D01*
X228625D01*
Y361854D01*
Y361895D01*
Y361937D01*
X228667D01*
Y361979D01*
Y362020D01*
Y362062D01*
X228708D01*
Y362104D01*
Y362145D01*
X228750D01*
Y362187D01*
Y362229D01*
Y362270D01*
Y362312D01*
X228792D01*
Y362354D01*
Y362395D01*
Y362437D01*
X228833D01*
Y362479D01*
Y362520D01*
Y362562D01*
X228875D01*
Y362604D01*
Y362645D01*
Y362687D01*
X228917D01*
Y362729D01*
Y362770D01*
Y362812D01*
X228958D01*
Y362854D01*
Y362895D01*
Y362937D01*
Y362979D01*
X229000D01*
Y363020D01*
Y363062D01*
Y363104D01*
X229042D01*
Y363145D01*
Y363187D01*
Y363229D01*
X229083D01*
Y363270D01*
Y363312D01*
Y363354D01*
X229125D01*
Y363395D01*
Y363437D01*
Y363479D01*
Y363520D01*
X229167D01*
Y363562D01*
Y363604D01*
Y363645D01*
X229208D01*
Y363687D01*
Y363729D01*
Y363770D01*
X229250D01*
Y363812D01*
Y363854D01*
Y363895D01*
X229292D01*
Y363937D01*
Y363979D01*
Y364020D01*
X229333D01*
Y364062D01*
Y364104D01*
X229375D01*
Y364145D01*
Y364187D01*
X229417D01*
Y364229D01*
X229458D01*
Y364270D01*
X229500D01*
Y364312D01*
X229542D01*
Y364354D01*
X229583D01*
Y364395D01*
X229625D01*
Y364437D01*
X229708D01*
Y364479D01*
X229750D01*
Y364520D01*
X229791D01*
Y364479D01*
D02*
G37*
G36*
X232500Y349312D02*
Y349271D01*
X232458D01*
Y349229D01*
Y349187D01*
X232417D01*
Y349146D01*
Y349104D01*
X232375D01*
Y349062D01*
Y349021D01*
X232333D01*
Y348979D01*
Y348937D01*
X232292D01*
Y348896D01*
Y348854D01*
X232250D01*
Y348812D01*
Y348771D01*
X232208D01*
Y348729D01*
Y348687D01*
X232167D01*
Y348646D01*
Y348604D01*
Y348562D01*
X232125D01*
Y348521D01*
Y348479D01*
Y348437D01*
Y348396D01*
X232083D01*
Y348354D01*
Y348312D01*
Y348271D01*
X232042D01*
Y348229D01*
Y348187D01*
X232000D01*
Y348146D01*
Y348104D01*
Y348062D01*
Y348021D01*
X231958D01*
Y347979D01*
Y347937D01*
X231916D01*
Y347896D01*
Y347854D01*
X231875D01*
Y347812D01*
Y347771D01*
X231833D01*
Y347729D01*
X231791D01*
Y347687D01*
X231750D01*
Y347646D01*
Y347604D01*
X231708D01*
Y347562D01*
X231666D01*
Y347521D01*
X231625D01*
Y347479D01*
X231583D01*
Y347437D01*
Y347396D01*
X231541D01*
Y347354D01*
X231500D01*
Y347312D01*
X231458D01*
Y347271D01*
X231417D01*
Y347229D01*
X231375D01*
Y347187D01*
X231333D01*
Y347146D01*
X231292D01*
Y347104D01*
X231250D01*
Y347146D01*
Y347187D01*
X231292D01*
Y347229D01*
X231333D01*
Y347271D01*
Y347312D01*
X231375D01*
Y347354D01*
Y347396D01*
X231292D01*
Y347354D01*
X231250D01*
Y347312D01*
X231167D01*
Y347271D01*
X231125D01*
Y347229D01*
X231083D01*
Y347187D01*
X231042D01*
Y347146D01*
X231000D01*
Y347104D01*
X230917D01*
Y347062D01*
X230875D01*
Y347021D01*
X230833D01*
Y346979D01*
X230791D01*
Y346937D01*
X230750D01*
Y346896D01*
X230708D01*
Y346854D01*
X230666D01*
Y346813D01*
X230833D01*
Y346854D01*
X230917D01*
Y346896D01*
X231000D01*
Y346937D01*
X231083D01*
Y346896D01*
X231042D01*
Y346854D01*
X231000D01*
Y346813D01*
X230917D01*
Y346771D01*
X230875D01*
Y346729D01*
X230833D01*
Y346688D01*
X230791D01*
Y346646D01*
X230708D01*
Y346604D01*
X230666D01*
Y346563D01*
X230583D01*
Y346521D01*
X230541D01*
Y346479D01*
X230458D01*
Y346438D01*
X230375D01*
Y346396D01*
X230333D01*
Y346354D01*
X230250D01*
Y346312D01*
X230208D01*
Y346271D01*
X230125D01*
Y346229D01*
X230083D01*
Y346187D01*
X230042D01*
Y346146D01*
X229958D01*
Y346104D01*
X229917D01*
Y346062D01*
X229875D01*
Y346021D01*
X229833D01*
Y345979D01*
X229750D01*
Y345937D01*
X229708D01*
Y345896D01*
X229667D01*
Y345854D01*
X229583D01*
Y345813D01*
X229542D01*
Y345771D01*
X229458D01*
Y345729D01*
X229333D01*
Y345688D01*
X229208D01*
Y345646D01*
X229083D01*
Y345604D01*
X228917D01*
Y345563D01*
X228792D01*
Y345521D01*
X228667D01*
Y345479D01*
X228583D01*
Y345438D01*
X228500D01*
Y345396D01*
X228333D01*
Y345354D01*
X228208D01*
Y345396D01*
X228125D01*
Y345438D01*
X227750D01*
Y345479D01*
X227417D01*
Y345521D01*
X227375D01*
Y345563D01*
Y345604D01*
X227333D01*
Y345646D01*
X227292D01*
Y345688D01*
X227208D01*
Y345729D01*
X227125D01*
Y345771D01*
X227042D01*
Y345813D01*
X226958D01*
Y345854D01*
X226917D01*
Y345896D01*
X226833D01*
Y345937D01*
X226750D01*
Y345979D01*
X226708D01*
Y346021D01*
X226625D01*
Y346062D01*
X226583D01*
Y346104D01*
X226542D01*
Y346146D01*
X226500D01*
Y346187D01*
X226458D01*
Y346229D01*
X226417D01*
Y346271D01*
X226333D01*
Y346312D01*
X226292D01*
Y346354D01*
X226250D01*
Y346396D01*
X226208D01*
Y346438D01*
Y346479D01*
Y346521D01*
X226167D01*
Y346563D01*
Y346604D01*
X226125D01*
Y346646D01*
Y346688D01*
Y346729D01*
Y346771D01*
X226083D01*
Y346813D01*
Y346854D01*
Y346896D01*
X226042D01*
Y346937D01*
Y346979D01*
Y347021D01*
X226000D01*
Y347062D01*
Y347104D01*
Y347146D01*
X225958D01*
Y347187D01*
Y347229D01*
Y347271D01*
X225917D01*
Y347312D01*
Y347354D01*
Y347396D01*
X225875D01*
Y347437D01*
Y347479D01*
X225833D01*
Y347521D01*
Y347562D01*
Y347604D01*
X225792D01*
Y347646D01*
Y347687D01*
X225750D01*
Y347729D01*
X225708D01*
Y347771D01*
Y347812D01*
X225667D01*
Y347854D01*
Y347896D01*
Y347937D01*
X225625D01*
Y347979D01*
Y348021D01*
X225583D01*
Y348062D01*
Y348104D01*
X225542D01*
Y348146D01*
Y348187D01*
Y348229D01*
X225500D01*
Y348271D01*
Y348312D01*
X225458D01*
Y348354D01*
Y348396D01*
Y348437D01*
X225417D01*
Y348479D01*
Y348521D01*
X225458D01*
Y348562D01*
Y348604D01*
Y348646D01*
X225500D01*
Y348687D01*
X225542D01*
Y348729D01*
X225583D01*
Y348771D01*
X225625D01*
Y348812D01*
X225667D01*
Y348854D01*
X225708D01*
Y348896D01*
X225750D01*
Y348937D01*
X225833D01*
Y348979D01*
X225875D01*
Y349021D01*
X225958D01*
Y349062D01*
X226042D01*
Y349104D01*
X227375D01*
Y349146D01*
X230292D01*
Y349187D01*
X231625D01*
Y349229D01*
X231875D01*
Y349271D01*
X232000D01*
Y349312D01*
X232125D01*
Y349354D01*
X232167D01*
Y349312D01*
Y349271D01*
Y349229D01*
X232125D01*
Y349187D01*
Y349146D01*
X232208D01*
Y349187D01*
X232250D01*
Y349229D01*
X232333D01*
Y349271D01*
X232375D01*
Y349312D01*
X232417D01*
Y349354D01*
X232500D01*
Y349312D01*
D02*
G37*
G36*
X223458Y339563D02*
X223417D01*
Y339521D01*
X223375D01*
Y339479D01*
X223333D01*
Y339438D01*
X223292D01*
Y339396D01*
X223250D01*
Y339354D01*
X223167D01*
Y339396D01*
X223208D01*
Y339438D01*
X223250D01*
Y339479D01*
X223292D01*
Y339521D01*
X223333D01*
Y339563D01*
X223375D01*
Y339604D01*
X223458D01*
Y339563D01*
D02*
G37*
G36*
X222542Y339771D02*
X222500D01*
Y339729D01*
X222458D01*
Y339688D01*
X222417D01*
Y339646D01*
X222375D01*
Y339604D01*
X222333D01*
Y339563D01*
Y339521D01*
X222292D01*
Y339479D01*
X222250D01*
Y339438D01*
X222375D01*
Y339396D01*
X222333D01*
Y339354D01*
X222292D01*
Y339313D01*
X222250D01*
Y339271D01*
X222333D01*
Y339229D01*
X222292D01*
Y339188D01*
X222250D01*
Y339146D01*
X222208D01*
Y339104D01*
X222167D01*
Y339063D01*
X222125D01*
Y339021D01*
X222042D01*
Y338979D01*
X222000D01*
Y338938D01*
X221958D01*
Y338896D01*
X221875D01*
Y338854D01*
X221792D01*
Y338813D01*
X221750D01*
Y338771D01*
X221667D01*
Y338729D01*
X221625D01*
Y338688D01*
X221583D01*
Y338646D01*
X221542D01*
Y338604D01*
X221500D01*
Y338563D01*
X221417D01*
Y338521D01*
X221375D01*
Y338563D01*
Y338604D01*
X221417D01*
Y338646D01*
X221458D01*
Y338688D01*
X221292D01*
Y338646D01*
X221167D01*
Y338604D01*
X221042D01*
Y338563D01*
X220917D01*
Y338521D01*
X220792D01*
Y338479D01*
X220708D01*
Y338438D01*
X220584D01*
Y338396D01*
X220500D01*
Y338354D01*
X220417D01*
Y338313D01*
X220334D01*
Y338271D01*
X220292D01*
Y338229D01*
X220209D01*
Y338188D01*
X220167D01*
Y338146D01*
X220125D01*
Y338104D01*
X220042D01*
Y338146D01*
X220083D01*
Y338188D01*
Y338229D01*
Y338271D01*
X220042D01*
Y338229D01*
X219917D01*
Y338188D01*
X219833D01*
Y338146D01*
X219792D01*
Y338104D01*
X219708D01*
Y338063D01*
X219625D01*
Y338021D01*
X219542D01*
Y337979D01*
X219500D01*
Y337938D01*
X219417D01*
Y337896D01*
X219334D01*
Y337854D01*
X219250D01*
Y337813D01*
X219167D01*
Y337771D01*
X219042D01*
Y337729D01*
X218958D01*
Y337688D01*
X218875D01*
Y337646D01*
X218833D01*
Y337604D01*
X218750D01*
Y337563D01*
X218667D01*
Y337521D01*
X218583D01*
Y337563D01*
X218625D01*
Y337604D01*
X218667D01*
Y337646D01*
X218708D01*
Y337688D01*
X218750D01*
Y337729D01*
Y337771D01*
X218708D01*
Y337813D01*
X218750D01*
Y337854D01*
X218792D01*
Y337896D01*
X218833D01*
Y337938D01*
X218875D01*
Y337979D01*
X218917D01*
Y338021D01*
X218958D01*
Y338063D01*
X219000D01*
Y338104D01*
X219083D01*
Y338146D01*
X219125D01*
Y338188D01*
X219209D01*
Y338229D01*
X219375D01*
Y338271D01*
X219459D01*
Y338313D01*
X219542D01*
Y338354D01*
X219625D01*
Y338396D01*
X219667D01*
Y338438D01*
X219750D01*
Y338479D01*
X219833D01*
Y338521D01*
X219917D01*
Y338563D01*
X220000D01*
Y338604D01*
X220083D01*
Y338646D01*
X220209D01*
Y338688D01*
X220292D01*
Y338729D01*
X220375D01*
Y338771D01*
X220459D01*
Y338813D01*
X220542D01*
Y338854D01*
X220625D01*
Y338896D01*
X220708D01*
Y338938D01*
X220792D01*
Y338979D01*
X220875D01*
Y339021D01*
X221000D01*
Y339063D01*
X221083D01*
Y339104D01*
X221167D01*
Y339146D01*
X221250D01*
Y339188D01*
X221292D01*
Y339229D01*
X221375D01*
Y339271D01*
X221417D01*
Y339229D01*
Y339188D01*
X221500D01*
Y339229D01*
X221625D01*
Y339271D01*
X221750D01*
Y339313D01*
X221875D01*
Y339354D01*
X221958D01*
Y339396D01*
X222042D01*
Y339438D01*
X222083D01*
Y339479D01*
X222125D01*
Y339521D01*
X222208D01*
Y339563D01*
X222250D01*
Y339604D01*
X222292D01*
Y339646D01*
X222333D01*
Y339688D01*
X222375D01*
Y339729D01*
X222417D01*
Y339771D01*
X222458D01*
Y339813D01*
X222542D01*
Y339771D01*
D02*
G37*
G36*
X218625Y339229D02*
X218583D01*
Y339188D01*
X218500D01*
Y339229D01*
X218542D01*
Y339271D01*
X218625D01*
Y339229D01*
D02*
G37*
G36*
X218459Y339104D02*
X218417D01*
Y339063D01*
X218334D01*
Y339104D01*
X218375D01*
Y339146D01*
X218459D01*
Y339104D01*
D02*
G37*
G36*
X218292Y338979D02*
X218250D01*
Y338938D01*
X218167D01*
Y338979D01*
X218209D01*
Y339021D01*
X218292D01*
Y338979D01*
D02*
G37*
G36*
X218125Y338854D02*
X218084D01*
Y338813D01*
X218000D01*
Y338854D01*
X218042D01*
Y338896D01*
X218125D01*
Y338854D01*
D02*
G37*
G36*
X218000Y338771D02*
X217958D01*
Y338729D01*
X217917D01*
Y338688D01*
X217833D01*
Y338729D01*
X217875D01*
Y338771D01*
X217917D01*
Y338813D01*
X218000D01*
Y338771D01*
D02*
G37*
G36*
X217833Y338646D02*
X217792D01*
Y338604D01*
X217708D01*
Y338646D01*
X217750D01*
Y338688D01*
X217833D01*
Y338646D01*
D02*
G37*
G36*
X217667Y338521D02*
X217625D01*
Y338479D01*
X217542D01*
Y338521D01*
X217583D01*
Y338563D01*
X217667D01*
Y338521D01*
D02*
G37*
G36*
X217542Y338438D02*
X217500D01*
Y338396D01*
X217417D01*
Y338438D01*
X217459D01*
Y338479D01*
X217542D01*
Y338438D01*
D02*
G37*
G36*
X220042Y338063D02*
X220000D01*
Y338021D01*
X219917D01*
Y338063D01*
X219958D01*
Y338104D01*
X220042D01*
Y338063D01*
D02*
G37*
G36*
X221875Y337729D02*
X221833D01*
Y337688D01*
X221750D01*
Y337729D01*
X221792D01*
Y337771D01*
X221875D01*
Y337729D01*
D02*
G37*
G36*
X221708Y337604D02*
X221667D01*
Y337563D01*
X221583D01*
Y337604D01*
X221625D01*
Y337646D01*
X221708D01*
Y337604D01*
D02*
G37*
G36*
X218583Y337479D02*
X218542D01*
Y337438D01*
X218500D01*
Y337396D01*
X218417D01*
Y337438D01*
X218459D01*
Y337479D01*
X218500D01*
Y337521D01*
X218583D01*
Y337479D01*
D02*
G37*
G36*
X220584Y337063D02*
X220542D01*
Y337021D01*
X220459D01*
Y337063D01*
X220500D01*
Y337104D01*
X220584D01*
Y337063D01*
D02*
G37*
G36*
X216250Y335813D02*
X216209D01*
Y335771D01*
X216125D01*
Y335813D01*
X216167D01*
Y335854D01*
X216250D01*
Y335813D01*
D02*
G37*
G36*
X216125Y335729D02*
X216084D01*
Y335688D01*
X216042D01*
Y335646D01*
X216000D01*
Y335604D01*
X215917D01*
Y335563D01*
X215875D01*
Y335521D01*
X215834D01*
Y335479D01*
X215750D01*
Y335438D01*
X215709D01*
Y335396D01*
X215625D01*
Y335354D01*
X215542D01*
Y335396D01*
X215584D01*
Y335438D01*
X215625D01*
Y335479D01*
X215667D01*
Y335521D01*
X215750D01*
Y335563D01*
X215792D01*
Y335604D01*
X215834D01*
Y335646D01*
X215875D01*
Y335688D01*
X215959D01*
Y335729D01*
X216000D01*
Y335771D01*
X216125D01*
Y335729D01*
D02*
G37*
%LPC*%
G36*
X233167Y369937D02*
X232833D01*
Y369895D01*
X232791D01*
Y369853D01*
X232750D01*
Y369812D01*
Y369770D01*
X232708D01*
Y369728D01*
Y369687D01*
X232666D01*
Y369645D01*
Y369603D01*
X232625D01*
Y369562D01*
Y369520D01*
Y369479D01*
X232583D01*
Y369437D01*
Y369395D01*
Y369354D01*
Y369312D01*
Y369270D01*
Y369229D01*
Y369187D01*
X232625D01*
Y369145D01*
Y369104D01*
Y369062D01*
Y369020D01*
Y368979D01*
Y368937D01*
Y368895D01*
Y368853D01*
Y368812D01*
X232666D01*
Y368770D01*
Y368728D01*
Y368687D01*
Y368645D01*
Y368603D01*
X232708D01*
Y368562D01*
Y368520D01*
X232750D01*
Y368478D01*
Y368437D01*
Y368395D01*
X232791D01*
Y368354D01*
Y368312D01*
X232833D01*
Y368270D01*
X232875D01*
Y368229D01*
Y368187D01*
X232916D01*
Y368145D01*
X232958D01*
Y368104D01*
Y368062D01*
X233000D01*
Y368020D01*
X233042D01*
Y367979D01*
X233083D01*
Y367937D01*
X233125D01*
Y367895D01*
Y367854D01*
X233208D01*
Y367895D01*
X233250D01*
Y367937D01*
X233333D01*
Y367979D01*
X233375D01*
Y368020D01*
X233416D01*
Y368062D01*
X233458D01*
Y368104D01*
X233541D01*
Y368145D01*
X233625D01*
Y368104D01*
Y368062D01*
Y368020D01*
Y367979D01*
Y367937D01*
Y367895D01*
Y367854D01*
Y367812D01*
Y367770D01*
Y367729D01*
Y367687D01*
Y367645D01*
Y367604D01*
Y367562D01*
Y367520D01*
X234000D01*
Y367562D01*
X234083D01*
Y367604D01*
X234125D01*
Y367645D01*
X234208D01*
Y367687D01*
X234250D01*
Y367729D01*
X234291D01*
Y367770D01*
X234333D01*
Y367812D01*
X234375D01*
Y367854D01*
Y367895D01*
Y367937D01*
Y367979D01*
Y368020D01*
Y368062D01*
Y368104D01*
Y368145D01*
Y368187D01*
Y368229D01*
Y368270D01*
Y368312D01*
Y368354D01*
Y368395D01*
Y368437D01*
Y368478D01*
Y368520D01*
Y368562D01*
Y368603D01*
X234333D01*
Y368645D01*
Y368687D01*
Y368728D01*
X234291D01*
Y368770D01*
Y368812D01*
Y368853D01*
X234250D01*
Y368895D01*
Y368937D01*
X234208D01*
Y368979D01*
Y369020D01*
X234166D01*
Y369062D01*
Y369104D01*
X234125D01*
Y369145D01*
Y369187D01*
X234083D01*
Y369229D01*
X234041D01*
Y369270D01*
Y369312D01*
X234000D01*
Y369354D01*
X233958D01*
Y369395D01*
X233916D01*
Y369437D01*
X233875D01*
Y369479D01*
X233833D01*
Y369520D01*
X233791D01*
Y369562D01*
X233750D01*
Y369603D01*
X233708D01*
Y369645D01*
X233666D01*
Y369687D01*
X233625D01*
Y369728D01*
X233541D01*
Y369770D01*
X233500D01*
Y369812D01*
X233416D01*
Y369853D01*
X233333D01*
Y369895D01*
X233167D01*
Y369937D01*
D02*
G37*
G36*
X221458Y362854D02*
X221417D01*
Y362812D01*
X221375D01*
Y362770D01*
X221333D01*
Y362729D01*
Y362687D01*
X221292D01*
Y362645D01*
Y362604D01*
X221250D01*
Y362562D01*
Y362520D01*
Y362479D01*
Y362437D01*
Y362395D01*
Y362354D01*
X221208D01*
Y362312D01*
Y362270D01*
Y362229D01*
Y362187D01*
Y362145D01*
Y362104D01*
Y362062D01*
Y362020D01*
Y361979D01*
Y361937D01*
Y361895D01*
X221167D01*
Y361854D01*
Y361812D01*
Y361770D01*
Y361729D01*
Y361687D01*
Y361645D01*
Y361604D01*
Y361562D01*
Y361520D01*
Y361479D01*
Y361437D01*
Y361395D01*
Y361354D01*
Y361312D01*
Y361270D01*
Y361229D01*
X221208D01*
Y361270D01*
Y361312D01*
Y361354D01*
X221250D01*
Y361395D01*
Y361437D01*
Y361479D01*
Y361520D01*
X221292D01*
Y361562D01*
Y361604D01*
Y361645D01*
Y361687D01*
Y361729D01*
X221333D01*
Y361770D01*
Y361812D01*
Y361854D01*
Y361895D01*
X221375D01*
Y361937D01*
Y361979D01*
Y362020D01*
Y362062D01*
Y362104D01*
X221417D01*
Y362145D01*
Y362187D01*
Y362229D01*
Y362270D01*
Y362312D01*
X221458D01*
Y362354D01*
Y362395D01*
Y362437D01*
Y362479D01*
Y362520D01*
Y362562D01*
Y362604D01*
X221500D01*
Y362645D01*
Y362687D01*
Y362729D01*
X221458D01*
Y362770D01*
Y362812D01*
Y362854D01*
D02*
G37*
G36*
X241208Y354437D02*
X241125D01*
Y354396D01*
X241083D01*
Y354354D01*
X241041D01*
Y354312D01*
Y354271D01*
X241000D01*
Y354229D01*
X240958D01*
Y354187D01*
X240916D01*
Y354146D01*
Y354104D01*
X240875D01*
Y354062D01*
X240833D01*
Y354021D01*
Y353979D01*
X240791D01*
Y353937D01*
X240750D01*
Y353896D01*
X240708D01*
Y353854D01*
Y353812D01*
X240666D01*
Y353771D01*
X240625D01*
Y353729D01*
Y353687D01*
X240583D01*
Y353646D01*
X240541D01*
Y353604D01*
Y353562D01*
X240583D01*
Y353604D01*
X240625D01*
Y353646D01*
X240666D01*
Y353687D01*
X240708D01*
Y353729D01*
X240750D01*
Y353771D01*
X240791D01*
Y353812D01*
X240833D01*
Y353854D01*
X240875D01*
Y353896D01*
X240916D01*
Y353937D01*
X240958D01*
Y353979D01*
Y354021D01*
X241000D01*
Y354062D01*
X241041D01*
Y354104D01*
Y354146D01*
X241083D01*
Y354187D01*
Y354229D01*
X241125D01*
Y354271D01*
X241166D01*
Y354312D01*
Y354354D01*
Y354396D01*
X241208D01*
Y354437D01*
D02*
G37*
G36*
X235958Y344812D02*
X235875D01*
Y344771D01*
X235833D01*
Y344729D01*
Y344688D01*
X235791D01*
Y344646D01*
Y344604D01*
X235750D01*
Y344563D01*
Y344521D01*
Y344479D01*
X235833D01*
Y344521D01*
X235875D01*
Y344563D01*
Y344604D01*
X235916D01*
Y344646D01*
Y344688D01*
Y344729D01*
X235958D01*
Y344771D01*
Y344812D01*
D02*
G37*
G36*
X235583Y343896D02*
X235500D01*
Y343854D01*
Y343813D01*
Y343771D01*
X235583D01*
Y343813D01*
Y343854D01*
Y343896D01*
D02*
G37*
G36*
X234916Y343271D02*
X234541D01*
Y343229D01*
X234416D01*
Y343188D01*
X234291D01*
Y343146D01*
X234166D01*
Y343104D01*
X234041D01*
Y343063D01*
X233958D01*
Y343021D01*
X234000D01*
Y342979D01*
X234416D01*
Y343021D01*
X234541D01*
Y343063D01*
X234708D01*
Y343104D01*
X234833D01*
Y343146D01*
X234916D01*
Y343188D01*
Y343229D01*
Y343271D01*
D02*
G37*
G36*
X225458Y342438D02*
X224833D01*
Y342396D01*
X224125D01*
Y342354D01*
X223833D01*
Y342313D01*
X223750D01*
Y342271D01*
X223667D01*
Y342229D01*
X223625D01*
Y342188D01*
X223542D01*
Y342146D01*
X223458D01*
Y342104D01*
X223417D01*
Y342063D01*
X223333D01*
Y342021D01*
X223250D01*
Y341979D01*
X223167D01*
Y341938D01*
X223083D01*
Y341896D01*
X223000D01*
Y341854D01*
X222875D01*
Y341813D01*
X222792D01*
Y341771D01*
X222708D01*
Y341729D01*
X222625D01*
Y341688D01*
X222500D01*
Y341646D01*
X222417D01*
Y341604D01*
X222292D01*
Y341563D01*
X222208D01*
Y341521D01*
X222083D01*
Y341479D01*
X221958D01*
Y341438D01*
X221833D01*
Y341396D01*
X221750D01*
Y341354D01*
X221625D01*
Y341313D01*
X221542D01*
Y341271D01*
X221458D01*
Y341229D01*
X221375D01*
Y341188D01*
X221292D01*
Y341146D01*
X221208D01*
Y341104D01*
X221125D01*
Y341063D01*
X221083D01*
Y341021D01*
X221000D01*
Y340979D01*
X220958D01*
Y340938D01*
X220917D01*
Y340896D01*
X220875D01*
Y340854D01*
X220833D01*
Y340813D01*
X220792D01*
Y340771D01*
X220750D01*
Y340729D01*
X220708D01*
Y340688D01*
X220667D01*
Y340646D01*
X220625D01*
Y340604D01*
X220584D01*
Y340563D01*
X220542D01*
Y340521D01*
X220500D01*
Y340479D01*
Y340438D01*
X220459D01*
Y340396D01*
X220417D01*
Y340354D01*
X220375D01*
Y340313D01*
Y340271D01*
Y340229D01*
X220459D01*
Y340271D01*
X220500D01*
Y340313D01*
X220584D01*
Y340354D01*
X220625D01*
Y340396D01*
X220708D01*
Y340438D01*
X220750D01*
Y340479D01*
X220833D01*
Y340521D01*
X220917D01*
Y340563D01*
X221000D01*
Y340604D01*
X221083D01*
Y340646D01*
X221167D01*
Y340688D01*
X221292D01*
Y340729D01*
X221375D01*
Y340771D01*
X221500D01*
Y340813D01*
X221625D01*
Y340854D01*
X221708D01*
Y340896D01*
X221833D01*
Y340938D01*
X221917D01*
Y340979D01*
X222000D01*
Y341021D01*
X222042D01*
Y341063D01*
X222125D01*
Y341104D01*
X222208D01*
Y341146D01*
X222250D01*
Y341188D01*
X222333D01*
Y341229D01*
X222375D01*
Y341271D01*
X222417D01*
Y341229D01*
X222500D01*
Y341271D01*
X222625D01*
Y341313D01*
X222708D01*
Y341354D01*
X222792D01*
Y341396D01*
X222875D01*
Y341438D01*
X222958D01*
Y341479D01*
X223042D01*
Y341521D01*
X223125D01*
Y341563D01*
X223208D01*
Y341604D01*
X223292D01*
Y341646D01*
X223375D01*
Y341688D01*
X223417D01*
Y341729D01*
X223500D01*
Y341688D01*
X223458D01*
Y341646D01*
X223417D01*
Y341604D01*
X223375D01*
Y341563D01*
X223333D01*
Y341521D01*
X223292D01*
Y341479D01*
X223250D01*
Y341438D01*
X223167D01*
Y341396D01*
X223125D01*
Y341354D01*
X223042D01*
Y341313D01*
X222917D01*
Y341271D01*
X222833D01*
Y341229D01*
X222792D01*
Y341188D01*
X222708D01*
Y341146D01*
X222625D01*
Y341104D01*
X222542D01*
Y341063D01*
X222500D01*
Y341021D01*
X222417D01*
Y340979D01*
Y340938D01*
X222583D01*
Y340979D01*
X222792D01*
Y341021D01*
X223000D01*
Y341063D01*
X223208D01*
Y341104D01*
X223417D01*
Y341146D01*
X223625D01*
Y341188D01*
X223833D01*
Y341229D01*
X224042D01*
Y341271D01*
X224125D01*
Y341313D01*
X224167D01*
Y341354D01*
X224250D01*
Y341313D01*
Y341271D01*
X224333D01*
Y341313D01*
X224500D01*
Y341354D01*
X224583D01*
Y341396D01*
X224625D01*
Y341438D01*
X224667D01*
Y341479D01*
X224708D01*
Y341521D01*
Y341563D01*
X224750D01*
Y341604D01*
X224792D01*
Y341646D01*
X224833D01*
Y341688D01*
X224875D01*
Y341729D01*
X224917D01*
Y341771D01*
Y341813D01*
X224958D01*
Y341854D01*
X225000D01*
Y341896D01*
X225042D01*
Y341938D01*
Y341979D01*
X225000D01*
Y342021D01*
X225042D01*
Y342063D01*
X225083D01*
Y342104D01*
X225125D01*
Y342146D01*
X225167D01*
Y342104D01*
X225208D01*
Y342146D01*
X225250D01*
Y342188D01*
X225292D01*
Y342229D01*
X225333D01*
Y342271D01*
X225375D01*
Y342313D01*
X225417D01*
Y342354D01*
Y342396D01*
X225458D01*
Y342438D01*
D02*
G37*
G36*
X222542Y342771D02*
X222000D01*
Y342729D01*
X221958D01*
Y342688D01*
X221917D01*
Y342646D01*
X221875D01*
Y342604D01*
Y342563D01*
X221833D01*
Y342521D01*
Y342479D01*
X221792D01*
Y342438D01*
X221750D01*
Y342396D01*
Y342354D01*
X221708D01*
Y342313D01*
Y342271D01*
X221667D01*
Y342229D01*
X221625D01*
Y342188D01*
Y342146D01*
X221583D01*
Y342104D01*
Y342063D01*
X221542D01*
Y342021D01*
X221500D01*
Y341979D01*
Y341938D01*
X221458D01*
Y341896D01*
Y341854D01*
X221417D01*
Y341813D01*
X221375D01*
Y341771D01*
Y341729D01*
X221333D01*
Y341688D01*
Y341646D01*
X221292D01*
Y341604D01*
X221375D01*
Y341646D01*
X221458D01*
Y341688D01*
X221500D01*
Y341729D01*
X221542D01*
Y341771D01*
X221583D01*
Y341729D01*
Y341688D01*
X221542D01*
Y341646D01*
Y341604D01*
X221625D01*
Y341646D01*
X221750D01*
Y341688D01*
X221833D01*
Y341729D01*
X221958D01*
Y341771D01*
X222042D01*
Y341813D01*
X222167D01*
Y341854D01*
X222250D01*
Y341896D01*
X222375D01*
Y341938D01*
X222458D01*
Y341979D01*
X222542D01*
Y342021D01*
X222667D01*
Y342063D01*
X222750D01*
Y342104D01*
X222833D01*
Y342146D01*
X222958D01*
Y342188D01*
X223083D01*
Y342229D01*
X223208D01*
Y342271D01*
X223250D01*
Y342313D01*
X222167D01*
Y342354D01*
X222208D01*
Y342396D01*
X222250D01*
Y342438D01*
X222292D01*
Y342479D01*
X222333D01*
Y342521D01*
X222375D01*
Y342563D01*
X222417D01*
Y342604D01*
X222458D01*
Y342646D01*
X222500D01*
Y342688D01*
X222542D01*
Y342729D01*
Y342771D01*
D02*
G37*
G36*
X225708Y342479D02*
X225625D01*
Y342438D01*
X225583D01*
Y342396D01*
X225542D01*
Y342354D01*
X225500D01*
Y342313D01*
X225458D01*
Y342271D01*
X225417D01*
Y342229D01*
Y342188D01*
X225375D01*
Y342146D01*
X225333D01*
Y342104D01*
X225292D01*
Y342063D01*
X225250D01*
Y342021D01*
X225208D01*
Y341979D01*
Y341938D01*
X225167D01*
Y341896D01*
X225125D01*
Y341854D01*
X225083D01*
Y341813D01*
X225042D01*
Y341771D01*
X225000D01*
Y341729D01*
Y341688D01*
X224958D01*
Y341646D01*
X224917D01*
Y341604D01*
X224875D01*
Y341563D01*
X224833D01*
Y341521D01*
Y341479D01*
X224792D01*
Y341438D01*
X224875D01*
Y341479D01*
X224917D01*
Y341521D01*
X225000D01*
Y341479D01*
X225083D01*
Y341521D01*
Y341563D01*
X225125D01*
Y341604D01*
X225167D01*
Y341646D01*
Y341688D01*
X225208D01*
Y341729D01*
Y341771D01*
X225250D01*
Y341813D01*
Y341854D01*
X225292D01*
Y341896D01*
X225333D01*
Y341938D01*
Y341979D01*
X225375D01*
Y342021D01*
X225417D01*
Y342063D01*
X225458D01*
Y342104D01*
Y342146D01*
X225500D01*
Y342188D01*
X225542D01*
Y342229D01*
X225583D01*
Y342271D01*
X225625D01*
Y342313D01*
X225667D01*
Y342354D01*
X225708D01*
Y342396D01*
Y342438D01*
Y342479D01*
D02*
G37*
G36*
X219958Y340438D02*
X219875D01*
Y340396D01*
X219833D01*
Y340354D01*
X219792D01*
Y340313D01*
X219750D01*
Y340271D01*
X219708D01*
Y340229D01*
X219667D01*
Y340188D01*
Y340146D01*
X219750D01*
Y340188D01*
X219792D01*
Y340229D01*
X219833D01*
Y340271D01*
X219875D01*
Y340313D01*
X219917D01*
Y340354D01*
Y340396D01*
X219958D01*
Y340438D01*
D02*
G37*
G36*
X222667Y340646D02*
X222583D01*
Y340604D01*
X222375D01*
Y340563D01*
X222167D01*
Y340521D01*
X222000D01*
Y340479D01*
X221833D01*
Y340438D01*
X221667D01*
Y340396D01*
X221500D01*
Y340354D01*
X221333D01*
Y340313D01*
X221208D01*
Y340271D01*
X221083D01*
Y340229D01*
X221000D01*
Y340188D01*
X220917D01*
Y340146D01*
X220833D01*
Y340104D01*
X220792D01*
Y340063D01*
X220708D01*
Y340021D01*
X220625D01*
Y339979D01*
X220584D01*
Y339938D01*
Y339896D01*
X220542D01*
Y339854D01*
X220500D01*
Y339813D01*
X220459D01*
Y339771D01*
Y339729D01*
X220417D01*
Y339688D01*
X220375D01*
Y339646D01*
X220334D01*
Y339604D01*
X220292D01*
Y339563D01*
X220250D01*
Y339521D01*
X220209D01*
Y339479D01*
X220334D01*
Y339521D01*
X220417D01*
Y339563D01*
X220542D01*
Y339604D01*
X220625D01*
Y339646D01*
X220750D01*
Y339688D01*
X220875D01*
Y339729D01*
X220958D01*
Y339771D01*
X221083D01*
Y339813D01*
X221208D01*
Y339854D01*
X221375D01*
Y339896D01*
X221500D01*
Y339938D01*
X221667D01*
Y339979D01*
X221875D01*
Y340021D01*
X222125D01*
Y340063D01*
X222208D01*
Y340104D01*
X222250D01*
Y340146D01*
X222292D01*
Y340188D01*
Y340229D01*
X222333D01*
Y340271D01*
X222375D01*
Y340313D01*
X222417D01*
Y340354D01*
X222458D01*
Y340396D01*
X222500D01*
Y340438D01*
Y340479D01*
X222583D01*
Y340521D01*
X222625D01*
Y340563D01*
X222667D01*
Y340604D01*
Y340646D01*
D02*
G37*
G36*
X220292Y340771D02*
X220209D01*
Y340729D01*
X220167D01*
Y340688D01*
X220125D01*
Y340646D01*
Y340604D01*
X220209D01*
Y340563D01*
X220167D01*
Y340521D01*
X220125D01*
Y340479D01*
X220083D01*
Y340438D01*
X220042D01*
Y340396D01*
Y340354D01*
X220000D01*
Y340313D01*
X219958D01*
Y340271D01*
X219917D01*
Y340229D01*
X219875D01*
Y340188D01*
X219833D01*
Y340146D01*
Y340104D01*
X219792D01*
Y340063D01*
X219750D01*
Y340021D01*
X219708D01*
Y339979D01*
X219667D01*
Y339938D01*
Y339896D01*
X219625D01*
Y339854D01*
X219584D01*
Y339813D01*
X219542D01*
Y339771D01*
Y339729D01*
X219500D01*
Y339688D01*
X219459D01*
Y339646D01*
X219417D01*
Y339604D01*
X219375D01*
Y339563D01*
Y339521D01*
X219334D01*
Y339479D01*
X219292D01*
Y339438D01*
X219250D01*
Y339396D01*
Y339354D01*
X219209D01*
Y339313D01*
X219167D01*
Y339271D01*
Y339229D01*
X219125D01*
Y339188D01*
X219083D01*
Y339146D01*
Y339104D01*
X219042D01*
Y339063D01*
X219000D01*
Y339021D01*
Y338979D01*
X219083D01*
Y339021D01*
X219125D01*
Y339063D01*
X219167D01*
Y339104D01*
X219209D01*
Y339146D01*
X219250D01*
Y339188D01*
Y339229D01*
X219292D01*
Y339271D01*
X219334D01*
Y339313D01*
X219375D01*
Y339354D01*
X219417D01*
Y339396D01*
X219459D01*
Y339438D01*
X219500D01*
Y339479D01*
X219542D01*
Y339521D01*
X219584D01*
Y339563D01*
Y339604D01*
X219625D01*
Y339646D01*
X219667D01*
Y339688D01*
X219708D01*
Y339729D01*
X219750D01*
Y339771D01*
Y339813D01*
X219792D01*
Y339854D01*
X219833D01*
Y339896D01*
X219875D01*
Y339938D01*
X219917D01*
Y339979D01*
Y340021D01*
X219958D01*
Y340063D01*
X220000D01*
Y340104D01*
X220042D01*
Y340146D01*
Y340188D01*
X220083D01*
Y340229D01*
X220125D01*
Y340271D01*
Y340313D01*
X220167D01*
Y340354D01*
X220209D01*
Y340396D01*
Y340438D01*
X220250D01*
Y340479D01*
X220292D01*
Y340521D01*
Y340563D01*
X220334D01*
Y340604D01*
Y340646D01*
X220375D01*
Y340688D01*
Y340729D01*
X220334D01*
Y340688D01*
X220292D01*
Y340729D01*
Y340771D01*
D02*
G37*
G36*
X231666Y348896D02*
X231541D01*
Y348854D01*
X231458D01*
Y348812D01*
X231292D01*
Y348771D01*
X230958D01*
Y348729D01*
X229583D01*
Y348687D01*
X227583D01*
Y348646D01*
X226083D01*
Y348604D01*
Y348562D01*
Y348521D01*
Y348479D01*
X226125D01*
Y348437D01*
Y348396D01*
X226167D01*
Y348354D01*
Y348312D01*
X226208D01*
Y348271D01*
Y348229D01*
X226250D01*
Y348187D01*
Y348146D01*
X226292D01*
Y348104D01*
Y348062D01*
X226333D01*
Y348021D01*
Y347979D01*
X226375D01*
Y347937D01*
Y347896D01*
Y347854D01*
X226417D01*
Y347812D01*
Y347771D01*
X226458D01*
Y347729D01*
Y347687D01*
Y347646D01*
X226500D01*
Y347604D01*
Y347562D01*
Y347521D01*
X226542D01*
Y347479D01*
Y347437D01*
Y347396D01*
X226583D01*
Y347354D01*
Y347312D01*
Y347271D01*
X226625D01*
Y347229D01*
Y347187D01*
Y347146D01*
Y347104D01*
X226667D01*
Y347062D01*
Y347021D01*
Y346979D01*
X226708D01*
Y346937D01*
X226833D01*
Y346896D01*
Y346854D01*
Y346813D01*
X226875D01*
Y346771D01*
Y346729D01*
X226917D01*
Y346688D01*
X226958D01*
Y346646D01*
X227000D01*
Y346604D01*
X227042D01*
Y346563D01*
X227083D01*
Y346521D01*
X227125D01*
Y346479D01*
X227208D01*
Y346438D01*
X227250D01*
Y346396D01*
X227333D01*
Y346354D01*
X227375D01*
Y346312D01*
X227458D01*
Y346271D01*
X227583D01*
Y346229D01*
X227667D01*
Y346187D01*
X227708D01*
Y346146D01*
X227792D01*
Y346104D01*
X227875D01*
Y346062D01*
X228000D01*
Y346021D01*
X228042D01*
Y345979D01*
X228125D01*
Y345937D01*
X228250D01*
Y345896D01*
X228583D01*
Y345937D01*
X228917D01*
Y345979D01*
X229042D01*
Y346021D01*
X229125D01*
Y346062D01*
X229250D01*
Y346104D01*
X229292D01*
Y346146D01*
X229375D01*
Y346187D01*
X229458D01*
Y346229D01*
X229542D01*
Y346271D01*
X229583D01*
Y346312D01*
X229625D01*
Y346354D01*
X229708D01*
Y346396D01*
X229750D01*
Y346438D01*
X229791D01*
Y346479D01*
X229833D01*
Y346521D01*
X229875D01*
Y346563D01*
X229917D01*
Y346604D01*
X229958D01*
Y346646D01*
X230000D01*
Y346688D01*
X230042D01*
Y346729D01*
X230125D01*
Y346771D01*
X230167D01*
Y346813D01*
X230208D01*
Y346854D01*
X230250D01*
Y346896D01*
X230292D01*
Y346937D01*
X230333D01*
Y346979D01*
X230375D01*
Y347021D01*
X230416D01*
Y347062D01*
X230458D01*
Y347021D01*
Y346979D01*
X230416D01*
Y346937D01*
Y346896D01*
X230500D01*
Y346937D01*
X230541D01*
Y346979D01*
X230583D01*
Y347021D01*
X230625D01*
Y347062D01*
X230666D01*
Y347104D01*
Y347146D01*
X230708D01*
Y347187D01*
X230750D01*
Y347229D01*
Y347271D01*
X230791D01*
Y347312D01*
Y347354D01*
Y347396D01*
X230833D01*
Y347437D01*
X230875D01*
Y347479D01*
X230917D01*
Y347521D01*
Y347562D01*
X230958D01*
Y347604D01*
Y347646D01*
X231000D01*
Y347687D01*
X231042D01*
Y347729D01*
Y347771D01*
X231083D01*
Y347812D01*
Y347854D01*
X231125D01*
Y347896D01*
Y347937D01*
X231167D01*
Y347979D01*
Y348021D01*
X231208D01*
Y348062D01*
Y348104D01*
X231250D01*
Y348146D01*
Y348187D01*
X231292D01*
Y348229D01*
X231333D01*
Y348271D01*
Y348312D01*
X231375D01*
Y348354D01*
Y348396D01*
X231417D01*
Y348437D01*
X231458D01*
Y348479D01*
Y348521D01*
X231500D01*
Y348562D01*
X231541D01*
Y348604D01*
X231583D01*
Y348646D01*
Y348687D01*
X231625D01*
Y348729D01*
Y348771D01*
X231666D01*
Y348812D01*
Y348854D01*
Y348896D01*
D02*
G37*
%LPD*%
D17*
X243957Y315000D02*
D03*
Y310000D02*
D03*
Y320000D02*
D03*
Y300000D02*
D03*
Y305000D02*
D03*
Y295000D02*
D03*
Y290000D02*
D03*
Y285000D02*
D03*
X222500Y320000D02*
D03*
Y310000D02*
D03*
Y315000D02*
D03*
Y300000D02*
D03*
Y305000D02*
D03*
Y290000D02*
D03*
Y295000D02*
D03*
Y285000D02*
D03*
X243728Y264000D02*
D03*
Y259000D02*
D03*
Y254000D02*
D03*
Y249000D02*
D03*
X222272D02*
D03*
Y264000D02*
D03*
Y259000D02*
D03*
Y254000D02*
D03*
D18*
X312445Y237500D02*
D03*
X305555D02*
D03*
D19*
X164453Y355587D02*
D03*
Y250075D02*
D03*
X267453Y356409D02*
D03*
Y250898D02*
D03*
D20*
X186500Y255193D02*
D03*
Y263854D02*
D03*
Y272516D02*
D03*
Y281177D02*
D03*
Y289839D02*
D03*
Y298500D02*
D03*
Y307161D02*
D03*
Y315823D02*
D03*
Y324484D02*
D03*
Y333146D02*
D03*
Y341807D02*
D03*
Y350468D02*
D03*
X198311Y255193D02*
D03*
D03*
Y263854D02*
D03*
Y272516D02*
D03*
Y281177D02*
D03*
Y289839D02*
D03*
Y298500D02*
D03*
Y307161D02*
D03*
Y315823D02*
D03*
Y324484D02*
D03*
Y333146D02*
D03*
Y341807D02*
D03*
Y350468D02*
D03*
X301311Y256016D02*
D03*
Y264677D02*
D03*
Y273339D02*
D03*
Y282000D02*
D03*
Y290661D02*
D03*
Y299323D02*
D03*
Y307984D02*
D03*
Y316646D02*
D03*
Y325307D02*
D03*
Y333968D02*
D03*
Y342630D02*
D03*
Y351291D02*
D03*
D03*
X289500Y256016D02*
D03*
Y264677D02*
D03*
Y273339D02*
D03*
Y282000D02*
D03*
Y290661D02*
D03*
Y299323D02*
D03*
Y307984D02*
D03*
Y316646D02*
D03*
Y325307D02*
D03*
Y333968D02*
D03*
Y342630D02*
D03*
Y351291D02*
D03*
D21*
X284500Y224500D02*
D03*
X207000Y225000D02*
D03*
X187000D02*
D03*
X227000D02*
D03*
X167000D02*
D03*
D22*
X304500Y224500D02*
D03*
X247000Y225000D02*
D03*
D23*
X216300Y305000D02*
D03*
X267750Y220550D02*
D03*
X203400Y365400D02*
D03*
X201300Y237200D02*
D03*
X209400Y344253D02*
D03*
X238300Y295300D02*
D03*
X204900Y299900D02*
D03*
X237600Y311200D02*
D03*
X212200Y334200D02*
D03*
X265800Y301700D02*
D03*
X260900Y293600D02*
D03*
X292400Y239200D02*
D03*
X254300Y292700D02*
D03*
X250300Y301700D02*
D03*
X259800Y303800D02*
D03*
X283000Y292900D02*
D03*
X193800Y241200D02*
D03*
X214800Y242100D02*
D03*
X231600Y277100D02*
D03*
X261300Y270800D02*
D03*
X275700Y285800D02*
D03*
M02*
