M48
;Layer_Color=9474304
;FILE_FORMAT=2:5
INCH,LZ
;TYPE=PLATED
T1F00S00C0.00800
T2F00S00C0.02800
T3F00S00C0.04331
T4F00S00C0.06112
;TYPE=NON_PLATED
T5F00S00C0.13780
%
T01
X03125Y0225
X03175
X0315Y023
X03175Y0235
Y0245
X03125
X0315Y025
X03175Y0255
X03125
X0315Y026
X03175Y0265
X03125
X0315Y027
X03175Y0275
X03125
X0315Y028
X03175Y0285
X03125
X0315Y029
X03175Y0295
X03125
X0315Y03
X03175Y0305
X03125
X0315Y031
X03075Y0305
X02975
X0295Y031
Y03
X02925Y0295
X02875
X028Y029
X0275
X027
X02675Y0295
X027Y03
X0275
X02775Y0305
X02725
X0275Y031
X027
X0265
X026
X0285
X0275Y028
X02675Y0285
X02625
Y0275
X02675
X0245Y027
X0235
X023
X02325Y0265
X02275
X023Y026
X0235
X02375Y0255
X02325
X02275
Y0275
Y0285
Y0295
X022Y027
X02025Y0275
Y0285
Y0305
X0205Y031
X01925Y0305
Y0295
X01825
X01775
X01725
X01675
X01625
X01575
X016Y03
X0165
X017
X0175
X018
X01775Y0305
X01725
X01675
X01625
X01575
X016Y031
X0165
X017
X0175
Y029
X018
X01825Y0285
X01775
X01725
X01675
X01625
X01575
X016Y029
X0165
X017
Y028
X0175
X018
X01825Y0275
X01775
X01725
X01675
X01625
X01575
X016Y028
X0165
Y027
X017
X0175
X018
X01775Y0265
X01725
X01675
X01625
X01575
X016Y027
Y026
X0165
X017
X0175
X01775Y0255
X01725
X0175Y025
X01775Y0245
X01725
X0175Y024
X018
X0185
X01875Y0235
X01925
X01975
X0195Y023
Y022
X02
X0215
X022
X02175Y0225
X0215Y023
X0235
X02375Y0225
X0235Y022
X0255
X026
X02575Y0225
X0255Y023
X0275Y022
X0295
X02925Y0225
X01775
X018Y023
X01825Y0235
X01775
X01725
X01675
X01625
X01575
X016Y024
X0165
X017
X01575Y0245
Y0255
X016Y023
X01575Y0225
X016Y022
X0175
X018
X0155Y023
Y024
Y025
Y026
Y027
Y028
Y029
Y03
Y031
Y032
Y033
Y034
Y035
Y036
X01575Y0365
X01625
X01675
X01725
X01775
X018Y037
X0175
X017
X0165
X016
X0175Y036
X01775Y0355
X0175Y035
X01775Y0345
X01725
X01675
X01625
X01575
X016Y034
X0165
X017
X0175
X01775Y0335
X01725
X01675
X01625
X01575
X016Y033
X0165
X017
X0175
X01775Y0325
X01725
X01675
X01625
X01575
X016Y032
X0165
X017
X0175
X01775Y0315
X01725
X01675
X01625
X01575
X0195Y032
X0205
X021Y034
X02225Y0335
X02325
X0235Y034
X024
X02425Y0345
X0245Y035
X025
X02525Y0325
X02575
X02625
X02675
X027Y033
X0265
X02725Y0335
X02775
X028Y034
X0275
X02775Y0345
X02825
X0285Y035
Y033
X028
X02825Y0315
X02775
X02675
X02625
X02575
X02525
X02475Y0325
X02425
X02275Y0315
X023Y034
X02175Y0355
X02125
X01875Y0365
X029Y037
X0295
X03
X0305
X031
X03075Y0365
X031Y036
Y035
X03075Y0345
X031Y034
X03075Y0335
X031Y033
X0305
X03075Y0325
X031Y032
X0305
X03075Y0315
X0295Y032
X0315
X03175Y0325
X03125
X0315Y033
X03175Y0335
X03125
X0315Y034
X03175Y0345
X03125
X0315Y035
X03175Y0355
X03125
X0315Y036
X03175Y0365
X03125
X0315Y037
X03175Y0315
X03125
T02
X01938Y02412
X02013Y02372
X02148Y02421
X02316Y02771
X02383Y02953
X02376Y03112
X02503Y03017
X02598Y03038
X02658Y03017
X02609Y02936
X02543Y02927
X02757Y02858
X0283Y02929
X02613Y02708
X026775Y022055
X02924Y02392
X02163Y0305
X02049Y02999
X02122Y03342
X02094Y0344253
X02034Y03654
T03
X01865Y0255193
Y0263854
Y0272516
Y0281177
Y0289839
Y02985
Y0307161
X0198311
Y02985
Y0289839
Y0281177
Y0272516
Y0263854
Y0255193
X02895Y0256016
Y0264677
Y0273339
Y0282
Y0290661
Y0299323
Y0307984
X0301311
Y0299323
Y0290661
Y0282
Y0273339
Y0264677
Y0256016
Y0316646
Y0325307
Y0333968
Y034263
Y0351291
X02895
Y034263
Y0333968
Y0325307
Y0316646
X0198311Y0315823
Y0324484
Y0333146
Y0341807
Y0350468
X01865
Y0341807
Y0333146
Y0324484
Y0315823
T04
X0167Y0225
X0187
X0207
X0227
X0247
X02845Y02245
X03045
T05
X0164453Y0250075
X0267453Y0250898
Y0356409
X0164453Y0355587
M30
