G04*
G04 #@! TF.GenerationSoftware,Altium Limited,Altium Designer,20.0.2 (26)*
G04*
G04 Layer_Color=32896*
%FSLAX25Y25*%
%MOIN*%
G70*
G01*
G75*
%ADD12C,0.01000*%
%ADD29C,0.01500*%
D12*
X222498Y294999D02*
Y292999D01*
Y293999D01*
X217500D01*
X216500Y292999D01*
Y292000D01*
X217500Y291000D01*
X216500Y300997D02*
Y296998D01*
X220499Y300997D01*
X221498D01*
X222498Y299997D01*
Y297998D01*
X221498Y296998D01*
D29*
X302000Y365000D02*
X300001D01*
X301000D01*
Y368999D01*
X302000D01*
X293003D02*
X296002D01*
X297002Y367999D01*
Y366000D01*
X296002Y365000D01*
X293003D01*
X288004D02*
X290004D01*
X291004Y366000D01*
Y367999D01*
X290004Y368999D01*
X288004D01*
X287005Y367999D01*
Y366999D01*
X291004D01*
X281007Y368999D02*
X284006D01*
X285005Y367999D01*
Y366000D01*
X284006Y365000D01*
X281007D01*
X279007Y368999D02*
Y366000D01*
X278008Y365000D01*
X275009D01*
Y368999D01*
X273009Y370998D02*
Y365000D01*
X270010D01*
X269011Y366000D01*
Y366999D01*
Y367999D01*
X270010Y368999D01*
X273009D01*
X264012Y365000D02*
X266012D01*
X267011Y366000D01*
Y367999D01*
X266012Y368999D01*
X264012D01*
X263013Y367999D01*
Y366999D01*
X267011D01*
X258014Y365000D02*
Y370998D01*
X261013Y367999D01*
X257015D01*
X251016Y370998D02*
X255015D01*
Y367999D01*
X253016Y368999D01*
X252016D01*
X251016Y367999D01*
Y366000D01*
X252016Y365000D01*
X254015D01*
X255015Y366000D01*
M02*
