G04*
G04 #@! TF.GenerationSoftware,Altium Limited,Altium Designer,20.0.2 (26)*
G04*
G04 Layer_Physical_Order=2*
G04 Layer_Color=16711680*
%FSLAX25Y25*%
%MOIN*%
G70*
G01*
G75*
%ADD12C,0.01000*%
%ADD24C,0.06000*%
%ADD25C,0.12224*%
%ADD26R,0.12224X0.12224*%
%ADD27C,0.05000*%
%ADD28C,0.01100*%
G36*
X289682Y355755D02*
X289415Y355315D01*
X288456Y355188D01*
X287483Y354785D01*
X286647Y354144D01*
X286006Y353309D01*
X285603Y352335D01*
X285531Y351791D01*
X289500D01*
Y351291D01*
X290000D01*
Y347323D01*
X290544Y347394D01*
X291517Y347797D01*
X291971Y348145D01*
X292471Y347899D01*
Y346023D01*
X291971Y345776D01*
X291517Y346124D01*
X290544Y346527D01*
X289500Y346664D01*
X288456Y346527D01*
X287483Y346124D01*
X286647Y345483D01*
X286006Y344647D01*
X285804Y344159D01*
X265104D01*
X248781Y360481D01*
X248285Y360813D01*
X247700Y360929D01*
X209746D01*
X209554Y361391D01*
X212134Y363971D01*
X263801D01*
X263926Y363471D01*
X263048Y363001D01*
X261847Y362015D01*
X260861Y360814D01*
X260128Y359443D01*
X259677Y357956D01*
X259525Y356409D01*
X259677Y354863D01*
X260128Y353376D01*
X260861Y352005D01*
X261847Y350803D01*
X263048Y349818D01*
X264419Y349085D01*
X265906Y348634D01*
X267453Y348481D01*
X269000Y348634D01*
X270487Y349085D01*
X271857Y349818D01*
X273059Y350803D01*
X274045Y352005D01*
X274777Y353376D01*
X275228Y354863D01*
X275381Y356409D01*
X275228Y357956D01*
X274777Y359443D01*
X274045Y360814D01*
X273059Y362015D01*
X271857Y363001D01*
X270979Y363471D01*
X271104Y363971D01*
X281467D01*
X289682Y355755D01*
D02*
G37*
G36*
X321500Y364500D02*
Y227500D01*
X312074Y218074D01*
X311612Y218265D01*
Y231612D01*
X299551D01*
X297970Y233193D01*
X297474Y233525D01*
X296888Y233641D01*
X289657D01*
X289466Y234103D01*
X291251Y235888D01*
X291486Y235790D01*
X292400Y235670D01*
X293314Y235790D01*
X294165Y236143D01*
X294896Y236704D01*
X295457Y237435D01*
X295810Y238286D01*
X295930Y239200D01*
X295810Y240114D01*
X295457Y240965D01*
X295260Y241222D01*
X295481Y241671D01*
X295700D01*
X296285Y241787D01*
X296781Y242119D01*
X306981Y252319D01*
X307313Y252815D01*
X307429Y253400D01*
Y268750D01*
X307313Y269335D01*
X306981Y269831D01*
X305006Y271807D01*
X305208Y272294D01*
X305346Y273339D01*
X305208Y274383D01*
X304805Y275356D01*
X304164Y276191D01*
X303328Y276833D01*
X302355Y277236D01*
X301311Y277373D01*
X300267Y277236D01*
X299294Y276833D01*
X298458Y276191D01*
X297817Y275356D01*
X297414Y274383D01*
X297276Y273339D01*
X297414Y272294D01*
X297817Y271321D01*
X298458Y270486D01*
X299294Y269845D01*
X300267Y269442D01*
X301311Y269304D01*
X302355Y269442D01*
X302843Y269644D01*
X304074Y268413D01*
X304047Y268250D01*
X303505Y268036D01*
X303328Y268171D01*
X302355Y268574D01*
X301311Y268712D01*
X300267Y268574D01*
X299294Y268171D01*
X298458Y267530D01*
X297817Y266694D01*
X297414Y265721D01*
X297276Y264677D01*
X297414Y263633D01*
X297616Y263145D01*
X295991Y261520D01*
X295529Y261712D01*
Y291378D01*
X299779Y295628D01*
X300267Y295426D01*
X301311Y295288D01*
X302355Y295426D01*
X303328Y295829D01*
X304164Y296470D01*
X304805Y297305D01*
X305208Y298279D01*
X305346Y299323D01*
X305208Y300367D01*
X304805Y301340D01*
X304164Y302176D01*
X303328Y302817D01*
X302355Y303220D01*
X301311Y303357D01*
X300267Y303220D01*
X299294Y302817D01*
X298458Y302176D01*
X297817Y301340D01*
X297414Y300367D01*
X297276Y299323D01*
X297414Y298279D01*
X297616Y297791D01*
X293138Y293313D01*
X292509Y293311D01*
X292353Y293514D01*
X291517Y294155D01*
X290544Y294558D01*
X289500Y294696D01*
X288456Y294558D01*
X287483Y294155D01*
X286926Y293728D01*
X286708Y293764D01*
X286363Y293927D01*
X286057Y294665D01*
X285496Y295396D01*
X284765Y295957D01*
X283914Y296310D01*
X283000Y296430D01*
X282086Y296310D01*
X281235Y295957D01*
X280504Y295396D01*
X279943Y294665D01*
X279845Y294429D01*
X268340D01*
X267755Y294313D01*
X267259Y293981D01*
X263478Y290201D01*
X263026Y290251D01*
X262873Y290702D01*
X263396Y291104D01*
X263957Y291835D01*
X264310Y292686D01*
X264430Y293600D01*
X264310Y294514D01*
X264212Y294749D01*
X266881Y297419D01*
X267213Y297915D01*
X267329Y298500D01*
Y298545D01*
X267565Y298643D01*
X268296Y299204D01*
X268857Y299935D01*
X269210Y300786D01*
X269330Y301700D01*
X269210Y302614D01*
X268857Y303465D01*
X268296Y304196D01*
X267565Y304757D01*
X266714Y305110D01*
X265800Y305230D01*
X264886Y305110D01*
X264035Y304757D01*
X263738Y304530D01*
X263222Y304710D01*
X263197Y304745D01*
X262857Y305565D01*
X262296Y306296D01*
X261565Y306857D01*
X260714Y307210D01*
X259800Y307330D01*
X258886Y307210D01*
X258574Y307081D01*
X258403Y307195D01*
X257818Y307311D01*
X238608D01*
X238514Y307790D01*
X239365Y308143D01*
X240096Y308704D01*
X240657Y309435D01*
X241010Y310286D01*
X241130Y311200D01*
X241010Y312114D01*
X240657Y312965D01*
X240096Y313696D01*
X239365Y314257D01*
X238514Y314610D01*
X237600Y314730D01*
X236686Y314610D01*
X236451Y314512D01*
X234746Y316217D01*
X235002Y316605D01*
X235040Y316630D01*
X235606Y316517D01*
X270143D01*
X285805Y300855D01*
X285603Y300367D01*
X285466Y299323D01*
X285603Y298279D01*
X286006Y297305D01*
X286647Y296470D01*
X287483Y295829D01*
X288456Y295426D01*
X289500Y295288D01*
X290544Y295426D01*
X291517Y295829D01*
X292353Y296470D01*
X292994Y297305D01*
X293397Y298279D01*
X293534Y299323D01*
X293397Y300367D01*
X292994Y301340D01*
X292353Y302176D01*
X291517Y302817D01*
X290544Y303220D01*
X289500Y303357D01*
X288456Y303220D01*
X287968Y303018D01*
X272711Y318275D01*
X272902Y318737D01*
X285246D01*
X285805Y318178D01*
X285603Y317690D01*
X285466Y316646D01*
X285603Y315601D01*
X286006Y314628D01*
X286647Y313793D01*
X287483Y313152D01*
X288456Y312749D01*
X289500Y312611D01*
X290544Y312749D01*
X291517Y313152D01*
X292353Y313793D01*
X292994Y314628D01*
X293397Y315601D01*
X293534Y316646D01*
X293397Y317690D01*
X292994Y318663D01*
X292353Y319498D01*
X291517Y320140D01*
X290544Y320543D01*
X289500Y320680D01*
X288456Y320543D01*
X287968Y320341D01*
X286961Y321348D01*
X286465Y321679D01*
X285879Y321796D01*
X244307D01*
X210694Y355409D01*
X210886Y355871D01*
X245474D01*
X277119Y324226D01*
X277615Y323894D01*
X278200Y323778D01*
X285804D01*
X286006Y323290D01*
X286647Y322454D01*
X287483Y321813D01*
X288456Y321410D01*
X289500Y321272D01*
X290544Y321410D01*
X291517Y321813D01*
X292353Y322454D01*
X292994Y323290D01*
X293397Y324263D01*
X293534Y325307D01*
X293397Y326351D01*
X292994Y327324D01*
X292353Y328160D01*
X291517Y328801D01*
X290544Y329204D01*
X289500Y329342D01*
X288456Y329204D01*
X287483Y328801D01*
X286647Y328160D01*
X286006Y327324D01*
X285804Y326836D01*
X278834D01*
X265031Y340638D01*
X265223Y341100D01*
X285804D01*
X286006Y340613D01*
X286647Y339777D01*
X287483Y339136D01*
X288456Y338733D01*
X289500Y338595D01*
X290544Y338733D01*
X291517Y339136D01*
X291616Y339212D01*
X292158Y338998D01*
X292188Y338819D01*
X291032Y337663D01*
X290544Y337865D01*
X289500Y338003D01*
X288456Y337865D01*
X287483Y337462D01*
X286647Y336821D01*
X286006Y335986D01*
X285603Y335013D01*
X285466Y333968D01*
X285603Y332924D01*
X286006Y331951D01*
X286647Y331116D01*
X287483Y330474D01*
X288456Y330071D01*
X289500Y329934D01*
X290544Y330071D01*
X291517Y330474D01*
X292353Y331116D01*
X292994Y331951D01*
X293397Y332924D01*
X293534Y333968D01*
X293397Y335013D01*
X293195Y335501D01*
X295081Y337387D01*
X295413Y337883D01*
X295529Y338468D01*
Y353600D01*
X295413Y354185D01*
X295143Y354589D01*
X295532Y354908D01*
X297616Y352823D01*
X297414Y352335D01*
X297276Y351291D01*
X297414Y350247D01*
X297817Y349274D01*
X298458Y348438D01*
X299294Y347797D01*
X300267Y347394D01*
X301311Y347257D01*
X302355Y347394D01*
X303328Y347797D01*
X304164Y348438D01*
X304805Y349274D01*
X305208Y350247D01*
X305346Y351291D01*
X305208Y352335D01*
X304805Y353309D01*
X304164Y354144D01*
X303328Y354785D01*
X302355Y355188D01*
X301311Y355326D01*
X300267Y355188D01*
X299779Y354986D01*
X285084Y369681D01*
X284588Y370013D01*
X284002Y370129D01*
X205000D01*
X204415Y370013D01*
X203919Y369681D01*
X203132Y368895D01*
X202486Y368810D01*
X201635Y368457D01*
X200904Y367896D01*
X200343Y367165D01*
X199990Y366314D01*
X199870Y365400D01*
X199990Y364486D01*
X200343Y363635D01*
X200540Y363378D01*
X200319Y362929D01*
X180800D01*
X180215Y362813D01*
X179719Y362481D01*
X178919Y361681D01*
X178587Y361185D01*
X178471Y360600D01*
Y339646D01*
X178587Y339060D01*
X178919Y338564D01*
X182805Y334678D01*
X182603Y334190D01*
X182466Y333146D01*
X182603Y332101D01*
X183006Y331128D01*
X183647Y330293D01*
X184483Y329652D01*
X185456Y329248D01*
X186500Y329111D01*
X187544Y329248D01*
X188517Y329652D01*
X188616Y329728D01*
X189158Y329513D01*
X189188Y329335D01*
X188032Y328179D01*
X187544Y328381D01*
X186500Y328519D01*
X185456Y328381D01*
X184483Y327978D01*
X183647Y327337D01*
X183006Y326501D01*
X182603Y325528D01*
X182466Y324484D01*
X182603Y323440D01*
X183006Y322467D01*
X183647Y321631D01*
X184483Y320990D01*
X185456Y320587D01*
X186500Y320450D01*
X187544Y320587D01*
X188517Y320990D01*
X189353Y321631D01*
X189994Y322467D01*
X190397Y323440D01*
X190534Y324484D01*
X190397Y325528D01*
X190195Y326016D01*
X191009Y326830D01*
X191471Y326639D01*
Y322956D01*
X188032Y319518D01*
X187544Y319720D01*
X186500Y319857D01*
X185456Y319720D01*
X184483Y319317D01*
X183647Y318676D01*
X183006Y317840D01*
X182603Y316867D01*
X182466Y315823D01*
X182603Y314779D01*
X183006Y313806D01*
X183647Y312970D01*
X184483Y312329D01*
X185456Y311926D01*
X186500Y311788D01*
X187544Y311926D01*
X188517Y312329D01*
X189353Y312970D01*
X189994Y313806D01*
X190397Y314779D01*
X190534Y315823D01*
X190397Y316867D01*
X190195Y317355D01*
X194081Y321241D01*
X194413Y321738D01*
X194482Y322083D01*
X195016Y322207D01*
X195458Y321631D01*
X196294Y320990D01*
X197267Y320587D01*
X198311Y320450D01*
X199355Y320587D01*
X200328Y320990D01*
X201164Y321631D01*
X201805Y322467D01*
X202208Y323440D01*
X202345Y324484D01*
X202208Y325528D01*
X201805Y326501D01*
X201164Y327337D01*
X200328Y327978D01*
X199355Y328381D01*
X198311Y328519D01*
X197267Y328381D01*
X196294Y327978D01*
X195458Y327337D01*
X195029Y326778D01*
X194529Y326948D01*
Y330682D01*
X195029Y330852D01*
X195458Y330293D01*
X196294Y329652D01*
X197267Y329248D01*
X198311Y329111D01*
X199355Y329248D01*
X200328Y329652D01*
X201164Y330293D01*
X201805Y331128D01*
X202208Y332101D01*
X202345Y333146D01*
X202208Y334190D01*
X201805Y335163D01*
X201164Y335998D01*
X200328Y336640D01*
X199355Y337043D01*
X198311Y337180D01*
X197267Y337043D01*
X196294Y336640D01*
X195458Y335998D01*
X195029Y335440D01*
X194529Y335609D01*
Y339343D01*
X195029Y339513D01*
X195458Y338954D01*
X196294Y338313D01*
X197267Y337910D01*
X198311Y337772D01*
X199355Y337910D01*
X200328Y338313D01*
X201164Y338954D01*
X201805Y339790D01*
X202208Y340763D01*
X202345Y341807D01*
X202208Y342851D01*
X201805Y343824D01*
X201164Y344660D01*
X200328Y345301D01*
X199355Y345704D01*
X198311Y345842D01*
X197267Y345704D01*
X196294Y345301D01*
X195458Y344660D01*
X195029Y344101D01*
X194529Y344271D01*
Y348005D01*
X195029Y348174D01*
X195458Y347616D01*
X196294Y346974D01*
X197267Y346571D01*
X198311Y346434D01*
X199355Y346571D01*
X200328Y346974D01*
X201164Y347616D01*
X201805Y348451D01*
X202208Y349424D01*
X202345Y350468D01*
X202208Y351513D01*
X201805Y352486D01*
X201164Y353321D01*
X201065Y353397D01*
X201226Y353871D01*
X207907D01*
X241739Y320038D01*
X241548Y319576D01*
X236240D01*
X212712Y343103D01*
X212810Y343339D01*
X212930Y344253D01*
X212810Y345166D01*
X212457Y346018D01*
X211896Y346749D01*
X211165Y347310D01*
X210314Y347662D01*
X209400Y347783D01*
X208486Y347662D01*
X207635Y347310D01*
X206904Y346749D01*
X206343Y346018D01*
X205990Y345166D01*
X205870Y344253D01*
X205990Y343339D01*
X206343Y342488D01*
X206904Y341756D01*
X207635Y341195D01*
X208486Y340843D01*
X209400Y340722D01*
X210314Y340843D01*
X210549Y340940D01*
X213498Y337992D01*
X213214Y337568D01*
X213114Y337610D01*
X212200Y337730D01*
X211286Y337610D01*
X210435Y337257D01*
X209704Y336696D01*
X209143Y335965D01*
X208790Y335114D01*
X208670Y334200D01*
X208790Y333286D01*
X209143Y332435D01*
X209704Y331704D01*
X210435Y331143D01*
X211286Y330790D01*
X212200Y330670D01*
X213114Y330790D01*
X213965Y331143D01*
X214696Y331704D01*
X214919Y331718D01*
X234288Y312349D01*
X234190Y312114D01*
X234070Y311200D01*
X234190Y310286D01*
X234543Y309435D01*
X235104Y308704D01*
X235835Y308143D01*
X236686Y307790D01*
X236592Y307311D01*
X232527D01*
X222934Y316904D01*
X222438Y317236D01*
X221853Y317352D01*
X202007D01*
X201805Y317840D01*
X201164Y318676D01*
X200328Y319317D01*
X199355Y319720D01*
X198311Y319857D01*
X197267Y319720D01*
X196294Y319317D01*
X195458Y318676D01*
X194817Y317840D01*
X194414Y316867D01*
X194276Y315823D01*
X194414Y314779D01*
X194817Y313806D01*
X195458Y312970D01*
X196294Y312329D01*
X197267Y311926D01*
X198311Y311788D01*
X199355Y311926D01*
X200328Y312329D01*
X201164Y312970D01*
X201805Y313806D01*
X202007Y314293D01*
X221219D01*
X223083Y312429D01*
X222876Y311929D01*
X215400D01*
X214815Y311813D01*
X214319Y311481D01*
X206049Y303212D01*
X205814Y303310D01*
X204900Y303430D01*
X203986Y303310D01*
X203135Y302957D01*
X202404Y302396D01*
X201843Y301665D01*
X201712Y301350D01*
X201216Y301284D01*
X201164Y301353D01*
X200328Y301994D01*
X199355Y302397D01*
X198311Y302535D01*
X197267Y302397D01*
X196294Y301994D01*
X195458Y301353D01*
X194817Y300517D01*
X194414Y299544D01*
X194276Y298500D01*
X194414Y297456D01*
X194817Y296483D01*
X195458Y295647D01*
X196294Y295006D01*
X197267Y294603D01*
X198311Y294465D01*
X199355Y294603D01*
X199843Y294805D01*
X199905Y294744D01*
X200401Y294412D01*
X200986Y294296D01*
X207125D01*
X207710Y294412D01*
X208206Y294744D01*
X215151Y301688D01*
X215386Y301590D01*
X216300Y301470D01*
X217214Y301590D01*
X218065Y301943D01*
X218796Y302504D01*
X219357Y303235D01*
X219710Y304086D01*
X219830Y305000D01*
X219710Y305914D01*
X219357Y306765D01*
X218796Y307496D01*
X218065Y308057D01*
X217309Y308371D01*
X217408Y308871D01*
X222567D01*
X234988Y296449D01*
X234890Y296214D01*
X234770Y295300D01*
X234890Y294386D01*
X235243Y293535D01*
X235804Y292804D01*
X236535Y292243D01*
X237386Y291890D01*
X238300Y291770D01*
X239214Y291890D01*
X240065Y292243D01*
X240796Y292804D01*
X241357Y293535D01*
X241710Y294386D01*
X241830Y295300D01*
X241710Y296214D01*
X241357Y297065D01*
X240796Y297796D01*
X240065Y298357D01*
X239214Y298710D01*
X238300Y298830D01*
X237386Y298710D01*
X237151Y298612D01*
X232010Y303753D01*
X232217Y304253D01*
X247217D01*
X247463Y303753D01*
X247243Y303465D01*
X246890Y302614D01*
X246770Y301700D01*
X246890Y300786D01*
X247243Y299935D01*
X247804Y299204D01*
X248535Y298643D01*
X249386Y298290D01*
X250300Y298170D01*
X251214Y298290D01*
X251449Y298388D01*
X252771Y297066D01*
Y295855D01*
X252535Y295757D01*
X251804Y295196D01*
X251243Y294465D01*
X250890Y293614D01*
X250770Y292700D01*
X250890Y291786D01*
X251243Y290935D01*
X251437Y290682D01*
X251186Y290188D01*
X202041Y291285D01*
X201805Y291856D01*
X201164Y292691D01*
X200328Y293333D01*
X199355Y293736D01*
X198311Y293873D01*
X197267Y293736D01*
X196294Y293333D01*
X195458Y292691D01*
X194817Y291856D01*
X194414Y290883D01*
X194276Y289839D01*
X194414Y288794D01*
X194817Y287821D01*
X195458Y286986D01*
X196294Y286345D01*
X197267Y285942D01*
X198311Y285804D01*
X199355Y285942D01*
X200328Y286345D01*
X201164Y286986D01*
X201805Y287821D01*
X201973Y288227D01*
X251461Y287122D01*
X251478Y287125D01*
X251495Y287121D01*
X264091D01*
X264676Y287238D01*
X265173Y287569D01*
X268974Y291371D01*
X279845D01*
X279943Y291135D01*
X280504Y290404D01*
X281235Y289843D01*
X282086Y289490D01*
X283000Y289370D01*
X283914Y289490D01*
X284765Y289843D01*
X285041Y290054D01*
X285575Y289834D01*
X285603Y289617D01*
X285805Y289129D01*
X248305Y251629D01*
X201059D01*
X200889Y252129D01*
X201164Y252340D01*
X201805Y253176D01*
X202208Y254149D01*
X202345Y255193D01*
X202208Y256237D01*
X201805Y257210D01*
X201164Y258046D01*
X200328Y258687D01*
X199355Y259090D01*
X198311Y259227D01*
X197267Y259090D01*
X196294Y258687D01*
X195840Y258339D01*
X195340Y258586D01*
Y260462D01*
X195840Y260708D01*
X196294Y260360D01*
X197267Y259957D01*
X198311Y259820D01*
X199355Y259957D01*
X200328Y260360D01*
X201164Y261002D01*
X201805Y261837D01*
X202208Y262810D01*
X202345Y263854D01*
X202208Y264899D01*
X201805Y265872D01*
X201164Y266707D01*
X200328Y267348D01*
X199355Y267752D01*
X198311Y267889D01*
X197267Y267752D01*
X196294Y267348D01*
X195840Y267001D01*
X195340Y267247D01*
Y269123D01*
X195840Y269370D01*
X196294Y269022D01*
X197267Y268619D01*
X198311Y268481D01*
X199355Y268619D01*
X200328Y269022D01*
X201164Y269663D01*
X201805Y270498D01*
X202208Y271472D01*
X202345Y272516D01*
X202208Y273560D01*
X201805Y274533D01*
X201164Y275369D01*
X200328Y276010D01*
X199355Y276413D01*
X198311Y276550D01*
X197267Y276413D01*
X196294Y276010D01*
X195840Y275662D01*
X195340Y275908D01*
Y277784D01*
X195840Y278031D01*
X196294Y277683D01*
X197267Y277280D01*
X198311Y277143D01*
X199355Y277280D01*
X200328Y277683D01*
X201164Y278324D01*
X201805Y279160D01*
X202007Y279648D01*
X228513D01*
X228760Y279148D01*
X228543Y278865D01*
X228190Y278014D01*
X228070Y277100D01*
X228190Y276186D01*
X228543Y275335D01*
X229104Y274604D01*
X229835Y274043D01*
X230686Y273690D01*
X231600Y273570D01*
X232514Y273690D01*
X233365Y274043D01*
X234096Y274604D01*
X234657Y275335D01*
X234755Y275571D01*
X254366D01*
X257988Y271949D01*
X257890Y271714D01*
X257770Y270800D01*
X257890Y269886D01*
X258243Y269035D01*
X258804Y268304D01*
X259535Y267743D01*
X260386Y267390D01*
X261300Y267270D01*
X262214Y267390D01*
X263065Y267743D01*
X263796Y268304D01*
X264357Y269035D01*
X264710Y269886D01*
X264830Y270800D01*
X264710Y271714D01*
X264357Y272565D01*
X263796Y273296D01*
X263065Y273857D01*
X262214Y274210D01*
X261300Y274330D01*
X260386Y274210D01*
X260151Y274112D01*
X256081Y278181D01*
X255585Y278513D01*
X255000Y278629D01*
X234755D01*
X234657Y278865D01*
X234440Y279148D01*
X234687Y279648D01*
X271077D01*
X271662Y279764D01*
X272159Y280096D01*
X274551Y282488D01*
X274786Y282390D01*
X275700Y282270D01*
X276614Y282390D01*
X277465Y282743D01*
X278196Y283304D01*
X278757Y284035D01*
X279110Y284886D01*
X279230Y285800D01*
X279110Y286714D01*
X278757Y287565D01*
X278196Y288296D01*
X277465Y288857D01*
X276614Y289210D01*
X275700Y289330D01*
X274786Y289210D01*
X273935Y288857D01*
X273204Y288296D01*
X272643Y287565D01*
X272290Y286714D01*
X272170Y285800D01*
X272290Y284886D01*
X272388Y284651D01*
X270444Y282707D01*
X202007D01*
X201805Y283194D01*
X201164Y284030D01*
X200328Y284671D01*
X199355Y285074D01*
X198311Y285212D01*
X197267Y285074D01*
X196294Y284671D01*
X195458Y284030D01*
X195302Y283827D01*
X194673Y283828D01*
X190195Y288306D01*
X190397Y288794D01*
X190534Y289839D01*
X190397Y290883D01*
X189994Y291856D01*
X189353Y292691D01*
X188517Y293333D01*
X187544Y293736D01*
X186500Y293873D01*
X185456Y293736D01*
X184483Y293333D01*
X183647Y292691D01*
X183006Y291856D01*
X182603Y290883D01*
X182466Y289839D01*
X182603Y288794D01*
X183006Y287821D01*
X183647Y286986D01*
X184483Y286345D01*
X185456Y285942D01*
X186500Y285804D01*
X187544Y285942D01*
X188032Y286144D01*
X192282Y281894D01*
Y278212D01*
X191820Y278020D01*
X190195Y279645D01*
X190397Y280133D01*
X190534Y281177D01*
X190397Y282221D01*
X189994Y283194D01*
X189353Y284030D01*
X188517Y284671D01*
X187544Y285074D01*
X186500Y285212D01*
X185456Y285074D01*
X184483Y284671D01*
X183647Y284030D01*
X183006Y283194D01*
X182603Y282221D01*
X182466Y281177D01*
X182603Y280133D01*
X183006Y279160D01*
X183647Y278324D01*
X184483Y277683D01*
X185456Y277280D01*
X186500Y277143D01*
X187544Y277280D01*
X188032Y277482D01*
X190076Y275438D01*
X190044Y275289D01*
X189507Y275168D01*
X189353Y275369D01*
X188517Y276010D01*
X187544Y276413D01*
X186500Y276550D01*
X185456Y276413D01*
X184483Y276010D01*
X183647Y275369D01*
X183006Y274533D01*
X182603Y273560D01*
X182466Y272516D01*
X182603Y271472D01*
X183006Y270498D01*
X183647Y269663D01*
X184483Y269022D01*
X185456Y268619D01*
X186500Y268481D01*
X187544Y268619D01*
X188517Y269022D01*
X189353Y269663D01*
X189782Y270222D01*
X190282Y270052D01*
Y266318D01*
X189782Y266148D01*
X189353Y266707D01*
X188517Y267348D01*
X187544Y267752D01*
X186500Y267889D01*
X185456Y267752D01*
X184483Y267348D01*
X183647Y266707D01*
X183006Y265872D01*
X182603Y264899D01*
X182466Y263854D01*
X182603Y262810D01*
X182805Y262322D01*
X180919Y260436D01*
X180587Y259940D01*
X180471Y259354D01*
Y248000D01*
X180587Y247415D01*
X180919Y246919D01*
X182819Y245019D01*
X183315Y244687D01*
X183900Y244571D01*
X191622D01*
X191792Y244071D01*
X191304Y243696D01*
X190743Y242965D01*
X190390Y242114D01*
X190270Y241200D01*
X190390Y240286D01*
X190743Y239435D01*
X191304Y238704D01*
X192035Y238143D01*
X192886Y237790D01*
X193800Y237670D01*
X194714Y237790D01*
X195565Y238143D01*
X196296Y238704D01*
X196857Y239435D01*
X196955Y239671D01*
X198219D01*
X198440Y239222D01*
X198243Y238965D01*
X197890Y238114D01*
X197770Y237200D01*
X197890Y236286D01*
X198243Y235435D01*
X198804Y234704D01*
X198885Y234641D01*
X198716Y234141D01*
X174612D01*
X174027Y234025D01*
X173530Y233693D01*
X170846Y231009D01*
X169735Y231602D01*
X168394Y232009D01*
X167000Y232146D01*
X165606Y232009D01*
X164265Y231602D01*
X163030Y230942D01*
X161947Y230053D01*
X161058Y228970D01*
X160398Y227735D01*
X159991Y226394D01*
X159854Y225000D01*
X159991Y223606D01*
X160398Y222265D01*
X161058Y221030D01*
X161947Y219947D01*
X163030Y219058D01*
X164265Y218398D01*
X165606Y217991D01*
X167000Y217854D01*
X168394Y217991D01*
X169735Y218398D01*
X170970Y219058D01*
X172053Y219947D01*
X172942Y221030D01*
X173602Y222265D01*
X174009Y223606D01*
X174146Y225000D01*
X174009Y226394D01*
X173602Y227735D01*
X173009Y228846D01*
X175245Y231082D01*
X182413D01*
X182592Y230582D01*
X181947Y230053D01*
X181058Y228970D01*
X180398Y227735D01*
X179991Y226394D01*
X179854Y225000D01*
X179991Y223606D01*
X180398Y222265D01*
X181058Y221030D01*
X181947Y219947D01*
X183030Y219058D01*
X184265Y218398D01*
X185606Y217991D01*
X187000Y217854D01*
X188394Y217991D01*
X189735Y218398D01*
X190970Y219058D01*
X192053Y219947D01*
X192942Y221030D01*
X193602Y222265D01*
X194009Y223606D01*
X194146Y225000D01*
X194009Y226394D01*
X193602Y227735D01*
X192942Y228970D01*
X192053Y230053D01*
X191408Y230582D01*
X191587Y231082D01*
X202413D01*
X202592Y230582D01*
X201947Y230053D01*
X201058Y228970D01*
X200398Y227735D01*
X199991Y226394D01*
X199854Y225000D01*
X199991Y223606D01*
X200398Y222265D01*
X201058Y221030D01*
X201947Y219947D01*
X203030Y219058D01*
X204265Y218398D01*
X205606Y217991D01*
X207000Y217854D01*
X208394Y217991D01*
X209735Y218398D01*
X210970Y219058D01*
X212053Y219947D01*
X212942Y221030D01*
X213602Y222265D01*
X214009Y223606D01*
X214146Y225000D01*
X214009Y226394D01*
X213602Y227735D01*
X212942Y228970D01*
X212053Y230053D01*
X211408Y230582D01*
X211587Y231082D01*
X222413D01*
X222592Y230582D01*
X221947Y230053D01*
X221058Y228970D01*
X220398Y227735D01*
X219991Y226394D01*
X219854Y225000D01*
X219991Y223606D01*
X220398Y222265D01*
X221058Y221030D01*
X221947Y219947D01*
X223030Y219058D01*
X224265Y218398D01*
X225606Y217991D01*
X227000Y217854D01*
X228394Y217991D01*
X229735Y218398D01*
X230970Y219058D01*
X232053Y219947D01*
X232942Y221030D01*
X233602Y222265D01*
X234009Y223606D01*
X234146Y225000D01*
X234009Y226394D01*
X233602Y227735D01*
X232942Y228970D01*
X232053Y230053D01*
X231408Y230582D01*
X231587Y231082D01*
X239888D01*
Y225500D01*
X247000D01*
X254112D01*
Y231082D01*
X273388D01*
X273973Y231199D01*
X274470Y231530D01*
X275522Y232582D01*
X276966D01*
X277158Y232120D01*
X268899Y223862D01*
X268664Y223960D01*
X267750Y224080D01*
X266836Y223960D01*
X265985Y223607D01*
X265254Y223046D01*
X264693Y222315D01*
X264340Y221464D01*
X264220Y220550D01*
X264340Y219636D01*
X264693Y218785D01*
X265254Y218054D01*
X265985Y217493D01*
X266836Y217140D01*
X267750Y217020D01*
X268664Y217140D01*
X269515Y217493D01*
X270246Y218054D01*
X270807Y218785D01*
X271160Y219636D01*
X271280Y220550D01*
X271160Y221464D01*
X271062Y221699D01*
X278269Y228906D01*
X278640Y228570D01*
X278558Y228470D01*
X277898Y227235D01*
X277491Y225894D01*
X277354Y224500D01*
X277491Y223106D01*
X277898Y221765D01*
X278558Y220530D01*
X279447Y219447D01*
X280530Y218558D01*
X281765Y217898D01*
X283106Y217491D01*
X284500Y217354D01*
X285894Y217491D01*
X287235Y217898D01*
X288470Y218558D01*
X289553Y219447D01*
X290442Y220530D01*
X291102Y221765D01*
X291509Y223106D01*
X291646Y224500D01*
X291509Y225894D01*
X291102Y227235D01*
X290442Y228470D01*
X289553Y229553D01*
X288908Y230082D01*
X289087Y230582D01*
X296255D01*
X297388Y229449D01*
Y217388D01*
X310735D01*
X310926Y216926D01*
X310000Y216000D01*
X160000D01*
X149500Y226500D01*
Y363000D01*
X160500Y374000D01*
X312000D01*
X321500Y364500D01*
D02*
G37*
%LPC*%
G36*
X289000Y350791D02*
X285531D01*
X285603Y350247D01*
X286006Y349274D01*
X286647Y348438D01*
X287483Y347797D01*
X288456Y347394D01*
X289000Y347323D01*
Y350791D01*
D02*
G37*
G36*
X164453Y363514D02*
X162906Y363362D01*
X161419Y362911D01*
X160048Y362178D01*
X158847Y361192D01*
X157861Y359991D01*
X157128Y358621D01*
X156677Y357133D01*
X156525Y355587D01*
X156677Y354040D01*
X157128Y352553D01*
X157861Y351182D01*
X158847Y349981D01*
X160048Y348995D01*
X161419Y348262D01*
X162906Y347811D01*
X164453Y347659D01*
X165999Y347811D01*
X167487Y348262D01*
X168857Y348995D01*
X170059Y349981D01*
X171045Y351182D01*
X171777Y352553D01*
X172228Y354040D01*
X172381Y355587D01*
X172228Y357133D01*
X171777Y358621D01*
X171045Y359991D01*
X170059Y361192D01*
X168857Y362178D01*
X167487Y362911D01*
X165999Y363362D01*
X164453Y363514D01*
D02*
G37*
G36*
X301311Y346664D02*
X300267Y346527D01*
X299294Y346124D01*
X298458Y345483D01*
X297817Y344647D01*
X297414Y343674D01*
X297276Y342630D01*
X297414Y341586D01*
X297817Y340613D01*
X298458Y339777D01*
X299294Y339136D01*
X300267Y338733D01*
X301311Y338595D01*
X302355Y338733D01*
X303328Y339136D01*
X304164Y339777D01*
X304805Y340613D01*
X305208Y341586D01*
X305346Y342630D01*
X305208Y343674D01*
X304805Y344647D01*
X304164Y345483D01*
X303328Y346124D01*
X302355Y346527D01*
X301311Y346664D01*
D02*
G37*
G36*
Y338003D02*
X300267Y337865D01*
X299294Y337462D01*
X298458Y336821D01*
X297817Y335986D01*
X297414Y335013D01*
X297276Y333968D01*
X297414Y332924D01*
X297817Y331951D01*
X298458Y331116D01*
X299294Y330474D01*
X300267Y330071D01*
X301311Y329934D01*
X302355Y330071D01*
X303328Y330474D01*
X304164Y331116D01*
X304805Y331951D01*
X305208Y332924D01*
X305346Y333968D01*
X305208Y335013D01*
X304805Y335986D01*
X304164Y336821D01*
X303328Y337462D01*
X302355Y337865D01*
X301311Y338003D01*
D02*
G37*
G36*
Y329342D02*
X300267Y329204D01*
X299294Y328801D01*
X298458Y328160D01*
X297817Y327324D01*
X297414Y326351D01*
X297276Y325307D01*
X297414Y324263D01*
X297817Y323290D01*
X298458Y322454D01*
X299294Y321813D01*
X300267Y321410D01*
X301311Y321272D01*
X302355Y321410D01*
X303328Y321813D01*
X304164Y322454D01*
X304805Y323290D01*
X305208Y324263D01*
X305346Y325307D01*
X305208Y326351D01*
X304805Y327324D01*
X304164Y328160D01*
X303328Y328801D01*
X302355Y329204D01*
X301311Y329342D01*
D02*
G37*
G36*
Y320680D02*
X300267Y320543D01*
X299294Y320140D01*
X298458Y319498D01*
X297817Y318663D01*
X297414Y317690D01*
X297276Y316646D01*
X297414Y315601D01*
X297817Y314628D01*
X298458Y313793D01*
X299294Y313152D01*
X300267Y312749D01*
X301311Y312611D01*
X302355Y312749D01*
X303328Y313152D01*
X304164Y313793D01*
X304805Y314628D01*
X305208Y315601D01*
X305346Y316646D01*
X305208Y317690D01*
X304805Y318663D01*
X304164Y319498D01*
X303328Y320140D01*
X302355Y320543D01*
X301311Y320680D01*
D02*
G37*
G36*
Y312019D02*
X300267Y311881D01*
X299294Y311478D01*
X298458Y310837D01*
X297817Y310001D01*
X297414Y309028D01*
X297276Y307984D01*
X297414Y306940D01*
X297817Y305967D01*
X298458Y305131D01*
X299294Y304490D01*
X300267Y304087D01*
X301311Y303950D01*
X302355Y304087D01*
X303328Y304490D01*
X304164Y305131D01*
X304805Y305967D01*
X305208Y306940D01*
X305346Y307984D01*
X305208Y309028D01*
X304805Y310001D01*
X304164Y310837D01*
X303328Y311478D01*
X302355Y311881D01*
X301311Y312019D01*
D02*
G37*
G36*
X289500D02*
X288456Y311881D01*
X287483Y311478D01*
X286647Y310837D01*
X286006Y310001D01*
X285603Y309028D01*
X285466Y307984D01*
X285603Y306940D01*
X286006Y305967D01*
X286647Y305131D01*
X287483Y304490D01*
X288456Y304087D01*
X289500Y303950D01*
X290544Y304087D01*
X291517Y304490D01*
X292353Y305131D01*
X292994Y305967D01*
X293397Y306940D01*
X293534Y307984D01*
X293397Y309028D01*
X292994Y310001D01*
X292353Y310837D01*
X291517Y311478D01*
X290544Y311881D01*
X289500Y312019D01*
D02*
G37*
G36*
X198311Y311196D02*
X197267Y311058D01*
X196294Y310655D01*
X195458Y310014D01*
X194817Y309179D01*
X194414Y308206D01*
X194276Y307161D01*
X194414Y306117D01*
X194817Y305144D01*
X195458Y304309D01*
X196294Y303667D01*
X197267Y303264D01*
X198311Y303127D01*
X199355Y303264D01*
X200328Y303667D01*
X201164Y304309D01*
X201805Y305144D01*
X202208Y306117D01*
X202345Y307161D01*
X202208Y308206D01*
X201805Y309179D01*
X201164Y310014D01*
X200328Y310655D01*
X199355Y311058D01*
X198311Y311196D01*
D02*
G37*
G36*
X186500D02*
X185456Y311058D01*
X184483Y310655D01*
X183647Y310014D01*
X183006Y309179D01*
X182603Y308206D01*
X182466Y307161D01*
X182603Y306117D01*
X183006Y305144D01*
X183647Y304309D01*
X184483Y303667D01*
X185456Y303264D01*
X186500Y303127D01*
X187544Y303264D01*
X188517Y303667D01*
X189353Y304309D01*
X189994Y305144D01*
X190397Y306117D01*
X190534Y307161D01*
X190397Y308206D01*
X189994Y309179D01*
X189353Y310014D01*
X188517Y310655D01*
X187544Y311058D01*
X186500Y311196D01*
D02*
G37*
G36*
Y302535D02*
X185456Y302397D01*
X184483Y301994D01*
X183647Y301353D01*
X183006Y300517D01*
X182603Y299544D01*
X182466Y298500D01*
X182603Y297456D01*
X183006Y296483D01*
X183647Y295647D01*
X184483Y295006D01*
X185456Y294603D01*
X186500Y294465D01*
X187544Y294603D01*
X188517Y295006D01*
X189353Y295647D01*
X189994Y296483D01*
X190397Y297456D01*
X190534Y298500D01*
X190397Y299544D01*
X189994Y300517D01*
X189353Y301353D01*
X188517Y301994D01*
X187544Y302397D01*
X186500Y302535D01*
D02*
G37*
G36*
X301311Y294696D02*
X300267Y294558D01*
X299294Y294155D01*
X298458Y293514D01*
X297817Y292679D01*
X297414Y291706D01*
X297276Y290661D01*
X297414Y289617D01*
X297817Y288644D01*
X298458Y287809D01*
X299294Y287167D01*
X300267Y286764D01*
X301311Y286627D01*
X302355Y286764D01*
X303328Y287167D01*
X304164Y287809D01*
X304805Y288644D01*
X305208Y289617D01*
X305346Y290661D01*
X305208Y291706D01*
X304805Y292679D01*
X304164Y293514D01*
X303328Y294155D01*
X302355Y294558D01*
X301311Y294696D01*
D02*
G37*
G36*
Y286034D02*
X300267Y285897D01*
X299294Y285494D01*
X298458Y284853D01*
X297817Y284017D01*
X297414Y283044D01*
X297276Y282000D01*
X297414Y280956D01*
X297817Y279983D01*
X298458Y279147D01*
X299294Y278506D01*
X300267Y278103D01*
X301311Y277965D01*
X302355Y278103D01*
X303328Y278506D01*
X304164Y279147D01*
X304805Y279983D01*
X305208Y280956D01*
X305346Y282000D01*
X305208Y283044D01*
X304805Y284017D01*
X304164Y284853D01*
X303328Y285494D01*
X302355Y285897D01*
X301311Y286034D01*
D02*
G37*
G36*
X164453Y258003D02*
X162906Y257850D01*
X161419Y257399D01*
X160048Y256667D01*
X158847Y255681D01*
X157861Y254479D01*
X157128Y253109D01*
X156677Y251622D01*
X156525Y250075D01*
X156677Y248528D01*
X157128Y247041D01*
X157861Y245670D01*
X158847Y244469D01*
X160048Y243483D01*
X161419Y242750D01*
X162906Y242299D01*
X164453Y242147D01*
X165999Y242299D01*
X167487Y242750D01*
X168857Y243483D01*
X170059Y244469D01*
X171045Y245670D01*
X171777Y247041D01*
X172228Y248528D01*
X172381Y250075D01*
X172228Y251622D01*
X171777Y253109D01*
X171045Y254479D01*
X170059Y255681D01*
X168857Y256667D01*
X167487Y257399D01*
X165999Y257850D01*
X164453Y258003D01*
D02*
G37*
G36*
X254112Y224500D02*
X247500D01*
Y217888D01*
X254112D01*
Y224500D01*
D02*
G37*
G36*
X246500D02*
X239888D01*
Y217888D01*
X246500D01*
Y224500D01*
D02*
G37*
%LPD*%
D12*
X207125Y295825D02*
X216300Y305000D01*
X267750Y220550D02*
X279312Y232112D01*
X273388Y232612D02*
X274888Y234112D01*
X174612Y232612D02*
X273388D01*
X271388Y234612D02*
X272888Y236112D01*
X203888Y234612D02*
X271388D01*
X272888Y236112D02*
X281756D01*
X270888Y238112D02*
X278887D01*
X270826Y238050D02*
X270888Y238112D01*
X207950Y238050D02*
X270826D01*
X274888Y234112D02*
X287312D01*
X205000Y368600D02*
X284002D01*
X203400Y367000D02*
X205000Y368600D01*
X284002D02*
X301311Y351291D01*
X203400Y365400D02*
Y367000D01*
X301311Y273339D02*
X305900Y268750D01*
Y253400D02*
Y268750D01*
X295700Y243200D02*
X305900Y253400D01*
X288844Y243200D02*
X295700D01*
X281756Y236112D02*
X288844Y243200D01*
X201300Y237200D02*
X203888Y234612D01*
X289500Y333968D02*
X294000Y338468D01*
Y353600D01*
X282100Y365500D02*
X294000Y353600D01*
X211500Y365500D02*
X282100D01*
X207400Y361400D02*
X211500Y365500D01*
X180800Y361400D02*
X207400D01*
X180000Y360600D02*
X180800Y361400D01*
X180000Y339646D02*
Y360600D01*
Y339646D02*
X186500Y333146D01*
X209400Y344253D02*
X235606Y318047D01*
X270776D01*
X289500Y299323D01*
X296888Y232112D02*
X304500Y224500D01*
X279312Y232112D02*
X296888D01*
X223200Y310400D02*
X238300Y295300D01*
X215400Y310400D02*
X223200D01*
X204900Y299900D02*
X215400Y310400D01*
X214600Y334200D02*
X237600Y311200D01*
X212200Y334200D02*
X214600D01*
X265800Y298500D02*
Y301700D01*
X260900Y293600D02*
X265800Y298500D01*
X287312Y234112D02*
X292400Y239200D01*
X167000Y225000D02*
X174612Y232612D01*
X254300Y292700D02*
Y297700D01*
X250300Y301700D02*
X254300Y297700D01*
X198311Y315823D02*
X221853D01*
X231894Y305782D01*
X257818D01*
X259800Y303800D01*
X268340Y292900D02*
X283000D01*
X264091Y288651D02*
X268340Y292900D01*
X251495Y288651D02*
X264091D01*
X198311Y289839D02*
X251495Y288651D01*
X193800Y241200D02*
X204800D01*
X207950Y238050D01*
X278887Y238112D02*
X286409Y245634D01*
X289912D01*
X296000Y251722D01*
Y259366D01*
X301311Y264677D01*
X214800Y242100D02*
X216400Y240500D01*
X277057D01*
X284300Y247743D01*
X289043D01*
X294000Y252700D01*
Y292012D01*
X301311Y299323D01*
X182000Y346307D02*
X186500Y341807D01*
X182000Y346307D02*
Y357300D01*
X184100Y359400D01*
X247700D01*
X264470Y342630D01*
X289500D01*
X278200Y325307D02*
X289500D01*
X246107Y357400D02*
X278200Y325307D01*
X191600Y357400D02*
X246107D01*
X191000Y356800D02*
X191600Y357400D01*
X191000Y328984D02*
Y356800D01*
X186500Y324484D02*
X191000Y328984D01*
X285879Y320266D02*
X289500Y316646D01*
X243674Y320266D02*
X285879D01*
X208540Y355400D02*
X243674Y320266D01*
X196400Y355400D02*
X208540D01*
X193000Y352000D02*
X196400Y355400D01*
X193000Y322323D02*
Y352000D01*
X186500Y315823D02*
X193000Y322323D01*
X231600Y277100D02*
X255000D01*
X261300Y270800D01*
X198311Y298500D02*
X200986Y295825D01*
X207125D01*
X271077Y281177D02*
X275700Y285800D01*
X198311Y281177D02*
X271077D01*
X182000Y259354D02*
X186500Y263854D01*
X182000Y248000D02*
Y259354D01*
Y248000D02*
X183900Y246100D01*
X222000D01*
X225600Y242500D01*
X272000D01*
X275900Y246400D01*
Y251077D01*
X289500Y264677D01*
X284400Y282000D02*
X289500D01*
X250500Y248100D02*
X284400Y282000D01*
X192862Y248100D02*
X250500D01*
X191811Y249151D02*
X192862Y248100D01*
X191811Y249151D02*
Y275866D01*
X186500Y281177D02*
X191811Y275866D01*
X186500Y289839D02*
X193811Y282528D01*
Y250700D02*
Y282528D01*
Y250700D02*
X194411Y250100D01*
X248939D01*
X289500Y290661D01*
D24*
X186500Y255193D02*
D03*
Y263854D02*
D03*
Y272516D02*
D03*
Y281177D02*
D03*
Y289839D02*
D03*
Y298500D02*
D03*
Y307161D02*
D03*
Y315823D02*
D03*
Y324484D02*
D03*
Y333146D02*
D03*
Y341807D02*
D03*
Y350468D02*
D03*
X198311Y255193D02*
D03*
D03*
Y263854D02*
D03*
Y272516D02*
D03*
Y281177D02*
D03*
Y289839D02*
D03*
Y298500D02*
D03*
Y307161D02*
D03*
Y315823D02*
D03*
Y324484D02*
D03*
Y333146D02*
D03*
Y341807D02*
D03*
Y350468D02*
D03*
X301311Y256016D02*
D03*
Y264677D02*
D03*
Y273339D02*
D03*
Y282000D02*
D03*
Y290661D02*
D03*
Y299323D02*
D03*
Y307984D02*
D03*
Y316646D02*
D03*
Y325307D02*
D03*
Y333968D02*
D03*
Y342630D02*
D03*
Y351291D02*
D03*
D03*
X289500Y256016D02*
D03*
Y264677D02*
D03*
Y273339D02*
D03*
Y282000D02*
D03*
Y290661D02*
D03*
Y299323D02*
D03*
Y307984D02*
D03*
Y316646D02*
D03*
Y325307D02*
D03*
Y333968D02*
D03*
Y342630D02*
D03*
Y351291D02*
D03*
D25*
X284500Y224500D02*
D03*
X207000Y225000D02*
D03*
X187000D02*
D03*
X227000D02*
D03*
X167000D02*
D03*
D26*
X304500Y224500D02*
D03*
X247000Y225000D02*
D03*
D27*
X216300Y305000D02*
D03*
X267750Y220550D02*
D03*
X203400Y365400D02*
D03*
X201300Y237200D02*
D03*
X209400Y344253D02*
D03*
X238300Y295300D02*
D03*
X204900Y299900D02*
D03*
X237600Y311200D02*
D03*
X212200Y334200D02*
D03*
X265800Y301700D02*
D03*
X260900Y293600D02*
D03*
X292400Y239200D02*
D03*
X254300Y292700D02*
D03*
X250300Y301700D02*
D03*
X259800Y303800D02*
D03*
X283000Y292900D02*
D03*
X193800Y241200D02*
D03*
X214800Y242100D02*
D03*
X231600Y277100D02*
D03*
X261300Y270800D02*
D03*
X275700Y285800D02*
D03*
D28*
X315000Y370000D02*
D03*
X317500Y365000D02*
D03*
X315000Y360000D02*
D03*
X317500Y355000D02*
D03*
X315000Y350000D02*
D03*
X317500Y345000D02*
D03*
X315000Y340000D02*
D03*
X317500Y335000D02*
D03*
X315000Y330000D02*
D03*
X317500Y325000D02*
D03*
X315000Y320000D02*
D03*
X317500Y315000D02*
D03*
X315000Y310000D02*
D03*
X317500Y305000D02*
D03*
X315000Y300000D02*
D03*
X317500Y295000D02*
D03*
X315000Y290000D02*
D03*
X317500Y285000D02*
D03*
X315000Y280000D02*
D03*
X317500Y275000D02*
D03*
X315000Y270000D02*
D03*
X317500Y265000D02*
D03*
X315000Y260000D02*
D03*
X317500Y255000D02*
D03*
X315000Y250000D02*
D03*
X317500Y245000D02*
D03*
Y235000D02*
D03*
X315000Y230000D02*
D03*
X317500Y225000D02*
D03*
X310000Y370000D02*
D03*
X312500Y365000D02*
D03*
X310000Y360000D02*
D03*
X312500Y355000D02*
D03*
X310000Y350000D02*
D03*
X312500Y345000D02*
D03*
X310000Y340000D02*
D03*
X312500Y335000D02*
D03*
X310000Y330000D02*
D03*
X312500Y325000D02*
D03*
X310000Y320000D02*
D03*
X312500Y315000D02*
D03*
Y305000D02*
D03*
Y295000D02*
D03*
Y285000D02*
D03*
Y275000D02*
D03*
Y265000D02*
D03*
Y255000D02*
D03*
Y245000D02*
D03*
Y225000D02*
D03*
X305000Y370000D02*
D03*
X307500Y365000D02*
D03*
Y345000D02*
D03*
Y335000D02*
D03*
X305000Y330000D02*
D03*
X307500Y325000D02*
D03*
X305000Y320000D02*
D03*
X307500Y315000D02*
D03*
Y305000D02*
D03*
X300000Y370000D02*
D03*
X295000D02*
D03*
Y320000D02*
D03*
Y310000D02*
D03*
X297500Y305000D02*
D03*
X295000Y300000D02*
D03*
Y220000D02*
D03*
X290000Y370000D02*
D03*
X292500Y295000D02*
D03*
Y225000D02*
D03*
X285000Y350000D02*
D03*
Y330000D02*
D03*
Y310000D02*
D03*
X287500Y295000D02*
D03*
X282500Y345000D02*
D03*
X280000Y340000D02*
D03*
Y330000D02*
D03*
X282500Y315000D02*
D03*
X280000Y290000D02*
D03*
X277500Y345000D02*
D03*
X275000Y340000D02*
D03*
X277500Y335000D02*
D03*
Y315000D02*
D03*
X275000Y310000D02*
D03*
X277500Y305000D02*
D03*
X275000Y300000D02*
D03*
Y290000D02*
D03*
Y280000D02*
D03*
Y220000D02*
D03*
X272500Y335000D02*
D03*
X270000Y330000D02*
D03*
Y310000D02*
D03*
X272500Y305000D02*
D03*
X270000Y300000D02*
D03*
Y290000D02*
D03*
X265000Y330000D02*
D03*
X267500Y325000D02*
D03*
Y315000D02*
D03*
X265000Y310000D02*
D03*
X267500Y295000D02*
D03*
Y285000D02*
D03*
Y275000D02*
D03*
X262500Y325000D02*
D03*
Y315000D02*
D03*
X260000Y310000D02*
D03*
X262500Y285000D02*
D03*
Y275000D02*
D03*
X260000Y220000D02*
D03*
X257500Y325000D02*
D03*
Y315000D02*
D03*
X255000Y230000D02*
D03*
X257500Y225000D02*
D03*
X255000Y220000D02*
D03*
X250000Y350000D02*
D03*
X252500Y325000D02*
D03*
Y315000D02*
D03*
X245000Y350000D02*
D03*
X247500Y325000D02*
D03*
X245000Y270000D02*
D03*
X242500Y345000D02*
D03*
X240000Y340000D02*
D03*
X242500Y325000D02*
D03*
X235000Y340000D02*
D03*
Y270000D02*
D03*
Y260000D02*
D03*
X237500Y255000D02*
D03*
X235000Y230000D02*
D03*
X237500Y225000D02*
D03*
X235000Y220000D02*
D03*
X230000Y340000D02*
D03*
X232500Y335000D02*
D03*
X230000Y270000D02*
D03*
X232500Y265000D02*
D03*
X230000Y260000D02*
D03*
X232500Y255000D02*
D03*
X227500Y315000D02*
D03*
Y295000D02*
D03*
Y285000D02*
D03*
Y275000D02*
D03*
Y265000D02*
D03*
Y255000D02*
D03*
X222500Y335000D02*
D03*
X220000Y270000D02*
D03*
Y220000D02*
D03*
X217500Y355000D02*
D03*
X215000Y230000D02*
D03*
X217500Y225000D02*
D03*
X215000Y220000D02*
D03*
X212500Y355000D02*
D03*
X210000Y340000D02*
D03*
X205000Y320000D02*
D03*
Y310000D02*
D03*
X202500Y305000D02*
D03*
Y285000D02*
D03*
Y275000D02*
D03*
X200000Y220000D02*
D03*
X195000Y320000D02*
D03*
X197500Y235000D02*
D03*
X195000Y230000D02*
D03*
Y220000D02*
D03*
X192500Y305000D02*
D03*
Y295000D02*
D03*
Y235000D02*
D03*
X187500Y365000D02*
D03*
X185000Y240000D02*
D03*
X187500Y235000D02*
D03*
X180000Y370000D02*
D03*
Y300000D02*
D03*
X182500Y295000D02*
D03*
X180000Y290000D02*
D03*
X182500Y285000D02*
D03*
X180000Y280000D02*
D03*
X182500Y275000D02*
D03*
X180000Y270000D02*
D03*
Y240000D02*
D03*
X182500Y235000D02*
D03*
X180000Y230000D02*
D03*
Y220000D02*
D03*
X175000Y370000D02*
D03*
X177500Y365000D02*
D03*
X175000Y360000D02*
D03*
X177500Y355000D02*
D03*
X175000Y350000D02*
D03*
X177500Y345000D02*
D03*
X175000Y340000D02*
D03*
X177500Y335000D02*
D03*
X175000Y330000D02*
D03*
X177500Y325000D02*
D03*
X175000Y320000D02*
D03*
X177500Y315000D02*
D03*
X175000Y310000D02*
D03*
X177500Y305000D02*
D03*
X175000Y300000D02*
D03*
X177500Y295000D02*
D03*
X175000Y290000D02*
D03*
X177500Y285000D02*
D03*
X175000Y280000D02*
D03*
X177500Y275000D02*
D03*
X175000Y270000D02*
D03*
X177500Y265000D02*
D03*
X175000Y260000D02*
D03*
X177500Y255000D02*
D03*
X175000Y250000D02*
D03*
X177500Y245000D02*
D03*
X175000Y240000D02*
D03*
X177500Y235000D02*
D03*
Y225000D02*
D03*
X175000Y220000D02*
D03*
X170000Y370000D02*
D03*
X172500Y365000D02*
D03*
Y345000D02*
D03*
X170000Y340000D02*
D03*
X172500Y335000D02*
D03*
X170000Y330000D02*
D03*
X172500Y325000D02*
D03*
X170000Y320000D02*
D03*
X172500Y315000D02*
D03*
X170000Y310000D02*
D03*
X172500Y305000D02*
D03*
X170000Y300000D02*
D03*
X172500Y295000D02*
D03*
X170000Y290000D02*
D03*
X172500Y285000D02*
D03*
X170000Y280000D02*
D03*
X172500Y275000D02*
D03*
X170000Y270000D02*
D03*
X172500Y265000D02*
D03*
X170000Y260000D02*
D03*
X172500Y255000D02*
D03*
Y245000D02*
D03*
X170000Y240000D02*
D03*
X172500Y235000D02*
D03*
X165000Y370000D02*
D03*
X167500Y365000D02*
D03*
Y345000D02*
D03*
X165000Y340000D02*
D03*
X167500Y335000D02*
D03*
X165000Y330000D02*
D03*
X167500Y325000D02*
D03*
X165000Y320000D02*
D03*
X167500Y315000D02*
D03*
X165000Y310000D02*
D03*
X167500Y305000D02*
D03*
X165000Y300000D02*
D03*
X167500Y295000D02*
D03*
X165000Y290000D02*
D03*
X167500Y285000D02*
D03*
X165000Y280000D02*
D03*
X167500Y275000D02*
D03*
X165000Y270000D02*
D03*
X167500Y265000D02*
D03*
X165000Y260000D02*
D03*
Y240000D02*
D03*
X167500Y235000D02*
D03*
X160000Y370000D02*
D03*
X162500Y365000D02*
D03*
Y345000D02*
D03*
X160000Y340000D02*
D03*
X162500Y335000D02*
D03*
X160000Y330000D02*
D03*
X162500Y325000D02*
D03*
X160000Y320000D02*
D03*
X162500Y315000D02*
D03*
X160000Y310000D02*
D03*
X162500Y305000D02*
D03*
X160000Y300000D02*
D03*
X162500Y295000D02*
D03*
X160000Y290000D02*
D03*
X162500Y285000D02*
D03*
X160000Y280000D02*
D03*
X162500Y275000D02*
D03*
X160000Y270000D02*
D03*
X162500Y265000D02*
D03*
X160000Y260000D02*
D03*
Y240000D02*
D03*
X162500Y235000D02*
D03*
X160000Y230000D02*
D03*
Y220000D02*
D03*
X157500Y365000D02*
D03*
X155000Y360000D02*
D03*
Y350000D02*
D03*
X157500Y345000D02*
D03*
X155000Y340000D02*
D03*
X157500Y335000D02*
D03*
X155000Y330000D02*
D03*
X157500Y325000D02*
D03*
X155000Y320000D02*
D03*
X157500Y315000D02*
D03*
X155000Y310000D02*
D03*
X157500Y305000D02*
D03*
X155000Y300000D02*
D03*
X157500Y295000D02*
D03*
X155000Y290000D02*
D03*
X157500Y285000D02*
D03*
X155000Y280000D02*
D03*
X157500Y275000D02*
D03*
X155000Y270000D02*
D03*
X157500Y265000D02*
D03*
X155000Y260000D02*
D03*
X157500Y255000D02*
D03*
X155000Y250000D02*
D03*
X157500Y245000D02*
D03*
X155000Y240000D02*
D03*
X157500Y235000D02*
D03*
X155000Y230000D02*
D03*
X157500Y225000D02*
D03*
M02*
